<mxfile host="app.diagrams.net" modified="2023-09-11T14:17:32.046Z" agent="Mozilla/5.0 (Windows NT 10.0; Win64; x64) AppleWebKit/537.36 (KHTML, like Gecko) Chrome/116.0.0.0 Safari/537.36" etag="8N3FGoaRTT_w8gDup8L0" version="21.7.4" type="github">
  <diagram name="Page-1" id="74e2e168-ea6b-b213-b513-2b3c1d86103e">
    <mxGraphModel dx="1376" dy="768" grid="1" gridSize="10" guides="1" tooltips="1" connect="1" arrows="1" fold="1" page="1" pageScale="1" pageWidth="1100" pageHeight="850" background="none" math="0" shadow="0">
      <root>
        <mxCell id="0" />
        <mxCell id="1" parent="0" />
        <mxCell id="N3PisCW0dnbsBlv9NRA1-1" value="&lt;font style=&quot;font-size: 18px;&quot;&gt;E&lt;sub style=&quot;&quot;&gt;[CLS]&lt;/sub&gt;&lt;/font&gt;" style="rounded=1;whiteSpace=wrap;html=1;" parent="1" vertex="1">
          <mxGeometry x="30" y="710" width="80" height="50" as="geometry" />
        </mxCell>
        <mxCell id="N3PisCW0dnbsBlv9NRA1-5" value="&lt;font style=&quot;font-size: 18px;&quot;&gt;E&lt;sub&gt;1&lt;/sub&gt;&lt;sup&gt;h&lt;/sup&gt;&lt;/font&gt;" style="rounded=1;whiteSpace=wrap;html=1;" parent="1" vertex="1">
          <mxGeometry x="120" y="710" width="50" height="50" as="geometry" />
        </mxCell>
        <mxCell id="N3PisCW0dnbsBlv9NRA1-6" value="&lt;font style=&quot;font-size: 18px;&quot;&gt;E&lt;sub&gt;a&lt;/sub&gt;&lt;sup&gt;h&lt;/sup&gt;&lt;/font&gt;" style="rounded=1;whiteSpace=wrap;html=1;" parent="1" vertex="1">
          <mxGeometry x="210" y="710" width="50" height="50" as="geometry" />
        </mxCell>
        <mxCell id="N3PisCW0dnbsBlv9NRA1-7" value="&lt;font style=&quot;font-size: 18px;&quot;&gt;E&lt;sub&gt;b&lt;/sub&gt;&lt;sup style=&quot;&quot;&gt;r&lt;/sup&gt;&lt;/font&gt;" style="rounded=1;whiteSpace=wrap;html=1;" parent="1" vertex="1">
          <mxGeometry x="430" y="710" width="50" height="50" as="geometry" />
        </mxCell>
        <mxCell id="N3PisCW0dnbsBlv9NRA1-8" value="&lt;font style=&quot;font-size: 18px;&quot;&gt;E&lt;sub&gt;1&lt;/sub&gt;&lt;sup&gt;t&lt;/sup&gt;&lt;/font&gt;" style="rounded=1;whiteSpace=wrap;html=1;" parent="1" vertex="1">
          <mxGeometry x="560" y="710" width="50" height="50" as="geometry" />
        </mxCell>
        <mxCell id="N3PisCW0dnbsBlv9NRA1-9" value="&lt;font style=&quot;font-size: 18px;&quot;&gt;E&lt;sub&gt;1&lt;/sub&gt;&lt;sup&gt;r&lt;/sup&gt;&lt;/font&gt;" style="rounded=1;whiteSpace=wrap;html=1;" parent="1" vertex="1">
          <mxGeometry x="340" y="710" width="50" height="50" as="geometry" />
        </mxCell>
        <mxCell id="N3PisCW0dnbsBlv9NRA1-10" value="&lt;font style=&quot;font-size: 18px;&quot;&gt;E&lt;sub&gt;[SEP]&lt;/sub&gt;&lt;sup&gt;h&lt;/sup&gt;&lt;/font&gt;" style="rounded=1;whiteSpace=wrap;html=1;" parent="1" vertex="1">
          <mxGeometry x="270" y="710" width="60" height="50" as="geometry" />
        </mxCell>
        <mxCell id="N3PisCW0dnbsBlv9NRA1-12" value="&lt;font style=&quot;font-size: 18px;&quot;&gt;E&lt;sub style=&quot;&quot;&gt;[SEP]&lt;/sub&gt;&lt;sup style=&quot;&quot;&gt;r&lt;/sup&gt;&lt;/font&gt;" style="rounded=1;whiteSpace=wrap;html=1;" parent="1" vertex="1">
          <mxGeometry x="490" y="710" width="60" height="50" as="geometry" />
        </mxCell>
        <mxCell id="N3PisCW0dnbsBlv9NRA1-13" value="&lt;font style=&quot;font-size: 18px;&quot;&gt;E&lt;sub&gt;c&lt;/sub&gt;&lt;sup&gt;t&lt;/sup&gt;&lt;/font&gt;" style="rounded=1;whiteSpace=wrap;html=1;" parent="1" vertex="1">
          <mxGeometry x="660" y="710" width="50" height="50" as="geometry" />
        </mxCell>
        <mxCell id="N3PisCW0dnbsBlv9NRA1-14" value="&lt;font style=&quot;font-size: 18px;&quot;&gt;E&lt;sub&gt;[SEP]&lt;/sub&gt;&lt;sup&gt;t&lt;/sup&gt;&lt;/font&gt;" style="rounded=1;whiteSpace=wrap;html=1;" parent="1" vertex="1">
          <mxGeometry x="720" y="710" width="70" height="50" as="geometry" />
        </mxCell>
        <mxCell id="N3PisCW0dnbsBlv9NRA1-16" value="" style="endArrow=none;dashed=1;html=1;rounded=0;exitX=1;exitY=0.5;exitDx=0;exitDy=0;entryX=0;entryY=0.5;entryDx=0;entryDy=0;" parent="1" source="N3PisCW0dnbsBlv9NRA1-5" target="N3PisCW0dnbsBlv9NRA1-6" edge="1">
          <mxGeometry width="50" height="50" relative="1" as="geometry">
            <mxPoint x="160" y="800" as="sourcePoint" />
            <mxPoint x="210" y="750" as="targetPoint" />
            <Array as="points" />
          </mxGeometry>
        </mxCell>
        <mxCell id="N3PisCW0dnbsBlv9NRA1-18" value="" style="endArrow=none;dashed=1;html=1;rounded=0;exitX=1;exitY=0.5;exitDx=0;exitDy=0;entryX=0;entryY=0.5;entryDx=0;entryDy=0;" parent="1" source="N3PisCW0dnbsBlv9NRA1-9" target="N3PisCW0dnbsBlv9NRA1-7" edge="1">
          <mxGeometry width="50" height="50" relative="1" as="geometry">
            <mxPoint x="390" y="810" as="sourcePoint" />
            <mxPoint x="440" y="760" as="targetPoint" />
          </mxGeometry>
        </mxCell>
        <mxCell id="N3PisCW0dnbsBlv9NRA1-22" value="" style="endArrow=none;dashed=1;html=1;rounded=0;entryX=0;entryY=0.5;entryDx=0;entryDy=0;exitX=1;exitY=0.5;exitDx=0;exitDy=0;" parent="1" source="N3PisCW0dnbsBlv9NRA1-8" target="N3PisCW0dnbsBlv9NRA1-13" edge="1">
          <mxGeometry width="50" height="50" relative="1" as="geometry">
            <mxPoint x="610" y="760" as="sourcePoint" />
            <mxPoint x="660" y="710" as="targetPoint" />
          </mxGeometry>
        </mxCell>
        <mxCell id="N3PisCW0dnbsBlv9NRA1-23" value="&lt;font style=&quot;font-size: 18px;&quot;&gt;CLS&lt;/font&gt;" style="rounded=1;whiteSpace=wrap;html=1;" parent="1" vertex="1">
          <mxGeometry x="35" y="780" width="70" height="40" as="geometry" />
        </mxCell>
        <mxCell id="N3PisCW0dnbsBlv9NRA1-54" style="edgeStyle=orthogonalEdgeStyle;rounded=0;orthogonalLoop=1;jettySize=auto;html=1;exitX=0.5;exitY=1;exitDx=0;exitDy=0;entryX=0.5;entryY=1;entryDx=0;entryDy=0;" parent="1" source="N3PisCW0dnbsBlv9NRA1-25" target="N3PisCW0dnbsBlv9NRA1-26" edge="1">
          <mxGeometry relative="1" as="geometry">
            <Array as="points">
              <mxPoint x="145" y="830" />
              <mxPoint x="235" y="830" />
            </Array>
          </mxGeometry>
        </mxCell>
        <mxCell id="N3PisCW0dnbsBlv9NRA1-25" value="&lt;font style=&quot;font-size: 18px;&quot;&gt;Tok&lt;sub&gt;1&lt;/sub&gt;&lt;sup&gt;h&lt;/sup&gt;&lt;/font&gt;" style="rounded=1;whiteSpace=wrap;html=1;" parent="1" vertex="1">
          <mxGeometry x="120" y="780" width="50" height="40" as="geometry" />
        </mxCell>
        <mxCell id="N3PisCW0dnbsBlv9NRA1-26" value="&lt;font style=&quot;font-size: 18px;&quot;&gt;Tok&lt;sub&gt;a&lt;/sub&gt;&lt;sup&gt;h&lt;/sup&gt;&lt;/font&gt;" style="rounded=1;whiteSpace=wrap;html=1;" parent="1" vertex="1">
          <mxGeometry x="210" y="780" width="50" height="40" as="geometry" />
        </mxCell>
        <mxCell id="N3PisCW0dnbsBlv9NRA1-27" value="&lt;font style=&quot;font-size: 18px;&quot;&gt;[SEP]&lt;/font&gt;" style="rounded=1;whiteSpace=wrap;html=1;" parent="1" vertex="1">
          <mxGeometry x="270" y="780" width="60" height="40" as="geometry" />
        </mxCell>
        <mxCell id="N3PisCW0dnbsBlv9NRA1-28" value="&lt;font style=&quot;font-size: 18px;&quot;&gt;Tok&lt;sub&gt;b&lt;/sub&gt;&lt;sup&gt;r&lt;/sup&gt;&lt;/font&gt;" style="rounded=1;whiteSpace=wrap;html=1;" parent="1" vertex="1">
          <mxGeometry x="430" y="780" width="50" height="40" as="geometry" />
        </mxCell>
        <mxCell id="N3PisCW0dnbsBlv9NRA1-55" style="edgeStyle=orthogonalEdgeStyle;rounded=0;orthogonalLoop=1;jettySize=auto;html=1;exitX=0.5;exitY=1;exitDx=0;exitDy=0;entryX=0.5;entryY=1;entryDx=0;entryDy=0;" parent="1" source="N3PisCW0dnbsBlv9NRA1-29" target="N3PisCW0dnbsBlv9NRA1-28" edge="1">
          <mxGeometry relative="1" as="geometry">
            <Array as="points">
              <mxPoint x="365" y="830" />
              <mxPoint x="455" y="830" />
            </Array>
          </mxGeometry>
        </mxCell>
        <mxCell id="N3PisCW0dnbsBlv9NRA1-29" value="&lt;font style=&quot;font-size: 18px;&quot;&gt;Tok&lt;sub&gt;1&lt;/sub&gt;&lt;sup&gt;r&lt;/sup&gt;&lt;/font&gt;" style="rounded=1;whiteSpace=wrap;html=1;" parent="1" vertex="1">
          <mxGeometry x="340" y="780" width="50" height="40" as="geometry" />
        </mxCell>
        <mxCell id="N3PisCW0dnbsBlv9NRA1-31" value="&lt;font style=&quot;font-size: 18px;&quot;&gt;[SEP]&lt;/font&gt;" style="rounded=1;whiteSpace=wrap;html=1;" parent="1" vertex="1">
          <mxGeometry x="490" y="780" width="60" height="40" as="geometry" />
        </mxCell>
        <mxCell id="N3PisCW0dnbsBlv9NRA1-56" style="edgeStyle=orthogonalEdgeStyle;rounded=0;orthogonalLoop=1;jettySize=auto;html=1;exitX=0.5;exitY=1;exitDx=0;exitDy=0;entryX=0.5;entryY=1;entryDx=0;entryDy=0;" parent="1" source="N3PisCW0dnbsBlv9NRA1-32" target="N3PisCW0dnbsBlv9NRA1-33" edge="1">
          <mxGeometry relative="1" as="geometry">
            <Array as="points">
              <mxPoint x="585" y="830" />
              <mxPoint x="685" y="830" />
            </Array>
          </mxGeometry>
        </mxCell>
        <mxCell id="N3PisCW0dnbsBlv9NRA1-32" value="&lt;font style=&quot;font-size: 18px;&quot;&gt;Tok&lt;sub&gt;1&lt;/sub&gt;&lt;sup&gt;t&lt;/sup&gt;&lt;/font&gt;" style="rounded=1;whiteSpace=wrap;html=1;" parent="1" vertex="1">
          <mxGeometry x="560" y="780" width="50" height="40" as="geometry" />
        </mxCell>
        <mxCell id="N3PisCW0dnbsBlv9NRA1-33" value="&lt;font style=&quot;font-size: 18px;&quot;&gt;Tok&lt;sub&gt;c&lt;/sub&gt;&lt;sup&gt;t&lt;/sup&gt;&lt;/font&gt;" style="rounded=1;whiteSpace=wrap;html=1;" parent="1" vertex="1">
          <mxGeometry x="660" y="780" width="50" height="40" as="geometry" />
        </mxCell>
        <mxCell id="N3PisCW0dnbsBlv9NRA1-34" value="&lt;font style=&quot;font-size: 18px;&quot;&gt;[SEP]&lt;/font&gt;" style="rounded=1;whiteSpace=wrap;html=1;" parent="1" vertex="1">
          <mxGeometry x="725" y="780" width="60" height="40" as="geometry" />
        </mxCell>
        <mxCell id="N3PisCW0dnbsBlv9NRA1-35" value="" style="endArrow=classic;html=1;rounded=0;entryX=0.5;entryY=1;entryDx=0;entryDy=0;" parent="1" source="N3PisCW0dnbsBlv9NRA1-23" target="N3PisCW0dnbsBlv9NRA1-1" edge="1">
          <mxGeometry width="50" height="50" relative="1" as="geometry">
            <mxPoint x="30" y="810" as="sourcePoint" />
            <mxPoint x="80" y="760" as="targetPoint" />
          </mxGeometry>
        </mxCell>
        <mxCell id="N3PisCW0dnbsBlv9NRA1-37" value="" style="endArrow=classic;html=1;rounded=0;exitX=0.5;exitY=0;exitDx=0;exitDy=0;entryX=0.5;entryY=1;entryDx=0;entryDy=0;" parent="1" source="N3PisCW0dnbsBlv9NRA1-25" target="N3PisCW0dnbsBlv9NRA1-5" edge="1">
          <mxGeometry width="50" height="50" relative="1" as="geometry">
            <mxPoint x="100" y="810" as="sourcePoint" />
            <mxPoint x="150" y="760" as="targetPoint" />
          </mxGeometry>
        </mxCell>
        <mxCell id="N3PisCW0dnbsBlv9NRA1-38" value="" style="endArrow=classic;html=1;rounded=0;exitX=0.5;exitY=0;exitDx=0;exitDy=0;entryX=0.5;entryY=1;entryDx=0;entryDy=0;" parent="1" source="N3PisCW0dnbsBlv9NRA1-26" target="N3PisCW0dnbsBlv9NRA1-6" edge="1">
          <mxGeometry width="50" height="50" relative="1" as="geometry">
            <mxPoint x="190" y="810" as="sourcePoint" />
            <mxPoint x="240" y="760" as="targetPoint" />
          </mxGeometry>
        </mxCell>
        <mxCell id="N3PisCW0dnbsBlv9NRA1-39" value="" style="endArrow=classic;html=1;rounded=0;exitX=0.5;exitY=0;exitDx=0;exitDy=0;" parent="1" source="N3PisCW0dnbsBlv9NRA1-27" edge="1">
          <mxGeometry width="50" height="50" relative="1" as="geometry">
            <mxPoint x="250" y="810" as="sourcePoint" />
            <mxPoint x="300" y="760" as="targetPoint" />
          </mxGeometry>
        </mxCell>
        <mxCell id="N3PisCW0dnbsBlv9NRA1-40" value="" style="endArrow=classic;html=1;rounded=0;entryX=0.5;entryY=1;entryDx=0;entryDy=0;exitX=0.5;exitY=0;exitDx=0;exitDy=0;" parent="1" source="N3PisCW0dnbsBlv9NRA1-29" target="N3PisCW0dnbsBlv9NRA1-9" edge="1">
          <mxGeometry width="50" height="50" relative="1" as="geometry">
            <mxPoint x="110" y="1080" as="sourcePoint" />
            <mxPoint x="160" y="1030" as="targetPoint" />
          </mxGeometry>
        </mxCell>
        <mxCell id="N3PisCW0dnbsBlv9NRA1-41" value="" style="endArrow=classic;html=1;rounded=0;exitX=0.5;exitY=0;exitDx=0;exitDy=0;entryX=0.5;entryY=1;entryDx=0;entryDy=0;" parent="1" source="N3PisCW0dnbsBlv9NRA1-28" target="N3PisCW0dnbsBlv9NRA1-7" edge="1">
          <mxGeometry width="50" height="50" relative="1" as="geometry">
            <mxPoint x="410" y="810" as="sourcePoint" />
            <mxPoint x="460" y="760" as="targetPoint" />
          </mxGeometry>
        </mxCell>
        <mxCell id="N3PisCW0dnbsBlv9NRA1-42" value="" style="endArrow=classic;html=1;rounded=0;exitX=0.5;exitY=0;exitDx=0;exitDy=0;" parent="1" source="N3PisCW0dnbsBlv9NRA1-31" edge="1">
          <mxGeometry width="50" height="50" relative="1" as="geometry">
            <mxPoint x="470" y="810" as="sourcePoint" />
            <mxPoint x="520" y="760" as="targetPoint" />
          </mxGeometry>
        </mxCell>
        <mxCell id="N3PisCW0dnbsBlv9NRA1-43" value="" style="endArrow=classic;html=1;rounded=0;exitX=0.5;exitY=0;exitDx=0;exitDy=0;entryX=0.5;entryY=1;entryDx=0;entryDy=0;" parent="1" source="N3PisCW0dnbsBlv9NRA1-32" target="N3PisCW0dnbsBlv9NRA1-8" edge="1">
          <mxGeometry width="50" height="50" relative="1" as="geometry">
            <mxPoint x="530" y="810" as="sourcePoint" />
            <mxPoint x="580" y="760" as="targetPoint" />
          </mxGeometry>
        </mxCell>
        <mxCell id="N3PisCW0dnbsBlv9NRA1-44" value="" style="endArrow=classic;html=1;rounded=0;exitX=0.5;exitY=0;exitDx=0;exitDy=0;entryX=0.5;entryY=1;entryDx=0;entryDy=0;" parent="1" source="N3PisCW0dnbsBlv9NRA1-33" target="N3PisCW0dnbsBlv9NRA1-13" edge="1">
          <mxGeometry width="50" height="50" relative="1" as="geometry">
            <mxPoint x="640" y="810" as="sourcePoint" />
            <mxPoint x="690" y="760" as="targetPoint" />
          </mxGeometry>
        </mxCell>
        <mxCell id="N3PisCW0dnbsBlv9NRA1-45" value="" style="endArrow=classic;html=1;rounded=0;exitX=0.5;exitY=0;exitDx=0;exitDy=0;entryX=0.5;entryY=1;entryDx=0;entryDy=0;" parent="1" source="N3PisCW0dnbsBlv9NRA1-34" target="N3PisCW0dnbsBlv9NRA1-14" edge="1">
          <mxGeometry width="50" height="50" relative="1" as="geometry">
            <mxPoint x="710" y="810" as="sourcePoint" />
            <mxPoint x="760" y="760" as="targetPoint" />
          </mxGeometry>
        </mxCell>
        <mxCell id="N3PisCW0dnbsBlv9NRA1-46" value="" style="endArrow=none;dashed=1;html=1;rounded=0;exitX=1;exitY=0.5;exitDx=0;exitDy=0;" parent="1" source="N3PisCW0dnbsBlv9NRA1-25" edge="1">
          <mxGeometry width="50" height="50" relative="1" as="geometry">
            <mxPoint x="160" y="850" as="sourcePoint" />
            <mxPoint x="210" y="800" as="targetPoint" />
          </mxGeometry>
        </mxCell>
        <mxCell id="N3PisCW0dnbsBlv9NRA1-47" value="" style="endArrow=none;dashed=1;html=1;rounded=0;exitX=1;exitY=0.5;exitDx=0;exitDy=0;" parent="1" source="N3PisCW0dnbsBlv9NRA1-29" edge="1">
          <mxGeometry width="50" height="50" relative="1" as="geometry">
            <mxPoint x="380" y="850" as="sourcePoint" />
            <mxPoint x="430" y="800" as="targetPoint" />
          </mxGeometry>
        </mxCell>
        <mxCell id="N3PisCW0dnbsBlv9NRA1-48" value="" style="endArrow=none;dashed=1;html=1;rounded=0;exitX=1;exitY=0.5;exitDx=0;exitDy=0;" parent="1" source="N3PisCW0dnbsBlv9NRA1-32" edge="1">
          <mxGeometry width="50" height="50" relative="1" as="geometry">
            <mxPoint x="610" y="850" as="sourcePoint" />
            <mxPoint x="660" y="800" as="targetPoint" />
          </mxGeometry>
        </mxCell>
        <mxCell id="N3PisCW0dnbsBlv9NRA1-49" value="" style="endArrow=classic;html=1;rounded=0;" parent="1" edge="1">
          <mxGeometry width="50" height="50" relative="1" as="geometry">
            <mxPoint x="190" y="790" as="sourcePoint" />
            <mxPoint x="190" y="740" as="targetPoint" />
          </mxGeometry>
        </mxCell>
        <mxCell id="N3PisCW0dnbsBlv9NRA1-51" value="" style="endArrow=classic;html=1;rounded=0;" parent="1" edge="1">
          <mxGeometry width="50" height="50" relative="1" as="geometry">
            <mxPoint x="410" y="790" as="sourcePoint" />
            <mxPoint x="410" y="740" as="targetPoint" />
          </mxGeometry>
        </mxCell>
        <mxCell id="N3PisCW0dnbsBlv9NRA1-52" value="" style="endArrow=classic;html=1;rounded=0;" parent="1" edge="1">
          <mxGeometry width="50" height="50" relative="1" as="geometry">
            <mxPoint x="640" y="790" as="sourcePoint" />
            <mxPoint x="640" y="740" as="targetPoint" />
          </mxGeometry>
        </mxCell>
        <mxCell id="N3PisCW0dnbsBlv9NRA1-57" value="&lt;font style=&quot;font-size: 14px;&quot;&gt;Head Entity&lt;/font&gt;" style="text;html=1;align=center;verticalAlign=middle;resizable=0;points=[];autosize=1;strokeColor=none;fillColor=none;" parent="1" vertex="1">
          <mxGeometry x="145" y="820" width="100" height="30" as="geometry" />
        </mxCell>
        <mxCell id="N3PisCW0dnbsBlv9NRA1-59" value="&lt;span style=&quot;font-size: 14px;&quot;&gt;Relation&lt;/span&gt;" style="text;html=1;align=center;verticalAlign=middle;resizable=0;points=[];autosize=1;strokeColor=none;fillColor=none;" parent="1" vertex="1">
          <mxGeometry x="385" y="820" width="70" height="30" as="geometry" />
        </mxCell>
        <mxCell id="N3PisCW0dnbsBlv9NRA1-60" value="&lt;font style=&quot;font-size: 14px;&quot;&gt;Tail Entity&lt;/font&gt;" style="text;html=1;align=center;verticalAlign=middle;resizable=0;points=[];autosize=1;strokeColor=none;fillColor=none;" parent="1" vertex="1">
          <mxGeometry x="600" y="820" width="80" height="30" as="geometry" />
        </mxCell>
        <mxCell id="N3PisCW0dnbsBlv9NRA1-62" value="&lt;font style=&quot;font-size: 18px;&quot;&gt;C&lt;/font&gt;" style="rounded=1;whiteSpace=wrap;html=1;" parent="1" vertex="1">
          <mxGeometry x="25" y="50" width="65" height="50" as="geometry" />
        </mxCell>
        <mxCell id="N3PisCW0dnbsBlv9NRA1-63" value="&lt;span style=&quot;font-size: 18px;&quot;&gt;T&lt;sub&gt;1&lt;/sub&gt;&lt;sup&gt;h&lt;/sup&gt;&lt;/span&gt;" style="rounded=1;whiteSpace=wrap;html=1;" parent="1" vertex="1">
          <mxGeometry x="105" y="50" width="55" height="50" as="geometry" />
        </mxCell>
        <mxCell id="N3PisCW0dnbsBlv9NRA1-64" value="&lt;span style=&quot;font-size: 18px;&quot;&gt;T&lt;sub&gt;1&lt;/sub&gt;&lt;sup&gt;r&lt;/sup&gt;&lt;/span&gt;" style="rounded=1;whiteSpace=wrap;html=1;" parent="1" vertex="1">
          <mxGeometry x="335" y="50" width="55" height="50" as="geometry" />
        </mxCell>
        <mxCell id="N3PisCW0dnbsBlv9NRA1-65" value="&lt;span style=&quot;font-size: 18px;&quot;&gt;T&lt;sub&gt;1&lt;/sub&gt;&lt;sup&gt;t&lt;/sup&gt;&lt;/span&gt;" style="rounded=1;whiteSpace=wrap;html=1;" parent="1" vertex="1">
          <mxGeometry x="555" y="50" width="55" height="50" as="geometry" />
        </mxCell>
        <mxCell id="N3PisCW0dnbsBlv9NRA1-66" value="&lt;span style=&quot;font-size: 18px;&quot;&gt;T&lt;sub&gt;a&lt;/sub&gt;&lt;sup&gt;h&lt;/sup&gt;&lt;/span&gt;" style="rounded=1;whiteSpace=wrap;html=1;" parent="1" vertex="1">
          <mxGeometry x="210" y="50" width="55" height="50" as="geometry" />
        </mxCell>
        <mxCell id="N3PisCW0dnbsBlv9NRA1-67" value="&lt;span style=&quot;font-size: 18px;&quot;&gt;T&lt;sub&gt;b&lt;/sub&gt;&lt;sup&gt;h&lt;/sup&gt;&lt;/span&gt;" style="rounded=1;whiteSpace=wrap;html=1;" parent="1" vertex="1">
          <mxGeometry x="430" y="50" width="55" height="50" as="geometry" />
        </mxCell>
        <mxCell id="N3PisCW0dnbsBlv9NRA1-68" value="&lt;span style=&quot;font-size: 18px;&quot;&gt;T&lt;sub&gt;c&lt;/sub&gt;&lt;sup&gt;t&lt;/sup&gt;&lt;/span&gt;" style="rounded=1;whiteSpace=wrap;html=1;" parent="1" vertex="1">
          <mxGeometry x="655" y="50" width="55" height="50" as="geometry" />
        </mxCell>
        <mxCell id="N3PisCW0dnbsBlv9NRA1-69" value="&lt;span style=&quot;font-size: 18px;&quot;&gt;T&lt;sub&gt;[SEP]&lt;/sub&gt;&lt;sup&gt;t&lt;/sup&gt;&lt;/span&gt;" style="rounded=1;whiteSpace=wrap;html=1;" parent="1" vertex="1">
          <mxGeometry x="720" y="50" width="70" height="50" as="geometry" />
        </mxCell>
        <mxCell id="N3PisCW0dnbsBlv9NRA1-70" value="&lt;span style=&quot;font-size: 18px;&quot;&gt;T&lt;sub&gt;[SEP]&lt;/sub&gt;&lt;sup&gt;r&lt;/sup&gt;&lt;/span&gt;" style="rounded=1;whiteSpace=wrap;html=1;" parent="1" vertex="1">
          <mxGeometry x="492.5" y="50" width="55" height="50" as="geometry" />
        </mxCell>
        <mxCell id="N3PisCW0dnbsBlv9NRA1-71" value="&lt;span style=&quot;font-size: 18px;&quot;&gt;T&lt;sub&gt;[SEP]&lt;/sub&gt;&lt;sup&gt;h&lt;/sup&gt;&lt;/span&gt;" style="rounded=1;whiteSpace=wrap;html=1;" parent="1" vertex="1">
          <mxGeometry x="275" y="50" width="55" height="50" as="geometry" />
        </mxCell>
        <mxCell id="N3PisCW0dnbsBlv9NRA1-72" value="" style="endArrow=none;dashed=1;html=1;rounded=0;exitX=1;exitY=0.5;exitDx=0;exitDy=0;entryX=0;entryY=0.5;entryDx=0;entryDy=0;" parent="1" source="N3PisCW0dnbsBlv9NRA1-63" target="N3PisCW0dnbsBlv9NRA1-66" edge="1">
          <mxGeometry width="50" height="50" relative="1" as="geometry">
            <mxPoint x="160" y="120" as="sourcePoint" />
            <mxPoint x="210" y="70" as="targetPoint" />
          </mxGeometry>
        </mxCell>
        <mxCell id="N3PisCW0dnbsBlv9NRA1-73" value="" style="endArrow=none;dashed=1;html=1;rounded=0;exitX=1;exitY=0.5;exitDx=0;exitDy=0;" parent="1" source="N3PisCW0dnbsBlv9NRA1-64" edge="1">
          <mxGeometry width="50" height="50" relative="1" as="geometry">
            <mxPoint x="380" y="120" as="sourcePoint" />
            <mxPoint x="430" y="75" as="targetPoint" />
          </mxGeometry>
        </mxCell>
        <mxCell id="N3PisCW0dnbsBlv9NRA1-74" value="" style="endArrow=none;dashed=1;html=1;rounded=0;exitX=1;exitY=0.5;exitDx=0;exitDy=0;entryX=0;entryY=0.5;entryDx=0;entryDy=0;" parent="1" source="N3PisCW0dnbsBlv9NRA1-65" target="N3PisCW0dnbsBlv9NRA1-68" edge="1">
          <mxGeometry width="50" height="50" relative="1" as="geometry">
            <mxPoint x="600" y="130" as="sourcePoint" />
            <mxPoint x="650" y="80" as="targetPoint" />
          </mxGeometry>
        </mxCell>
        <mxCell id="N3PisCW0dnbsBlv9NRA1-77" style="edgeStyle=orthogonalEdgeStyle;rounded=0;orthogonalLoop=1;jettySize=auto;html=1;exitX=0.5;exitY=0;exitDx=0;exitDy=0;entryX=0.5;entryY=1;entryDx=0;entryDy=0;" parent="1" source="N3PisCW0dnbsBlv9NRA1-75" target="N3PisCW0dnbsBlv9NRA1-76" edge="1">
          <mxGeometry relative="1" as="geometry" />
        </mxCell>
        <mxCell id="N3PisCW0dnbsBlv9NRA1-75" value="读入entities" style="rounded=1;whiteSpace=wrap;html=1;" parent="1" vertex="1">
          <mxGeometry x="870" y="810" width="100" height="30" as="geometry" />
        </mxCell>
        <mxCell id="N3PisCW0dnbsBlv9NRA1-76" value="tokenizer" style="rounded=1;whiteSpace=wrap;html=1;" parent="1" vertex="1">
          <mxGeometry x="870" y="770" width="100" height="30" as="geometry" />
        </mxCell>
        <mxCell id="N3PisCW0dnbsBlv9NRA1-81" style="edgeStyle=orthogonalEdgeStyle;rounded=0;orthogonalLoop=1;jettySize=auto;html=1;exitX=0.5;exitY=0;exitDx=0;exitDy=0;entryX=0.5;entryY=1;entryDx=0;entryDy=0;" parent="1" source="N3PisCW0dnbsBlv9NRA1-78" target="N3PisCW0dnbsBlv9NRA1-80" edge="1">
          <mxGeometry relative="1" as="geometry" />
        </mxCell>
        <mxCell id="N3PisCW0dnbsBlv9NRA1-78" value="&lt;div style=&quot;color: rgb(255, 255, 255); background-color: rgb(0, 0, 0); font-family: Consolas, &amp;quot;Courier New&amp;quot;, monospace; font-size: 16px; line-height: 22px;&quot;&gt;第一个模型内的 bert 获取权重，然后加载到第二个模型内的 bert 中&lt;/div&gt;" style="rounded=1;whiteSpace=wrap;html=1;" parent="1" vertex="1">
          <mxGeometry x="820" y="670" width="220" height="90" as="geometry" />
        </mxCell>
        <mxCell id="N3PisCW0dnbsBlv9NRA1-82" style="edgeStyle=orthogonalEdgeStyle;rounded=0;orthogonalLoop=1;jettySize=auto;html=1;exitX=0.5;exitY=0;exitDx=0;exitDy=0;" parent="1" source="N3PisCW0dnbsBlv9NRA1-80" edge="1">
          <mxGeometry relative="1" as="geometry">
            <mxPoint x="930" y="570" as="targetPoint" />
          </mxGeometry>
        </mxCell>
        <mxCell id="N3PisCW0dnbsBlv9NRA1-80" value="&lt;font style=&quot;font-size: 18px;&quot;&gt;dataFeatures&lt;br&gt;&lt;/font&gt;&lt;div style=&quot;color: rgb(255, 255, 255); background-color: rgb(0, 0, 0); font-family: Consolas, &amp;quot;Courier New&amp;quot;, monospace; line-height: 22px;&quot;&gt;&lt;font size=&quot;3&quot;&gt;convert_examples_to_features&lt;/font&gt;&lt;/div&gt;" style="rounded=1;whiteSpace=wrap;html=1;" parent="1" vertex="1">
          <mxGeometry x="807" y="594" width="245" height="60" as="geometry" />
        </mxCell>
        <mxCell id="N3PisCW0dnbsBlv9NRA1-98" style="edgeStyle=orthogonalEdgeStyle;rounded=0;orthogonalLoop=1;jettySize=auto;html=1;exitX=0.5;exitY=0;exitDx=0;exitDy=0;entryX=0.5;entryY=1;entryDx=0;entryDy=0;" parent="1" source="N3PisCW0dnbsBlv9NRA1-83" target="N3PisCW0dnbsBlv9NRA1-85" edge="1">
          <mxGeometry relative="1" as="geometry" />
        </mxCell>
        <mxCell id="N3PisCW0dnbsBlv9NRA1-83" value="&lt;font style=&quot;font-size: 18px;&quot;&gt;all_input_ids&lt;br&gt;/mask/segments&lt;/font&gt;" style="rounded=1;whiteSpace=wrap;html=1;" parent="1" vertex="1">
          <mxGeometry x="858.25" y="540" width="142.5" height="40" as="geometry" />
        </mxCell>
        <mxCell id="N3PisCW0dnbsBlv9NRA1-85" value="TensorDataset" style="rounded=1;whiteSpace=wrap;html=1;" parent="1" vertex="1">
          <mxGeometry x="869.5" y="490" width="120" height="20" as="geometry" />
        </mxCell>
        <mxCell id="N3PisCW0dnbsBlv9NRA1-87" value="DataLoader" style="rounded=1;whiteSpace=wrap;html=1;" parent="1" vertex="1">
          <mxGeometry x="870" y="470" width="120" height="20" as="geometry" />
        </mxCell>
        <mxCell id="N3PisCW0dnbsBlv9NRA1-94" style="edgeStyle=orthogonalEdgeStyle;rounded=0;orthogonalLoop=1;jettySize=auto;html=1;exitX=0;exitY=0.5;exitDx=0;exitDy=0;entryX=1;entryY=0.5;entryDx=0;entryDy=0;" parent="1" source="N3PisCW0dnbsBlv9NRA1-89" target="N3PisCW0dnbsBlv9NRA1-93" edge="1">
          <mxGeometry relative="1" as="geometry" />
        </mxCell>
        <mxCell id="N3PisCW0dnbsBlv9NRA1-89" value="model.train" style="rounded=1;whiteSpace=wrap;html=1;" parent="1" vertex="1">
          <mxGeometry x="870" y="423.75" width="120" height="22.5" as="geometry" />
        </mxCell>
        <mxCell id="N3PisCW0dnbsBlv9NRA1-100" style="edgeStyle=orthogonalEdgeStyle;rounded=0;orthogonalLoop=1;jettySize=auto;html=1;exitX=0.5;exitY=0;exitDx=0;exitDy=0;" parent="1" source="N3PisCW0dnbsBlv9NRA1-92" edge="1">
          <mxGeometry relative="1" as="geometry">
            <mxPoint x="930" y="350" as="targetPoint" />
          </mxGeometry>
        </mxCell>
        <mxCell id="N3PisCW0dnbsBlv9NRA1-92" value="logiits/loss" style="rounded=1;whiteSpace=wrap;html=1;" parent="1" vertex="1">
          <mxGeometry x="869.5" y="370" width="120" height="30" as="geometry" />
        </mxCell>
        <mxCell id="N3PisCW0dnbsBlv9NRA1-106" value="" style="edgeStyle=orthogonalEdgeStyle;rounded=0;orthogonalLoop=1;jettySize=auto;html=1;" parent="1" source="N3PisCW0dnbsBlv9NRA1-93" target="N3PisCW0dnbsBlv9NRA1-95" edge="1">
          <mxGeometry relative="1" as="geometry" />
        </mxCell>
        <mxCell id="N3PisCW0dnbsBlv9NRA1-93" value="&lt;div style=&quot;color: rgb(255, 255, 255); background-color: rgb(0, 0, 0); font-family: Consolas, &amp;quot;Courier New&amp;quot;, monospace; font-size: 16px; line-height: 22px;&quot;&gt;model_to_save&lt;/div&gt;" style="rounded=0;whiteSpace=wrap;html=1;" parent="1" vertex="1">
          <mxGeometry x="697.5" y="418.75" width="125" height="32.5" as="geometry" />
        </mxCell>
        <mxCell id="N3PisCW0dnbsBlv9NRA1-95" value="&lt;div style=&quot;color: rgb(255, 255, 255); background-color: rgb(0, 0, 0); font-family: Consolas, &amp;quot;Courier New&amp;quot;, monospace; font-size: 16px; line-height: 22px;&quot;&gt;Load a trained model and vocabulary that you have fine-tuned&lt;/div&gt;" style="rounded=0;whiteSpace=wrap;html=1;" parent="1" vertex="1">
          <mxGeometry x="655" y="280" width="210" height="60" as="geometry" />
        </mxCell>
        <mxCell id="N3PisCW0dnbsBlv9NRA1-105" style="edgeStyle=orthogonalEdgeStyle;rounded=0;orthogonalLoop=1;jettySize=auto;html=1;exitX=0.5;exitY=0;exitDx=0;exitDy=0;entryX=0.5;entryY=1;entryDx=0;entryDy=0;" parent="1" source="N3PisCW0dnbsBlv9NRA1-103" target="N3PisCW0dnbsBlv9NRA1-104" edge="1">
          <mxGeometry relative="1" as="geometry" />
        </mxCell>
        <mxCell id="N3PisCW0dnbsBlv9NRA1-103" value="model.eval" style="rounded=1;whiteSpace=wrap;html=1;" parent="1" vertex="1">
          <mxGeometry x="870" y="320" width="120" height="30" as="geometry" />
        </mxCell>
        <mxCell id="N3PisCW0dnbsBlv9NRA1-104" value="model.predict" style="rounded=1;whiteSpace=wrap;html=1;" parent="1" vertex="1">
          <mxGeometry x="870" y="260" width="120" height="30" as="geometry" />
        </mxCell>
        <mxCell id="N3PisCW0dnbsBlv9NRA1-107" value="" style="shape=image;verticalLabelPosition=bottom;labelBackgroundColor=default;verticalAlign=top;aspect=fixed;imageAspect=0;image=data:image/png,iVBORw0KGgoAAAANSUhEUgAAAYYAAAHfCAYAAABUAX/aAAAAAXNSR0IArs4c6QAAAARnQU1BAACxjwv8YQUAAAAJcEhZcwAAEnQAABJ0Ad5mH3gAAOtASURBVHhe7J0HeBTH2fhnZsudekcCBBJCdGE6pggLG4yxwTaOSxzHie3EcXr70nv54hTH/5QvjuPYjrvjXnAVtsDCVGNM70hCAgES6v1uy8z/nb09cRKSUL89aX7PA7c7u3e623nnLTPvzCCBYLgTkzD+1/ahQCAQCIY7kQlpk2MSx7OohMzb7SKBYNhD7FeBYFgiYenr/BVj+geUlua2CgWCYY5kvwoEw46YmLRYRshTGGMVIxzt1ojpbanJty8LBMMWETEIhi+KdCcYhUj7jPOj+PjMVPtYIBi2CMMgGL4wZHUjtYKR2yT0D/aZQDBsEYZBMCyJShy3GmGcaZ8GgG+Pis9cYJ8IBMMSYRgEwxLCcNtoIQBC6F/tQ4FgWCIMg2DYwVNUIVpYaZ92AF4g0lcFwxlhGATDDn+K6gUwVMYYKoajIwTTq3yFAsHwA9uvAsGwgY8hEMzcSDa4EUDIkO9kmOXUVxZdbp0LBAKBYHjDl8SITsz4wD4VCIY9oitJICCsGDGcbp8JBMMeYRgEAoFA0AZhGATDHoZwGcZMzHgWCGyEYRAMezBFHvhftk8FgmGPMAwCASG1/CVy5MRE61wgGOYIwyAQEM0yDBL1Bi6oJxAMW4RhEAx7dKsridsHSRgGgQAQhkEw7GmuKCnjr5Rg0ZUkEADCMAgEFsxAjIoBaIEAEIZBIAAYw6VIwiJlVSAAhGEQCAQCQRuEYRAIfJQyhkTEIBAAYnVVwfAhLc0d40Ep9hlihpSIkW/PZ4bYX+F4Lxw+wc+tuQ12Giunrjy9FKGNhn0qEAxphGEQhDA5ckxycSqhUqoJ3j4IcwpDaLSE8UiXyzWemTTda+hJEAlI9hv6Bfh8XVGUckxwaYvHUwDNCIwGK0eYlBJEyygxS+vKS3xLegsEIYgwDALHExOTFkslZTJGbC4mbJJLdS1glI7XDCPOvgVFhYVpCfExdExSIhmTMkIdmZiAUhLj0Uj451ZV6x5VUdCI+BjrmJMQHY3Cw9z2WVvqG5tQXVOTfYZQaXmlfYRQY0sLOltZjSpr6tCp8gp0sqxcO1tVY1ZU18jNHq9i34ZUWa7GGB/xaPoOMBxHoWini7iPVFQcavTdIRA4E2EYBI4iPj4z1ZTQAsTYHEmWsmQszfHq2kh+LSEmWrtkQgaeNj5dmTg2FY1KSrAUfwq8ukHpO4HmFg86V1NrGY5T5efQ0ZJSdOTESW3P0UJU29hoWagwl6tY17TdBmX74HSPqUqbG88eO295BIIgIwyDILjwfv9GeQFI4lUuVbnJq+mZ8GpkjB5pzps6yTUxbQzKGp+GJsFrdGSE/abQpLq+AR0tPoUOFp6wDMauIwWewlOnFd00JbdL2ePx6Gspw7kN1aN3ivEMQTARhkEw6MQkp6UzQ1qpKuoaSs0ck1L3JRPGaVdeOlddMisLzZo8EcnS8EiYM0yKPj54BOV/shet37HLe/jESZcsS02YoXd1arytIzPXPzNbIBgshGEQDAp85VJJN24Pc7m/2OL1ZsVFRepXLpirLJ07Ay2ZNR3FR0fZdw5veDdU/s49aNPu/ez97Z8YDc0titulbvN4tceQbrxcV1fSmiklEAwUwjAIBpS4pIxsLMk/YqZ5TVx0tH7zlTmu6y5biGZMHG/fIegKHk28nr+FvpK3yWj2eDA02LcMhH9bV3F8j32LQNDvCMMgGBBiEsavURT5J7phzF9+6Wz97jXXKAsvmTZsuoj6G4+uo/Uf7UIPv/qWtvPQMRWe42bDoL+oqyrMt28RCPoNYRgE/QqPECRJ+X8mNefecuVS9NWbriWZY0bbVwX9wcGiEvSvF9eaaz/ciiUifWB69e/U1BQdsC8LBH1GGAZBv5CUNDXSxPqDJqWfu2bRfPNnd39WSh/VOslYMADwDKf/ffQZfeOuvRJm6G/V4frPUEmJtbeEQNAXhGEQ9JnohIy5LkV5ZWRSQvI/fvhN15wpE+wrgsFg0+796Nt//qe3pqGhyPDot4joQdBXhGEQ9Ak+liBJ5LnbVy1Xfv6Fz0qdzSQWDCx8pvZPHnjUePPD7QZj5pU1FUWb7UsCQY/p1zVkBMOLmKTMmwhGL/3qns8pP/j8p4miiH1ugoVLVdGq7AWkur6R7DlacJcSHrtLa649Zl8WCHqEMAyCXhEXl5FFZCn3Z1/4rHLPjavtUkGwuWLeTFxd34APFpZcr0ZE/tfbVCfmPQh6jMgdFPQKd7j7+SvmzZK/ctO1donAKfz6y3ei+dMmu8OUiOfsIoGgRwjDIOgxUYnjVuuGMfm+b39JRJwOhM8V+fO375FaPN4FUfGZC+xigaDbCMMg6DERrrAvXJuzkIyIi7VLBE6DpwrnzL6EKhK6yy4SCLqNMAyCnoPRtNmTJ4qMNoczf/oU4nK55tinAkG3EYZB0GOYSaMjwlz2mcCpxERE8C1LWzczEgi6izAMgh5DJFJyprLaPhM4leKz5YhSesQ+FQi6jTAMgh7j1fSNaz/Y7LVPBQ6E7/Pw7ubtXo9X22QXCQTdRhgGQY/xMO2vBadOK7lbP7ZLBE7jxffzUVllNcGG+ZBdJBB0G2EYBD3Gt6MYfuD7f/23xjeWETiL4jNl6OcPPmYajP5WbOwj6A3CMAh6RU3F6O81tbQc+cJv7tf4XsYCZ8AN9W0/+73GGNtcXznmj3axQNAjxAQlQS8poSgs8vXa2sar3/xwW9yKhXOkmBDfrD/U4ctwr/72z/Squvo92JRWNjfvFEtwC3qFMAyCXqM31zVGhCU/0+hpuuypt/NGp41Mlianj7GvCgaTp95+H939v/cbXk1fW+n2Xtd8pqDZviQQ9BhhGAR9orm5QmtuzHqGKNXed7d8dMXR4lJ9euY4KTYq0r5DMJDw8YSv3PtX7cm33tN13fxeTWXBD1BdnWFfFgh6hZi9Kug3rA17VPkhRtHMz61egb956xqxbMYAwccS7n/6JfO53PVYIuRDj+79amNViZizIOgXhGEQ9AsxMWmx/gwYvk+DKkl/YYyN+uw1y/CXblhFxDaf/QPf7/nhV982X93wIZYl6ajXMP6nvqIwl1+LHDkxsfHssUrrRoGgDwjDIOgXYhLG/5ph9G043IkQ24OQvBMxPd6luu4yTGPO4kumGTdfuVRdddkC5FYU35sE3aK5xYNe37gVPfvueu+eowUuRVHyvbr2GkG4GZ71DGjGC8AIT0YM/6S+uvAB+20CQa8RhkHQL8QlZWRThi+YZcsQqgUhOwr/XIRIUwhB8ursBejKhXOly+fMQNEik6lDeFfRpl370fvbdxrvbt1BGEUegxqFGGNuVTOh6V6wXR4Y5gkQPRTYpwJBrxGGQdBP5MjRCadqQHF1PerM2EeSJFcwxJZRSsOmjU9rXrlwfngOGIkZE8dbewkMR/gSFh8fPII2796PwBA0HS0pjVAkqc6gNBeigQy4ZZ7vzk5grKCuqmiCfSYQ9AlhGAT9RkzC+DdBorrY55M9UFc55rsIbTS4IYlLOrWAUrzc5ZKv9WrG7DCXqi2bNxstnpWlTstIR1PSx6DwMLf93qEF37z/aMkpdKCwBH24a68n/5O9sm4YWJWVjzya9ibckldfVbTTdzc3uqWPYIzu9J13BH+2Rd+0TwSCPiEMg6BPxCSnpTNDWgmSdBViaHmnEQNDv6mrKvy1fXYBfPCaKfA5DC0Lc7uWerxaJi9Pjo9rmpaZLs2amOmempGG+DyJUBvILjh1GoxAKTpUWIz2FhS17D9+glXW1oWDojddqnrc4/XmUcTWuXFYfkXFoUb7bRcQnZjxZ4zw9+3TtjBWCc05DxG2TjJJXnV1Qal9RSDoMcIwCHpEUtLUSC/yZmPGVoESB4OAMxlDxaCZ8uDyJ2AY/uW70w8zGMXf7fGgaFqaO7pRyoKjuaBAp8myMo9SegnvflIVWc8YPdIzMjFBGjtyhGtEfJw0KjEejUkegUbCK0+RHaxIgw8Mn6msQmcrq+FfFRxXozMVVeaZc5XeU+UV5smycremG4okkUZobHt0g+7EhO1FSNpTF64dQSUlPZqdHJOY8R1otn+1T30w5GGY3YUYvgphthyMRypD6ABcyMWUrauLopt7+ncEwxthGAQXJS4uI8skaDUYgWWYoWxfKcsH8VlvIuOtwPz5mISM49xY+M6YgTD5TF1Fwcu+874TnTQ+E1OUBYowCxTgaIZYikSksWA8RpkmbQ0lwBP3xMdEtSRERzEwVmRUUqKlGGVC1OiocDkuKpryc34tfVRytH9sw6PpqLS8sp4xZl0Hz15qam4BfU410zRweXWti1+rrK2XqurqwnTDVK03AkQiZeC5nzIpPQ0NqxQMJrziI0g29tSVl4Dx7B94OjBi9Dn49tYANBiBvPrKwiutiwCvL0rwSgZR3MXqSyDoCGEYBBfA8+GJbiznHigICO8m4gr3CCjht0CTrq8PN/I780DBo/0HiNU3QHk2gq69uqaiaLN9aVDgXVtUV1KIhFKZyVLAYCTyclCeadYNHMz4rLvWmXegPFPBeoRZxwg1wO8ssy5wGOJdNK3dO3C9hL+C0q+Ezy6lDJcpYAQGu+smJmH8Uvieb/KuO3jWP6mvKup4wTweeTXLSxEFI4GhLhGaDO8rhd+VCz9mPdbNXLECq6A9wjAIgNaBYKsrAsRigZVmaisPieLc7io+8OhXgkf/OCLk6rqK43vsYscTnTD+cf5aX1UYMpvnxyRNmIkofbcnz5obTmTKy8GYQF3j5RgxPia0E5yAdYSwvJqKMdt9yQGC4YwwDMOUNgoCogLwJnmnvKUgwAvObagevbNXCgI81MhGlB5K3RVW9xRjh/kxRA5TQmkuAP/uvf++5zPDwCEAOfA5BBAO5UEksg5JRl5/doEJQgdhGIYLnXYp4DxQCuuGc5cCjxbgmVipoIyhJ0IpauhPAjPDQDOs5IPYUAwGnuWBwXzbhVybu8qaEgwdhGEYwnQ0CAnHm+F4HaEst6am6IB14zDmfLTgn0nMjFCLGgaKyIS0yRKSV8MzWQbPZykv4/ID1nO9RNFbQn6GLsIwDCHOe3zn0xah+Ah4wbmIoHVdDRoPVwKjBT/DOWroFH/EydgykCs+iXEyRBZlDKFchvB6ppJcsYDf0EEYhpAmR46KPz2XYLbS10eM5kIjbRR9xN3jwmjBj4gaLkZ8fGaqSUDuGFoGUcRKUCQ8y2unle2E0Pq6qtTNYhA7dBGGIcTouEGy7XysgBC2TmSVdJ+OogU/ImroCR04KAx5QLvkgZyuQwTnCSMbWgjD4HS6COH5oDFV5DwRwveczqMFPyJq6C0dDmIzVoAwzqOIvn2xpT8EwUcYBgciBv0Gnq6iBT8iaugfLHnGlqHgKbFLwaGRwbHhEx/XQ1nu+cUCBU5BGAYHwD0spCrLGaW84SwHhZUOxSJNcACx9o+ggdEC+5HvFf/J94oQIcwY7JnbQx6IgGMaSDYjmMs67wrNAgtcCZrImkypIzO3uaLk/MxzQVAQhiFIRMVnLuB9suA5LcOYLQjsk8WymSsGjQeXUJz5PBSwxswkuhxRfJV/zIwxtgdjnIsoXS8WAAwOwjAMEh01ACgWWRwOQRgGZ9CRwwRtZTNj+G2KjTyxAODgIAzDQNFhyCzyvp2KMAzOo6MuVjAUEEmzPEzIOqTpeWIBwIFBGIZ+hA+yESaDALNVYACyQZDd1iAb7x4iUm4oLSo33BCGwfl0OIjN8HZQYut963sVbLdvFfQRYRj6AN+0RkMaCCpbBp4MX4guXaTlhSbCMIQYdkSOCFkGztdqHpHDa69WBBZciDAMPYT3gWJCfXsVtPaB4nyG2NtiIk/oIgxDaBOelJaiIIgm+NLxiC0H54zvw9GtPUQEFyIMw0VoFTg+Wce3lSUXOJ53bWUQiUHjoYEwDEOL9g4cvBp8LpBYQLJ7CMPQHh6iNsoL4MlcxRhbiTGe6c+zpoysM4meJ/Kshx7CMAxdOuryFUvOd40wDABfHgGZlsBcBQKztHXQWMzMHDYIwzB8uDBJBEcisd5YG4alYbA8COpd7osKbA+CoWJ4zeXdQypx5YlB4+GFMAzDlI4GsRnjbd+aXzRcJ5sOG8MQnZAxF14sYwA/Ort10BgMAZIgKhCDxsMaYRgEnA7HFK1MQ5RLEVs3XDINh6xh4BUsUWU5wfQqCBG5QUgBj+AA/OC3rEHjSGO7yFIQ+BGGQdARlkOJra1wl3GH0jeIzbudhvbcJMcaBj7rkRAplWKWgiSciijmA0aj4SufX/gMs1hFlhJlWbHKGKMuytBIzLCk6VoSFFFCcC2RpBpCSK2h602mSc/BG1stPsbIA597Gl5LkclKTUxLJQOVicGo0KO7MiNLcoKiyAo/pYzJiKLRJjUi+blE5EZE0GmCsdXHrOuGbphGFSiEVnkQMjNUyJFjkotTCZVSTYZSQRly53E01DXPPESuMHUS4bUNwH9RJmWJzKQuk1GVUhYGGsd3DSNTVdQKfswBnVMFn9Ngn6KWFq9vGQ/MKkE3lYNhKYXXMiQbxXXl6aVOHM8InmFIS3NHN0pZVtYPQuPhIae63e5MRmkqNMZkaLBWw4WHTOPiYryJyQl05MhEpKgqc7kUqxFHRkeiqKhwfmihqgpKSIqzjsvOVqIUuL+8rBJRk1plnLraetTc5AEjwqimGc2elhZ89kwFq66sJdXVda0fBoakBexNOSiAM5pHPwYPqpQifBS+z4G6ilEHRIpqMICGnHQmCyFzJrTJSYyhFN54oTJTDc2SGdW+EcUnxDUnjYinI0cl4kCZCY9wo5jYaOseDpEISk6x9EArnckMx+vVG7nMnCuvYRXnqkl1VU2gzHhkRaoATVHqbdGOgsIoA2VwFMzNHiEzwSFy5MREyavPRARngbxMAwU+hsg4Dep3BOiZePs20COR3vjEGDoiOYGAPLh4GZcLLh+csHA3io07LzcJibGopdGDYuOjkWGa6Fx5lX0FodqaetTSfL4z4uxp8EWBqooa7VxFtVlZUYPraurdViGgyHI9kckZZrIzXk0rwqBnGEEHqCztDNayOYNiGHjlEMOciynKwgTPVd3KHM2jZUBFkejoKC1z0lg0anSyyisiMTkeQeWgxMQ4NCIlASrAp+gHi3NlVagcKrm6sgYURBWqOFfFKxQVFZZ6SopKSVNTswrGQVdUpdDTom3HmO0FJbUHGcYe4TH2H4ENGrz3uarLNdfr9WaCzEhcZjImjGWpY5JdTpCZKpAVLjdcOVTCcWV5tWVcSorPeIuOl4DMtCjcq3S5XAWa17sTDNhOCFUOmC5lj1gvq7/wOQ3gyYOzSWe4FHU2OHUzufKXJckcO26UZ/LUTPfoMclSPCh1Livx8C8xKRaNHDXC/ozBhcsMlx0uM+CYWvJTdrbCPLj/uPdUyRlF1wwIbKU6jMknXk3fhwnoGu5khGtHBrobfEAMQ0xyWjozpJXgPV0FodjlEIvHyDKvnNHerOkT3ZkTx5KMCWlo4pRxKDbAewsFeEUeOlCASk6cRlCBZsHRYl6JbhBIoqhyBaMszzCN98S68j3Dv/qshKVrwEtb1tqgM0Z7p02f4JowMU0KVZmphYjjMMhM4fGTqOBoCTT8Y9rpk2UqeJoSlxlq0HyTme9IJskTyzh0H3//v0tVr9N1fTZ3GiIiwrWp0zPZpCkZrsnTxqNMkBlwIux3hBZFIC/FJ0rRgb3HUOGxEm3fnqOIO6ZW15Wq7PN69DcGao2ofjEMPP3Tw1qWghG4SlVdqzRNGwehVstlV8xX58yfLoVy5XQH06CosKAEHTtyAn20ebexddNus6GhEeRVOaxp+lqxrnwH8K5Ee8tSVVU/pWt6RkJCbMuinDnqpYtmDguZKYFGf5TLzJY95ub8j436+kZwdJUiaD+vIrGMwwX4twyVJeUaQtAq7jyMTk32Xn7lQtesedPQ1KzMQY8WBxvuZOwHA7Fv9xH0wfvbvCeLz7h4VxSldB13LvrLIe21YbC6h7zmrYpbvpUa5nxJltDM2VNpzrIFrvkLL0HpGan2ncMT7iHu2LYXffjBDs/BfcdUeNQawXiTZtCnGiL1l4djg7fmjzDvrYoifdY06WKCCZk5d6q+6LI57uycucNeZriHuCn/Y0tmDu8vUKCxU0kmW3TdfFbFrueH49waK5Ik9Ca323WHV9MuURSFgbygxUvmSPMXzQhaN5BT4N1RO7bvRVs+/MTc+uEnrKXZI4e5XQebPZ7nZUqe6G0E2mPDEJU4bjVYqC8yylZFxUbRVdddrixaMpvMmDMFgYts3yUIhA9E7dyxH+XnbTc3rNtqtrR4ebbUc5pGHx4OSwXHJIxfKivSPaDnbgoLC2PXXJcjZ18+j8yenyVkphP8MrMx7yO6ft1Ww+PxUITIS2AkHhz6MpMjRyWcvtWlki8ahnlZbFyM8albrlIXZM9EWZdMRmAs7fsEgfAo9NDBArR140709toN3rKzlS5ZlbdoXvOhnjqj3TMMfHZgk3y74lJ+xAw6btlVi9g1ay6X5y+YKSqph4DXg7bk70RrX3pf+2jbHllR5L1ezfh9XcXo14dU1gqXmWbpVlVRf2gYxqTLLp9Pr71xubwoe46QmR7CZWb7pt3ojVfzjC0bdxIQmoNer/f39ZVjXh5yMtMkfUWR1R8wRJOXr1yMVt+wTJq/cIZ9g6An7N11CL3zRr75LvwzdLMBjOwfkWE82p0kmYsYhhw5JrH0TogQ/gQeX9Qtt69Wbv3c6iHfjzdYnDp5Fr34zNv0tRdzKUPojO41vl1XVQgGIpTh2SGnbpeJfD94K9Gf+vRK6bbPX0d4tpCg7/Cug6cfe42+9tI6iig669GMnzZUFTxjXw5RcuTohFN3q6pyr6qqkbfdeZ36qU9fJfRMP9FQ34RefSEXPf2f17XG5iaN6vQ3dZHGA11FEJ0aBh7+K6ryH4zR2Du+dKN8+11rrFxeQf/DK+7JR16h/31iLcOEfKIb5pdDcUZlXFJGtiQr/waZmXjHl24SMjOAcJl56j+vomcff92E0yOaRu8OxS4mrmdUt/o4IXj0F79yi3LrHdeK7sUBgkeerz2fix5+4Dnd6zUqdE3/emeO6IWGgYdzLcqfEGXfuuGWq+g937iVCMs9OPAI4h9/fsLYuOEjQin7WX3VmPtDo6sAooSE0l9hCf10zU0r2D3f+IwkZGZw4BHEX//0H2PDe1sJo+j3dVWpvwkVmYlNPv0nzNB3rr9pBfrG/3yeREVH2NcEAwl3Kh7/90vov0+upQyjRxWqfq99YkMbw8DXFwpT3Rvdiprxm/u+Ky9ZOs++IhhM1r78PvrzvQ8biOEtSMernZyNwjONmEzXy4o0+7d/+q6cs+xS+4pgMHnvnU3o3l88oOu6uYuY0nInywzXM+Fy2NqYmMhLfnf/99w8CUEw+Ozfewz98gf/z1NeUXWyRfPkBKa5thoGnhYmhSmbUsemjP7nf36jCI8vuBQXlaKvf+FXel1dw16k4cud2NCtBq6EbUlOThzz0JO/U8Q4QnA5e+Yc+vpdv9TOnave51SZ4XqGuOWNEyaNG/2vx3/rEl2NwYVnv33tC7/Ujh0+UenRWpY1VpVY6zpZ6SHc65MjlA8mTR435vHn7hNGwQHwnP6nXr5fSU5OmIlU+jYPve1LDiFHjlDD35s0JWPMYy/8SRgFB8Bz+h974T51wqT0SxwpM2lpbsktvzdx8rhUYRScAa+DBx/7rTp5akay2+Vex20BL7cMA5PNB+JiY9P+9u9fSqKynAM30A889htZkeWF8Slnf2oXO4KElLK/RkSGTf7zP36shNoSFUMZXhf3P/ATFRr5At6Hbxc7giQz7G/h4e5M/v2EnnEOvC647o+NjR2JZPMRXibxbe4YRY/887HfSKPHpFg3CpxDVFQEGps+StqQuyVblaP+4fXWBX3GNO9CAo/i+T//46cyeKd2qcAphIeHoQmT06XcNzdeSiKiH9ab64LepcRlBlP07K//8B152vSJdqnAKbhcKpoyNUNa+2pelisi/lniUlw/nD0/S5+SlWnfInAaV6xYhBKTExmTpa/YRUFFldTvZk5I18XEI+eyMHs2Sh07UlOY/G27KKjw7zEuY4zBZVngTHgSwLRLJmqKJH+byIq8+IorF1l7Hwicy5UrF6uuMHWJfRpUwlR16RVXLbLWrBc4l5wrLnWrijLfPg0qbrdrzqIlc8QEBYezdNmlqqJKlxHNq40bkya6kJzO6LEpiCAyzT4NKrppjhs1Otk+EzgVS2YkMt4+DSoMsSlp40bbZwKnwjc6owYbwdddqa6qFPvLOB2+kQfG2BH7O0iE1NTV1NlnAqfCZYYh1LrlZDAhCBWUnXHEVxF0Ad99DkukmiDKDu7fc/T8PoYCR7J312G9paXlY/s0qDBK9xw6UMCXYhA4GC4znhbvAfs0qDS3aHu2b92j2acCh7Lr4wO6aRgfE03T//HWq+sZnyYtcCZ8stuObXsVMOX/sYuCitej/+u9dzZhvpudwJnwpTJ2frRPwgg9aRcFF4L+yfcl4ZtZCZwJX5Jnc/5ORTfo30hdVepbEDqc+ssfHhVRgwPha6z/8bcP6apL+dApC+vVVRXm86Wff/+rB8Xm9g7l3l88oBEi7ed1ZRcFlfqKwgK3y/XaL374Fz1wo3yBM+B65uffv19XFWUD1zMSQiVUccdtLDpW8iV3mItcMmuyfavACfzlD4/wzVqaqNdc1tJSXW8XBx3ZHfP+6ZPlX8UEy7PnOmJMXGDzn4deRG+//kGTwTxLvU11jhlAlEn4uqYW7xeKCk5FXHHlIkxIp4s7CwaZP/32Ibp98+76ZsOzjM97AcOAkLe5ukwJiz2+c/u+T/HaEg09+HALzivr9Zfe1yg1VtZUFTqir9iPt7mmWnXHHti988AtzU0efOnimfYVQTD5232P06cffc2SmdpzxfvsYkfAJ2e65Oh1p0+Xf+bY4SLlihWLiTAOwYXrmV//+K/snTfyNWYa1zRUFB/i5ZZh4EBDP+AKjz+06+P9N50qPoPmXnoJ5rPhBIMP7x/+yXfvMz94f5uOmHllTUXRZvuSo/C21BxRw+N2HNp37KZjR0/geQsvIW63mN4QDPgm8T/73v3Gu2/kO1pmPJ6ac0SNWHv2VMXtH+Z/JC3IniXx2f2CwYfrmf/52u/0HVv21jHNWFRTVbTTvnTeMHAgcjjkcsd/WFJ8ZsXaV95zj5+YJo0ZO9K+KhgM3np9A/rOV/7XOFNafgwqa0VgZTkRcCgKFHfsujOl56584+W8iEwhM4MOX3L7m1/8tV584vRJwzBW1VUWOXrDHq2lrtKtxv23trZh9kv/fXtsQmIcmTBxHBLRw+DBZeYbd/9KLz9buctgnhW1lcXH7EsWHdaEb4198z7TNL+8cPFs+j8/u1sWjX1g4dkaf/zNQ/rh/ccRw+iPNeWjfhtS+/mmpbljPcq9fOOVBYtmmd/7+ZcUITMDC5eZP9/7iLFv9yGCMP5brVv/WU82fHcC0fHjvyGr0h/HjB0lfffHd7n5Uh6CgWPXjgPo/t8/4i0qOEmoyfjGTr/rSM90aaLj4jKy1Aj3XzRNW7Z6zTJ0y+2ryMTJ4+yrgv6Ab5bx3yfXmh+8txXLivK8ZjT/rK68pNi+HHJEJ43PdLmUvxuasXLVmivYp29fLQmZ6V8OHyhATz32mk9mZOlNr258n2f92JdDDr7AnkqU3yDK7p46faJx55duVLNz5iFJthZ/FvQD2zbvQv/514vavt1HVEmSnzaR55dd6ZluxW58X1aXS/2lV9MunzN/unHzbVfLOVcsEBXXS3i63vr3tqLnn3pTLzhWLPHGren016G4z3NncJlxh7l+6vF4r8yaMUm/9XOrlZzll4r9fHsJ3693w7pt6Pmn3zTAMMiuMDXX6zF+MpRkhq/07FLc/8OoeWdSchK67Y7VypXXLLGWnxf0HD7utH7dVvTiM295T544IyFMnjMp/Ut3ZKZHnXoxSRNmShL6FaJoFV/De83NK5TVa65AGRPG2ncIumLvrkPonTc20rfXbmCmYeoYk6d107gvlL29i8FlRpbwtyilt7vcLnztDVfIq66/AonVfLsHl5ncNz9E77yZb2gQGmCMh7zMRI6cmKgy9DVFkr+m6dqIhdmz2dXXLSW8m0nsC9013Onk0cE7b+SzbR/uolgmNYZu/MtLtQcDt+68GL0a7eEVR7zmre4I15e9Ld6smJgofcnl85R5C2eg+QsvERbehm+1uGPrXv6Pbf5wpwmVJoNy3NTSoj3cEKm/HGr9wX2Bj1tpzHur6lK/rHm1uVxmFl0225KZhdmzhMzYdCQz8Mx2apr3nypyv+zkvZwHAqu3Itz1ZUMzbmCIqtOyJtJFOXOk+QtnoukzxL4OHN61uGPbXrR10yd07+7DGDNsKIryVovmfbi+IjWvN2OVvTIMgcQkp6UjU17ucqnXmSZdZhhGeHrGaDM7Z540D4wEX+Pbyd0HPI+3v7rE+LIiuz4+gLZv3g2VtMuARi7Db69ljOZ6NPNtk+h5PbHaQxW+768p0eVu1X0dZXS5pulRoSQz/Qn38Hbu2I8+2rIbbdu02zh18qysKkoDtO73vbr+pmSSvOrqglL79mFMjhyXdGqBJCmrwiJc19fXNU2Jioows5fOBZkBh3TBDNRf28vybjsnyx9fimbHtn3oYzAGWzbuNGtq6qWIyLAizWu8qnu96+qi6Oa+Op19NgxtyZGj4k/PJZitjIwKu7G52TOVUkbSx6eaEyeNkyZPG4/GTxhrdSMEcztInr+74b0t6N23PkS3fu5adPW1OfaV7sM/4/DBAlRwvAQdOViIjh85YZ45fU6SCDFcYa7dTY3Nr2Ii5Q6lPuCBIio+cwEmdHl0dNQNTY1NM50oM/0Bb9CHwLsrOn4SZKcQFRwtNk+WnAGRwTQ8Inx3Q0Pj64ySvIbqAkenmzqBmJi0WKZIK0FmbjR0fVlLizcuOjrCnDwtU8qYkIYmTk5H4zPHooyJY3us5J985BX0/rub0eUrFqJr1yzrN4PTU7iBKik6bWWfcZkphH8H9x016+ubpDC3qx4iybya2sbXBsLh7GfD0BZeeVQh2YSRyeGRYUugAcxsbGi2BiTi4qLNrBmToBKh8qACk5MTUBJUQGJinLUHaX/DvfkN7221KpyHXX74GMkvf/8t+6wt/D28MfPli/kCU4UFp6CCStDB/cdoU2MLn7XJGzQf2f+ksaFxK6LsgCqFbR9u4X5/wrucvMibjSnKiooKW4gIngXPOo0bi97IzP33PoxSx6SgaTMmo4lT0nvtCXLPnofsh8AZaGpoRl/+1m32lbYEysyZM+cuaNBcZsC7KwFZAUPQsg0xukfITN/h2XBcZkBhLgyLdC/wevSspqbmeH5tXOYYNi5jDOYOxsjRI9AIkBv+j3dfdjRm8Y0v/qqNjpgxeyq68upstGJVdr87J1yuyssq0bnyKusfPz4Beub4sWJ28sRpZJoUg2zXhrndhzSvd2tjs+cjhtiegR5jGlDD0CFpae7oRikLYzxTdStzXaproa7p6R6Pt/WJu90umpgUh0eMTMS88fMKjE+MRbFxvltGjRphvXK4QoiNP19ZI0YktnYN1Tc2oXde22AZg8P7C5BhXrhS9Jz509GCxTNRVVUdNOYaVAn/zpw6x/ixpuutzycszFXjcquFTc3ej0DotkMDP1BXMepASM01CFVAZmKa1ckImTMV1TUXGv8izauN747MWHUPCp0D4Rzf7hJNnJSOpl4yAWWCZzl23GjrPr/B4F5aRXk1Oll8Gh09VGR5+IXgDJSePO+QLVwyG/FlY7ojM4qqFrd4vFt1zbsTvsGeunDtyHAaWwom3DFFsjwTYTYzPiF+KUN0quY1EiEqbR3QgjpiySOTMJcBrleSUxLRR2AUDuw9at9xHkww338dXb06B11+5ULkDms7y7+lyWPtZ+CnHBS9aescr1dDlSBXbYzA2QoGkU6rvIRHhNWBjjmHGDvaWN/0AejFfaZL2dN49lilfcugMfiGoQv4eAXVlRSCWQpYxZSY2OgMRVUmQX2MNgwj2TDMSDAouL6uMcZ+S58Bw9IUHhZWKSnSOUZZKVRgQX1dwzGKaBlmuExmpEz08TqXi8lMc5MnAeo0zL69XxAyE/rwcS4D0xSMcGpkTHhabHTMFCyRTNMwRtfVNoyGaCPKvrXXREaFt8iSYlJmmhKRdNWtVquqeoqZtKCmpv44GKhCCvKiIFTqNHlxlGHoDZZXAEGDfYoIlVIh+uIboPPQ/CaMUaR1oROgYb+OCCpAFJcgCRVQahQ3RqJi4dUNDXhuvITlw/ZphzCGeL/BKTg6gzC+ChpFmu9KRzBDxe440fUzBIBINLIRpRMipyMTZSLC0hBD6XAlA/zPrqdgM1bBEH4DZKURycbfeJFJXI3B8O4HgpA3DO3hsygVKp+AmivViXuJzDzrwSuYal9uj8kY2wJCIEFFJ8PTAKHAsnWFoTIIQYsRw3wMoQCulSBKi5lEiusrUqFMdCE5HW4UCJKWgnPwj9Z6bQfU/8uaQr/v0qUjrTJDvS/Be7LtW9rCWCU4Ej9AxMwP5RnqwwUra1InoPRJOrTpNGjTXPFnQrtOhzZtb3bPoC3jAqjbYoZxI2bMDQ7CNXCh43RFhj6UGLnNINRa8Rjrxri6upIhtT/ykDMM0Qnj/wqN+jvWCWZ31VWMeSY6ofQFKPuUVRYAQ8iqTHgIseA18kaeD2cfE8koZYzEQxSRDve0ChMPO/n9HOt+23DA+0vA2ygGKSrAJikW3QjBwVICVFoK9XYVnC61Gj4YeKhDD9Q/r8P2/LGusvAnF8hMuPl8dKP0NDgMN1llbTkCn5fCZQaEABwGnMcQ22hgM1+kIg8+3BF0ISnToCQdY2orf5/iD6zzwPYKr4XQvotlQospNWWGJL4JzTKoy+U+XcD2wHvHgjBYg9eBwLWH66vGfD0mofTn8Hd+5StEv6mrKvy1dTxEGFKGoTVawMiXogINt65qzBTu3cckjP9fKP+5VW7DMHqsvqLwi9EJGXPhlAtFDjT6bFAIvPsJPEgwFBivR5qe5/MIcuTopNJ0bIIA+j0Q7n1ww9HeAwFBBO+DG40CEKYSuFbMKCk2Jb1YKJD+gde3RBWoN7YMTnlkwA051BPLh+e+0WRmbmNVyZGYpIw7oX4e972LwwxQFN+sryp6qCuZiU7M+DM4A9+3yv0wdDnfFY3P6IYIcjkULLtAZhhahwwjf6h5kcHAmkyrGemYtzcK7Qyj8VBH8ArtjXf7tNZb9yL8Dp0Hu94CDXxMQsYL8Ddu4e9phaEfQN3f70uVlU9wI+IrRrVDLWoYUoahjefnx4oaip7ghzGJ4++GavwXFFrdChTjLzRUFAQoDI5vLgbPq4eTZZjhBVz4uBcB77MUjkpceR32MXfSZwlKA4TYEuZE6z6GPGCUCvB5LwYiDi7QEM5qWrFQKB1jKQndAEOA+cSTpfBvMtRLI9TJZnh268FY53U0b8RSBibvXoRHD/fDs74ZHIJcfn4xmeGrf2LC/mrJDNRbXaQRd+H4ky0zmC6F79LqXHRLZoY5PD3ZMDzphsTSCcKZjGFfhG4pffD6A5QvVJ5f6RfzMUEGHr9s4uKaaLOgszHBDp0Hu3cA6nVjZxMIo+InfIsQ+nd+bMkYISATBS/zc3Ayfw3fwRct+BliUQM896HBBZ6fnwAPkJ/GxI9bDp78ayB0RRiTOy46AY2nSjbKC+BoKQjnMowZP+bs5I0eFPxGF3Jt7k6jtwbKVRU8Fog4QPhbGwE0CG44bK/zfCPgDYB7QAwV+huBLLuLh4uCsdMN+XMHQ8CgUeOZ8Cy4Ud0Mz2c9YyS/oXo01MPFx3vAAzwOzzkSjMfV/jrvtswkjF8D3uTTcN/O+sqiy617uiJQZjDL8TkXjDsjPZaZ0McXZcNBJvf4oQ59A7w+5Q/Rdv86S742piyHOrQMAfybDJ/NI3QrIsCymdudsSG+sjQl6N/w9zMIYTf7Nz5qHy344W12KEUNQ8YwdOj5+QnwADlWpctobmBZd2mdgMV8ygqK5oIQG6AAtoMC2Ajn+eBVbu9NVlNg2MwozfQ1oo7CZlYJxwWW0eBdVLyrChqRlVFVlV7QHUXpRAby2cYkZnxHx+bzgd14PZEZa3Y2pjN595Nd1H38hgKjq1p/FwCOwXZogOvhsNe/ywlYS5xgxiNkcHrscTm7i/X8uNz57lX44VxuS6CwoK/dq1xmPKxlKWYEDIHPebAcq3bdifbtPSImKfMmMCZtJpN1GC34GUJRw5AwDJ16fn7aeYD9SWdeLRdMKNvYE6/2YvDfeeFAm2U0wIgEDLQhVsqNBkQ3voiDsEJosMVINoodlUnT3rNGrZlAA+5ZB1NmLjSAEFFYHrPPAFKGc/tLZvoD/qwkUwGHxZI5LmfjrW4ey2nh576u2UGRO5CZ6GYZDMF554HBswPZ2czb20AuQ9NZtOCHG6ShEjUMCcPQpefnp50HOFD4hEdaeWE/OM6H77AeYSl/wASX96UbcrrtuUHjtbqrrLD9vOfGdR4P13nE4fPc/BkaXmQWDOzA+Pm+eFAsy6BxZ3PF7O+LZ5iud+Ow/MHoYnGazLR3Lnwy41N2/elcdIT19/1dnD5PHyJV8Py50g/o4oRjiFQxj1BB+WNfUsVAR6oddcsB3IjCy3rf2lKDY0S7jBb8DJGoYYgYhowfg+Jr9fygMd0Bwl1sdz/4IKx4MBp5eyxvq6PMGcby4Hw9RWZ+b0PdnpEjRyYUZ1oD4xfp6wWpsMN9SwmUYEIg5KfFVJWLezqBx8reYeZS+Nyr4Hd3kfE1uDhZZnyKum0/uSUzdvdIj50LUK48KQJjkokh2oTf1ZoUAZ+b6feAuTHidQ5HVjcleP4l/JVQVjB4Y1sdDeRbUd1O+C7r4DVo3W68OxK+Q2u0ABHS9fwV5GitVcDBrLaussia8BbKDAnD0J7oxIwPeAN3ouVuTZdjaBkI2XKoASvXHi7lQ4NdF6yJU4HZIa3Kg3uPlvEIyA7pRHkgQor5IKEpoxQ+qQx+11UgXrxx23NEwBBitN6p+f5OlhnuXMhMgmeJc+BZruzIuQCDD482II2aG3yr/njEeOFELr/Rh2vgBKCC3hj9/sLvPMBvgojJLzN8LgHOdfJAPUSdVkZjfVXhXVbBEEIYhiDTOjvX6npiYChwYmA6nY7MXCco0tbuBsSs7BJQPL7uBoImwnkaNOKAFcWYBr/hDCgwPhlsG/ymHU5fasTpMsMHeJlE063xJUJnYormMYQnQgNOhFZ8flY3Y1VwfpwxfASulVAwBLyb0EkTLzuSeSg+AjKTC995Y6jMARGGIcQIJcPQno68JyhunYBDFTkvmOux+DfZYdQ3hsK9Vx7xWH2+FB9jhJbDs1d5VxX8hsz2A5RWdOQfnOxiItJgE2yZ6dVELu7tI1TIGG2B+zIwQ9PgOedAeUqgcxHs5Tv8UTKXGZDnlfz7wW8L+VnjwjCEGKFsGNpjp0lyA9HhxKmB9q4CuzHg9IL+bmKivJqaImvNmK4I9HgJRB3wGfZEps6XLoDPH7SlRgZaZgK76i6YyMUNaEdzWLjh7OZErkACPXKG0Up4joO6fIdfZuDHLAM5XW51fTnIUPUXwjCEGEPJMLTl/A55rRka/Txx6mIZMgOTDtjBUiOd9ZGDghmIpUb6LjOdTeTiv8Hy/NsN7vNoyTKAAz7rvasoFL5Hn5fv8MsM/B7LEEBRm0llg5dgMbgIwxBiDF3D0I7zqXzLoFHyBumbOAVKnP9+OLxoBkdXOfVweVDTATvFzqrxZ1SB1I6H72hl1bRXumAcezV7tjsy034iF/yN8R2lA3PvvL8ncvUnF4tCL7Z8h19m4Pctg2cOEUHbSWUDmZLtJIRhCDGGjWFoR1slj3yGwqcszy8hIakHYqiXGxDuQbYu8RHKs3D579aQDp46RBygpLvVTcP76AOWGjEJfhDeswMU+MuOmMg1aATOLUFXQbu5IAqlsrRT0swsfh1+/QWTynzzLIbfPtXCMIQYw9UwtMcK8SVlGcXoZozoZaAgR9qXoD2zkwzhDSABLw71dXv8A7uEoGmgwGeAYp/KFT48hBFgRGPgGbRdd58xL1yvAS/6DJ/DQal5GGzCx4xphUN+EycrCnUtxsj8LMjN5fB8xlrPh0GshtBJKyKQ2VN15WM+DGoU6QCEYQgxhrth4H3KjJp80LFNVwEcf4wxqgcvNx5eF8KtrQPJoDDXU2zkhXRfcC8ncoGHXA1Rxp3wTCAKQFsYZSPPRwo40/psYGhFCm25cOl536QyRni3JKqACCEJrvElS9qsX+W05TsGE2EYQozhZhh821dKK6FBXzC4yAf/sG7mdtS/zrNHFATva5d6Csc9WolyMIlOGp85EBO5upKZdkuN8O6qDscWfBlVwVhqpOdYC0lKaHmgzPjHGSA+WNdZFNnh+MIgLt/hJIRhCDGGumHgyhEC+/P7EgTkrYOyWtfbdMTWWdkBm5gEphl2tnZ9f9JmIlc3d+QCIe7zRK7ey8z5jCoG0QUoyoClRgKMVWs20nlj1ZelRnpK20llvrqF1z5nJnWYxTZMBqKFYQgxhpphCJwgBKfnPXvsW2ZioPLC/coEDlu3PYTj1kikNwao+0uLXziRayAnwg2UzHAP+4KlRuxBcf6b7WcKj6DrpUZ6qrQ7khmfkR/YpUk6nfcy6GuDDTzCMIQYoW4YOmpc0LDAo/RNUApW42qTD+/rRrhgsp2qRhhcEVKCrfX4u5Uh1MuJXP1JsGSmdamRHqxsaj0zeF5IQgX+pUbCm1Fsq8wwa5kJiLKs/a5zgzmpjMty+0Uk+feCY8d2V3YXYRhCjFAzDG3CcWwNAGZZitOR4bhvlVaM1fGY0svAA56PGZoE3zsZxCkgu4dpiIG3i9gx2/Mf8IlcfcGpMsMjLOyFyMpOofVHWCAfE0HJpsHzlOxbAb6XNT4DMnOQYbYVU7Y92EuNtKdNJIOt7tDUwO7KUJoVLQxDiOF0w9DRfIMLB/CClxfe3cFWUFABE7nIKcyYDN9/FNw3BZ7/bHiV4X0hMT8ihGVmCzznYwyRcqgQcMx9+3DwqKOrMRmo20FZauRidDj2ESLrKAnDEGI4rpF3NEM5iCl/Vng/0Dty+X9z4HaW9m+GY2fMqA7AwTIDypLxZIAOJpVd/Pl1lMXFjTx8TqalhC0GbqmRnmIZCiYvB1njy2uAwejf5Tv6E2EYQozgN/Iu1jQahM1Guuq3Bo+TKwR7gLeLHbn6eSJXoMcLf2cl/L1BWIOp+zhFZsBYc8dhmSUzgN95gMP+lxl73kfg5k1QJ3wcCIyIlRDQ56VG+op/XAv+5jJwVHjWU4+W7xhIhGEIMYLRyC+cIGQNGoJHh/KgUfXvZiOdTOSCK6D0L8x04Q0avlNBYKaLipSCYM52DhxXwRithKI2q7b2ZRP33hAMmbGUHuWGgIHSOz+pjCs9LjP14UZ+MLve/BlVHSYSBMpZYCIBl6+ApUb6d+e3LnZ3s5/ZYM7iF4YhxBiMRt7VBCGu2Poa8l7QBeDz/OE4IDfe7gKAA94n65gduXpDx5lY57NXwEPNq68oLOD3DgSDITMddZM4xfvtDRfuIWE5KJZzAq9cTgMiUz7xD4wG76IKjEz7tFd0jhyXdGoBpXh5YGQ+WONawjCEGAPRyLuaINSbQbILJ3J1MmjI+/m54ud9/Q7dkWsg6DwPf2CyVwZCZvhvYIa0sjOZ6WxG+lChzVgWd2ysMY5+HssKJGBcBhw23wKRAziWJwxDiNEfjfxiiuliW246dSJXqHIxJdvX7JX+kJmOdrfzywxDeL1J9DynZtgEg/bZb6DMWyNjqOc+LzXSNpOrs1Vhe28ohGEIMXrTyNt0ZQRMEIJLHW7S32X/Kwi3PcYAp51P5Orf/tfhReusbCvrye6WQegAPPA8OO5xV15vZMYy/rrBc/F9xiqg+6sjmRH0hHabN/HMOcuh8kXVUO++7tQeLDXC26xGvXb3b9+X7xCGIcToTiP3D36CoLXuOsWFBLyLXO6BmhRvwsQwAzM2fILJQ2LL8+9yRy4umNgwC4ZyV4GT6Cx7BV5zuzMo2ROZ6UixQP2vG6o7lTmStDR3XL2U2X6pEaiTLlfSDUzAwLpewyRpVnsdAG/q1vIdwjCEGB01cn9YCZUesOsUawYh2YUJPYUYqQfhieA53twrCQxl4T1tduTioSw3BE7ZkUvQnrbZKzyigDr1pwtbjb79oGRXMtNRVwTIwbrhslNZKNImZZtHGVbE0fVSIwyzCsxIGNRvEhiIKRijDGjnVgTIncX2y3cIwxBiWI0coy1wuAuU+PWYsYUgHOOhUZsgEPUgDPyXg0fhW04AKr3t4BffjpFHAENgnX0BEDgo6c9eAQIHJcGI/BETUPjUMhy++/j+A9bgZcAOeA6alCfoPf4xQGjrvMvY7hGwegLAiLBM0A3WwDhQB+UaQzgcdEoE3FsF1z9BhE/SxPPheoMwDIOM7bGlYIpS+QAV6PNUaMi+CsPIBed22iZCbpc6ChMczY81TctklCWC+vcBBgEadyO88m6dBvjRp+D91YiyWkZoGWNyMQHjwAgqrQ83SoOZOy7oG92SGcwkaOgpCiGZFNEkRqHBczsBd3CZAQPRQJBUYZrGcSisgCsmXOMZYCb/GHAkPAyRUiEzoQ+PLEwZpUiMpCLJWrcpFSM8Guo8AWo6EuQhEqQiHsoSQC4iQVZ40ojfaCBJkhqIRJoIRmcxJl5epuuGbphGFXxGazcyGBUPCE45yGQxaKNSwnAZpWapU7uag2oYuNWWvPpMax17qAyohFR3mGs8fKmxumkkmrrJG6xFbHy0Nzk5kakuxTp3u104OSXRZZ0AsXHRKCzcl+jD2b3zIBo9NgXFx8WgFo+GGuvPdy+XFJ+BCgQRAJqbPayirFqqr29QrYuAJEtNiiyVgRCc9Hi1Evg+fH5AKcHsCNXMA2LcIHhYMqOZWaCcJ4PMpEAlprncSgY0yrHQGJMCZSbGkpkE6nKplpxLkoxTxyRfIDPQjFFVZQ2ilKGkEfFIVmTU0NDcRmZKT5V7wVD4ZKbJgyqranBddX3rZ0kKyIwklVHGTns9ehGXGfiOZfAdj5iqdCCU5pQMLXLkmKQzWWDTZ4KinsQdA1eYOgmaf6qhm0mU0lalEZ8Q1wz1T0eOSsSKqjJVlSFKwCQ8wo1iYi2f0wIMAXK5VXT6ZBmadslEq6yqogYcUt065gTKj9erN+qahs+eqWQV56pJbU2tG2TNWnCSYKzJqlwOlqNU83gLQSVzB6QQvJOddeHakWA5HINjGHgo36xO5pUD4dcMl6pcwhibqxuG9bSTUxI8I1ISUeqYFDd/TRqRgBKTYlFSciKCho1GpIDxHgTOnjmHzpVVovKyKlQNiuJceTUqP1vJysoqvKdOleHaqjpLESiqUoEo2gWOwW5o/HslEx2oqRlzRHQx9Ce+Bg0NKAtjOsOtui6hjM4FbyyeXx2RnOBJHtmxzPDXkaNGWJ8y0HCZqayoRRXllZbsVFXVWa+lp8o8Z0vhWmWNpXgURa4m0Ng9mncfY2QvIfhAXcWoA0Jm+g9rXEEic0HbZjGGZ7jD1AWaV5sAxkCKiAjXMiaMZWnpo1zgUKLE5HiUmBjH5cjSLwlwPJhwR+Qc6BmQD9Az8Mp1jSU35d6i4ycxd1QhyjBVt3pC92gfUYr2IEb3mC5lz2A4GQNiGKy0MKStxJhdrbrUy7wtmrVvLq+cSdMy8MTJGcr4zDFo4uRxKGPiWORSW511R9PS7EEFx0+iwwcK0MniUrRvzxGtpOg0bmnxKlYlutTjXo83DyKgt4O9nEGowWXGw1qWEkRWgUe3XPNo4/wNetLUcWjilPFqqMpMcVEpOnSwAJ0oOImOHCrSjh85cV5moOFD+8ijiL7txmH5In25+/AUc741rSzJKzDBy3XNSJIlyRw9NsU7bfpEV+akNGn8hLFoSlYmig3w+EOB2tp6dOzwCVR0vARk5oR55HCh92TRaZdhmpKiyhXUoPkmM98ZqF0V+80wWGsFYbQyzO1e5fV650MFsVnzsui8BZcoYKnRVKicwbbKgwX3GnklHjtyAm3dtEs7fOA47+8yFFnZ7PVq75jIeEukMV4IX1bEJGi1O8x9jaFpCzAhZMbsqWzB4pnyUJcZ7i0ePVJkycz2zbv1/XuOyNAYDUmRt3k92rsSRW/V1BRBRCFohfc8NJBsRMgyVVWu1zR9SkxclGdR9hxpQfYsZRI4DWnjUpEkB2wLMsSAaAKc0xL00dY95taNn2hVVbVhiqoUaV79ja726u4pfTAMEOonlK6WZPlTEsGrNV2Pg7BeW7p8gTpv4SVo9vyskPHq+hvuJW7bvAt9vG0f2rhhh7eyotoFz6JMM/U3mMGeq6sqzLdvHWaAzMSfXCqrym1YIqt1r540OjXZuzhnjmtxztxhLzM7d+xH0NjRhxs+1ioqqlTFpVQwk75laPp/66rHgswMv24nX++D5yaZyLdRxpYQjJXpsyZpi5bMCVuydB7iDsRwhkejmzfuBLnZ2bLnk8MqBYiEP9J181lsmM/3djy0x4YhKj5zASHsDkWWPsNH7LMvn4cWL5kjLcyePWhjAaEGr7wdYCQ+eH+buXvnAUxkqdLQjMeIyZ4dDl4hn3zGKL1DVeXPm6YZy2UF5IYsWjJ70MYCQo1TJ8+ibZt2t8oMOGBVmqY9KZnoyeEgM3FJGdmYKPcwRm8OC3ORFauWSNlL50lz509vk2QiOI9X09CuHQfQ5g8+pu+8sdFoaWnBGOHXTZM+2FNntNuGITpp/EpFkX8OCm3x1OkTvdd+6grXiquXoKjo1iQQQTfgg07vvrkRvf7Se96TxWdckiy9pWv03mDu2DZQxMSPWw5e78/Ae1maOTHNu+bmq1wrVmWHXH9vsOEy8/47m9BrIDMnCktdsiq/bXiN+4de5JkjRyeeugmixp8ahjFt4ZI5xrU3XKEuXjp32EaSvcU0KNq6+RP0ztoPjI15H2EikWOart1XF24+352xz4saBt64Vbfr/6CiJl2+YhG7656bJD4AKOg73Lo/88Tr+ub8nQoo0K26Zn59KMykjUkYv1RWpAcgqp0C4b75+S/dpEyf4UvrE/SN/XuPocf//WKrzJia9qOaiqLN9uWQJTox41ZVVv8fJmzEDbesJLfcvoqMGTvSviroC9yxeO7JN+mL/33bBMe+3qDG9+sqxjzTVddkp4aBL1IW5g77t6Eb2VdfuxTd883PEBH2Dwy82+DBvz1jrs/dIrlcyotGi/G9UFxSm+8hoUrKAyY1rly5ein78rc+IwmZGRgCZcaKIEzPN0Jxlj7vZlQU/Cgz0czb7rwe3/GlG4nohRgYGuqb0PNPv4mefORlgzJWZGjmlzuLOjs0DDGJGd+RiHTf3AWXSN/8/h1ERAiDw95dh9Bf/viYcezoCS8Y5LvrK4uety85npjE8XdLkvSPOfOzpG/94E5FyMzgwFOn/3zvI/qh/cdNiNC+WVdZ+Kh9yeHkyNEJp75PCL53xdVL6De/f6csxigHBx5BPPzAc+ZrL77HlwT6Y11l6i/aRw9tDAPPAEAKewthtvgHP7tHvv6mK+0rgsGC9w0+8/hr6F9/f4ZiLD1bXZ7yBUdno6SluRM019ME4zXf+sEX5Fs+e419QTCYPP/UG+j//vykyRh7tfrcqNucLDNczzCVrpMJmferP3xbuWLFIvuKYDDZlP8x+tUP/6J7vcZubJBlgWmurYaBTxYJl8PWJackTP7n479VRRdAcOH57V+/65dac5PnA2ySm5w48clq4DJdHx7hnvXvJ++15qsIggfPcf/y53+mNTU17SCmcrUTZYbPTlYjw98fMSL+koeevFcVUUJw4dHDlz77U/1ceWVxk95ymX+1aHsmSI4coYS9lzIyceojz/5BGAUHwLtieF1ERIUto4rpwC6lHBmp9O3kkQkzn3/j/4RRcAC8Dp597W9qysgR85lEX7aLHUSO7IqKeCM5OWEml21hFIIPn0D67Gt/VSZMHpfGbYDVrgFr2enEke4HwiPCVjz23H0KX0RM4Az4Im+XLp5J3nglL0NxRTd4m2sck9Ian+L6uaLItz/yzB+UlJFJdqkg2EREhqNFOXOkV154N112RTOQmQ/tS0GHy4xLVW77z3N/UkYk+/a5EgQfaMdoydK50tqX349HclW8t6k6V+KZJIixJ/709x/Jk6eOt28VOAVu0WPioslHW/ZepkqRD3q9dUFff8naBhVJr/3y999SZs+dZpcKnEJMTBRKHTuSbMzbvoSERz2iN9cFvUuJdyERSXrzN3/6jnLJzMl2qcAphIeHIdD/0rtvfjCPhEc/TBRJ/nbmxHSTz0YVOJM1N65AkZFhClKkO+2ioOIi6tdGpo5gK65ZYpcInMayFYv5MtJMofJX7KKgwhTpG4nJCUwMNDuX+QtnoHEZYwxVUr9LZEVasXrN5b5NDgSOhC8KtvK6yxXVrToiTczldi27+tqlYiqqg+Eys/zqbFVVFUdYb5dbXXjlysVCZhzOldcsUcNUdSnRNX3saDHD0PGkjklBBBNHxOBUNzNGjhYJCk7HkhmJOKJ/mCAyjW+cJXA2fK8K06BjiSTLjY0NzXaxwKk0NDQihHGNfRpUMEFNfBczgbPxyQxzxG6DGOOy6kqx8aHT4bvOYQnXE6iww4cPFtrFAqdy6ECB6fV6P7FPgwpj6FDh8RJqnwociiUzHt0R+4C0tHh27911+PzelwJHsnfPUZNRuod4vZ7H1r60TufraAicCV8XZ0v+x5jv5WAXBRWvR3vszVfzGJ8cI3AmvG4smaHMGXNgMPn3jm17Fb4EvcCZ8M2jPnhvKwZn4l+EL8Oqm2bNA395SniADuVPv3nIlGX5oFOWWYbv8Tom+PTf73vctIsEDuP+ex8xCCaneF3ZRUGFrxrscrs23furBw2+7IvAWfA6+e3P/q9Vz0iors5Qleg9x46c+NzoMSPxhEnp9q0CJ/Cfh15Eb7++QaNeY6XHU3POLg46shqzuajg5JeiosJx1oxJdqnACTzz+OvopWff1kyKrvQ2V1tLHDgBlxzzfmVVzT0Qzbiyl861SwVO4G/3PY7ycjdrECQs9TbXVFszn70ttUUud1zzhxs+Wh4dE42nXTLBulkQXP7516fRY/9+kVKGbqt12KYs3paaM2pY3LntW/asVlUFzZwz1b4iCCZPPvIKyM1TlszUVRRssIsdQUtLdb3iit0OTuhn6mob+A5+F90PRjDw/OWPj6EXnnmDUpPdUl9ZuJWXWYaBAw19q+qKq/5o666VdbWNbM6lWViWWi8LBhE+3vOLH/7FfOtViBSgsuoqC1+1LzkKkJmdrvC4ozt37PvUmVPl7NJFMzGfXi8YfPie0ff+4p/mc0+tZQzhW8EoOHCtJEtmit3hMfnHj5TceORggTxv0Qzidrvsq4LBhOuZe3/xgPnmq3kaYvSK2sqi9+xLF+7HYG3hSaTnx44bFfb7//cDVSyONrjwXd1+8r0/6411zRWarl1fX1W0077kWKwd21T5hVGjR8Tc9/cfu4TMDC58V7ef/c993oqKmlpTN291ylhUV8Qkp6W75LBXFUXJ+vnvviGW3h5k+JLbv/v5A1pTU3OR0azd3H4f8Q5DuciRExNdFD9Nmbli9Zpl6Kvf+Szha/YIBg5rR66/Pm2sX7dVxgQ9pjDXt524bHJn8LVwJJf6MEPsxlVrrmBf+87tkpCZgeXsmXPoob//V3/3zXwFY/wC0/Sv1NWVhNBkgRw5PuXsTxFlP58xdyr64c/uEav0DjA8K+z+ex/Rd360T6IIPVAXpv+ooz2gu+zj49GDS1H+wiideONtq6Q77r7BWtRN0H9wg/D8k2/Q1158j2GZfORtMb7XUF3gmFVUewqPHhRVeoAxNPnGW6/Gt915ndgStp/hMvPiM2/TV55/l0ETPmDoxndCIUroDL6Qp1uR/6Qb5hq+r/xtd1wviT3C+xe+v8t/n3jDzH0rHyuykqe3eL/XPkoIpBuDPzlyTNKp21XF9UvD0NP4/s+fuvVqIiqub+zYthe98OzbJs815ylimlf/pVNSC/uDmKSMO2VV+QnVzUze2G+9fZU0Y7YYoO4LfOvXZ598w/xw/UdcZo6CzPx0aMnMhJmyQn5naMaqiZPH6bd+/lrlymuykUsVSyz1Bq+moS35O9FzT72p7911WHG7Xe97Wry/744T0aOsAPAG16gu5beapk9PHZuiXX/jlSo3FGLDje7BPb13Xv8AvfrSOr2mqk4Bgf/A69V+G8re3sWwZMatfBeU2GUpo5K0a29Ypq68NgeNEetzdQu/zLzx6nq94lyVT2Y8nt/XVZ/Is28ZcvAIQpGknzLGPiPJkrLq+ivw6huWCWe0m/B9wN9euwG9s/YDvaVFMzFGzxkm+z8+l8S+5aL0yDD44RWHKbrDFabe6fVoqWPHjdIuWzpfXZA9C82YM0VYeBueKcIjg+2bd6MPN3ysVVRUqWC1j4LVflRi+Pnq6oJhMw2UDzYyU7rd7XZ/0evxpqeOSdGyL5+vLsyeiWbPzxIyY8NlZueO/Wjrxk/Qlk2faGVnKkBm1MIWkBmZkWeGk8zw/cSjm6Q14eFurmeudLldNPuyudL8RTMw/EOii9IHn+W+DXTMjq172LZNu/WGhkZZdanbmpu1h9xEfb03Y5W9MgyB8PCPUXNleGT4tVqLdx4hRJo1bxrLzpkjLciejdIzUu07hwfcWm/dvAt9tGW3uW/3EYIx0VRV2dTc5FmLJJRbX1FYYN86bIlMSJssYWlleJh7jderL/LLDDgWUnbO3GEnM3yvZp4lsuXDnebBvccxpdR0uZStzS2e101m5jZWlThivaNgwvcX97CWpRFh7k8xRFZ7WjxJEHUaC5fMki9dPAvNnT8dhYW77bv7Bp8FzJctdyrcediz6xD6eNs+tGnjx0ZJ0WnZ5VJrGULveL3eN7Fu5vY1CaHPhqEN3MI3y0sVSV6lqMr1Lc0tY2Jjo/RJU8dLEyalkwmTx6HxE8ai8ZlpQX3wvOI3b/wYbXhvK5o9Lwtdf1PPtzng/XdFx05agzqFBafQ0UMF9OjhE6y5qUWKjIo42tTSspbp9N26qtTNCG007LcJ2gMyE9NAshWX6yrFJd/U3NiS7kSZ6Q+4zEAjtmTm2JFiVHDsBD16sJA2NDTL4ZFhxbrXeFn3etfVRdHNHWWKCM5jORdIXh0dG3FzU2PLbNOk8pi0keaESeOkKdPGW/tfT83K7FWyDJ8kuBkittVrLkc5yy9FsbHR9pXBp7a2Hu3fcxSVnDiNDuw9hooKT5rFhaUSIZiGR4TvbqhvfFmi6K2uBpJ7Q/8ahnbEx2emmhJagCU8LzoiYoHH453h9WoxRMJsXMZYc+LkdNnf8HkF8rGKgawE3q3z/rub0ca8j6wHzrn2U8vQL373Teu4I3iYxheXOldeZaV68ZVoiwpKzOKi09bsv7DwsEpFlfY1NjRvoQbdZarS5sazxyqtNwt6DN82VEFKNiFoVlRkZLZX82Z5WrT43srMv//vv2jsuNEoa8bEPo9rcM9+/96jqKGhCd1+1xq79EK4zFRV1qLyskqrQR8BmTl2pMg8WXKGUJNhd5ha7VJdBxoaGzdTinbrSN/cXFHimKUrQg0eTWjUOxdhNjMyKnI+KM25TQ3N40xK5aioCDNrxiSJyws3FqNGjUDxibGW7ERFR9if0JYffuuPKD/PlxjInZFF2XP4pkdo6bJL+y0qCYRHAJUgMxWgZ8pBzxwHx4HLzd5dh8z6+iZJkogRHuE+xRje2djQuBVRdkCVwrYPZDr7gBqGjuBzJCSvPhNhMjMqKmwhg9fmpuZ0SpnlDsJDYIlJ8XT02BQpOTnB1/iT40EBJLYqgJGp5/sWeUV1pRh4187rr+ShDeu2oLraBrv0PJcunomuvWGZpfjPlVejaqigcqigsjPnTGjYrVO/wUQbEVHhJ+B78srZQTDaSTXzQGjljYcmfI4EVMBcRHAWNHw+E2pOZzKTaMlLgiUz8XD80n/fgQZ2mN9mbZTPvcipl0xAfK/qrEsmdaocuOOw95PDaM8nh9CBfcfQ0cNFyNPita7xyVhXrFhoyQqXGS47vGGfPllmVlZUE/BerXbFZSYsIuwkHH7ib9DIpDuFzAwOVlRBlKwwVZ0XFuleoHn1yR6vN9bQTWtAS1UUxmVk1JgRmMsNP05IiEEf5u9A+3cftT4jENDQaNbcqWj5ymy0fFU2io70yQ7vgTh37rwvWFtdbyl7P2fO+JY4q62pB5mptRwHbgDOna1klRU1DBxmvxwb4WHuGkVVjzc3e7bDd91GDHqkv6OB7jDohqEzfJ6imkKZkUoQSYFKSwelP4XIJBUe/Giv1xvn9Wjh9u2dkjginhIskfq6egTRCWKM2Vc6x+VWm91hrkpCSBmjrLi5seW4ZmgFDOEyyWClulsuE1GA87CcDIOlMkRTMEOpXGbCI8MmYILTeyIzqktl4eFuzCh4by0epmnaRdtFhzKj68UMo1KMSJkp41IhM86EOxqmjFIkRlKRhFNjYmImut3qBHA8Ug2vMbK5uTmxpcXbscfQC6JjIutADzFVUeskRToHwlUCn3+ivr7+EDJZKWG4jFKz1EkOg2MMQ0/gGS72IUJUjUWUxtpniCKcSjC9CTGsQGi5An5il4v3QH09BU/hOGOkGDFUYEp6sQjrhw48OQIxuts+7YwzCMM9DFNwBpZAo2iVpw7RjTjh9Q8R0tLckY0oHWOSiSlJR4SlEYoyGcGd9xX6aADd8gFonFMEo+cpMVuzxVQaURlKqxZ0REgahq7g3gBT5BOg8YvBA7gZLMVmjFGyfbk9JsQTGzFikaAUxsLT8G1Ky5AHjsFQwGdgVADXSuCzihmlxVSVi4UnGBrwvmcv8mZjxt7szEGAgHKzHkZuVVvoTjhrpEhZTbDBJ411vL82Y1D3+Oa6SGO7GCAODaz0epOC0gfFz1AaFGWC0wjHOL21zSNmwLVicBRLMMY8WWQ5wrjDVURBZvaDPrgBDnZCpOoBWRg31GRh6BmGhPG/hl/1K+uEoRuQYeQjRX4fzi5YAB6EoAkjX+UzzLZLiGxjlB0xMKojDI3h3gNcyoTPAQHC6X5PEt7HvYECn/HAxRizEv5KKCuQZXdxqHsLIYud4QQKYBnU0lIomQuN2AN13HheAQTA0PPQqO+KaZK+Ak3hr1YZZnchzXydyfKb4FBkW2WBcMOAcSK818NlBjO8EUrzhaEIHjzJhUk03QCPH2MwAAyP9yt+qMPW3gWGGPfquaNXDG25hCJcoEioXDdRMjiHc7jMgFGYCc5iLVzneiHKemMAoB9er48yPxPTKP+4Vc8g9t26yqK/+Y6HBkPKMPijhQAFvqe+qmiWtaxHYukTUPRZXu4HBOWp+gjzyx0rE7SZRxOMkfyG6tHgTW40rEFQVU1HFITP53WkceFjXPgYAyHEkb4PtpQH9z54xMG7qAp5xEGpUdwYCedCgfQP3BA0ygvgaCko6RxQ0vwYqsSnsAlheTUVY7ZHJ5y6G+rmX/xaAH+sqyz8if0ZJ1oNB2MFdVVjpvDDmMRTj0MTud0qt4G6vhprYARkeSnUP8gMXg7Fk7mz0JHM+N4l6At8LIloRjoGjx+i9kyoS2h3oPjBWYO2xb1+X6oQQ2VQJ5azZrU7BO0OonwmkeL6ilQ4h/ro1HkIrLuC7TEJGc/D53/a+lwb0Bf311cW/aC9nuF/d6hFDfDbhg5togU/EDX415OB6/8L139ulfv4EiiHR+1jC3/3A6LoKi44fg8CjvPhYW2EACO/s6nlfABdMhUQYO618H5LW4AtI8I9F7s7AwQJPrMAIg2/EJecF2AxAa5zcuSo+NNzwStcCnWRA88wGzxCrhRACeN8eK7rOvLcfRPqZF9qEu8yQPir/nqPScz4Dpz7ogU/EDXUVRRxR6KdzDBDxe649hEhr3eZSfCdcA6ccmVjGwr4Tpit70pmBL42ZxiedEqw1cXDGLQby+O3vH1uCCyHy2qHfmeLe/4UlzBCi2UTF3caqXfTeWhvxKMSM79LEPuL74wZjOLv1lcXPsDPOtQzQyxqGDKG4QIrbnM+avDBF3cDCXsEhI/nBd92sZVMrSjB8g65obAbPQ81GcoFD2IjRWZ+d2emBoa8IHSZ8Dl2A2gX8jIQfNtowO+xQl4ZGgA2SfGwWhIB8A0em0vhWSyD580NdSSvU3jNBe99owu5Nnen6y46MeMU1HssH3cC45trFbaPFvy0Rg0+ZREgM9vrqwqXWPd0gW/+Dl0OysQyFLxuLaUGzgUos/UUG3nDazZzjhyZUJxJiAzRthVZg8NkefqZluPEu+Y44LlDGY+wC2z5bx3bw4ZZ0L0B/945D+2Jis9cgAl7GL7fODDwn2t1LjvRM/C5QypqGDqGoUMrbhMQNXBi4sct5/MooOx+u6jbBHqHoMBXWgqdh7AI5SPC1iFi5teVl3CPpsdcMEjGjYY1xnHhIBkcQOOxuqtKeGNilBQPhYwq7t0TJNmGGPPGzRvgEXjWuXC8kY8Z9SYjKCZx/B+IyZ4NzAnvMFrwExA1cPoiM1YWHYXfRLHPueB1actMT50Lp2L9RgMUPwGZpVxe2XgwpPw1HdrK+TVOwOgykFt4tSLl/sgG9DsPYARy4LOW+50HyxAQtK67zkN7ohMyvgLfb0+g89ilnhlCUcOQMAydWnGb9lFDf+Jv9JZ3iNly3ggsj99q9Hi9SfS8flHW4N3ytDq/1wU1Nx4aAfe+wIic97rgtzZygwERjT/qKIHiAjA2xUjTip2WZmk9P1NeDr9lGZzaSpNxo5fHlaaBzfwBMXadRQt+2kUN/Ynf+HHnAk6t3+yXGfBSN/bFuRgo2nST+hIywHGBSNeSvfPdpFBnpVakG9hNyiMA2Sjur98U+Pwgalzpdx7gnxUR9NZ5uBgX0zPwt4dM1DA0DEOXVtymXdQwUHTU6OHVElrLO1TkvIFId7WWBUB6pjUw3t/9tP1Ih90sQVCKXUYLftpFDQNFG4/XjpJ8z4TlQT2tHzDjGIDVZcoTKxADGeLK/nxiBTgZfIzMHuAd/MSKjiKuwX4+nG7pmSESNQwJwxCdMJ438FYrDj9qJShhEBTcOuAHZQd70w3QVzpu9L4wF4573TXSUwIzO85HHFak4TMenWR2wHe1+nnhSkFrZkcP6Ghg1vobfkMZpG4U3rUEyqU1WsCIWampEOVttgo4mBXWVxb9zj4bNCyZoXQ5fJtlvj5yy6j7PGKM1yNNz+uxzECEFFcvZRoSS/dP5LLq3UqMaJeKbUec8Ld5goSVis0jThUpBQPtOHCs6IQqEH3zrC+f88BlBr5PbjAjKsuZYLhVz4D8Xs9fQbbXWgUA1zv1VUUP2achC8jD0CM6MeMDnnEAhuDXdpFjsAa12gyM8UbPtnND0ZPB1P7G31UAEgHRhZVVFdBVgDPt27jgB3YVgLcIrxQUh91V4B+stwwhRtC4URYcgxLzZXURE+UFY+2XiwHOxeP8tb6q8C6rwDG0HUwFOeEes/tC5yK9MTqpNL27E7ngoM0YFZQVBGvypq+LRloZ6DxwmelNgsdg4lyZ6TsgV0MPJxuGtuTIcUmnFlCKl7em0mHG+2p3QmNeB6+OmTjVxeAiz9oYbd/mxwSFcxY8vcPQwDdJGH3gRWbBYIT7vSUUGrnVDafQicggyximC0FGpkADHgF1AC/wtG3gmZ+G/49bBtyBWW1tnAd/SrgVqaA8+L5dpoQ7CWEYQozQMQzt8OdcWxk5vsk30LgNf841ZTg36BOnOv+Oe+H4KBiNMkRAsBgaC/+19VZb0xF5/zREGXb/tBOWGnFCI+9yIhfv+w+YBwPP1uruYxJEcJQ/b5wKdTAZGnSWdY+DnIvzS5P4DAEUdTqJ1PeO0EAYhhAjZA1DOwIbFHhUK/2elb9BwS159VVF0KAGkr5HNf4JTG36t32ZLZbSg9/Tpn8bjnzLFgxi//ZgNPJOJ3IhOAcDYI8lcI+/1wkCFyphqC9Qwn7norMJXf2K33lA9qQyhLKhHlsdHCgfEkuICMMQYgwVw9CewBAcY7QSiqy+WFAAF52V3X06miBkKSxugPIGYhykNSOmp0uNgMJEEiroj4yY/mnkF07kgu/KPX/rd8B378eJXN2js24bqNt+9NbPywz8xmVglLJbnQd77Kw+3MgPdUPQHmEYQoyhahja0ybjhzG+GiT3wnuc8dNh5hRCB+CzfH2+g5Q51Rltcuh9czd8XSyWEeGZNe26WLiXzSONNkuNdJ1R1d1G3m6sxVqsrTsTuaCkwAmTEDsb6IUv3CPnoqPMKTA4rQPiKnHlBSOJYjARhiHEGC6GoT1tJtt1kebX1QQhblAGKy+8v+jtUiM8o4rwlEyTFBuY/S+/xyDGT3o1kYuwQjAUrdlZ/J5QINC5gOdjzeS3DAVjeXB5vd+5sGSGycvhd/KFAy3nAa63ykx/bEAfagjDEGIMV8PQnlYDgNE1UNWXQVEMaDQTal2Chl9BEdpACMp14kzb/iRwqRFG2STwbqcggibAs+CbQF+wtDIHvN8meCnnSp8RdhAzdGigJ3I5gQDnYhUoh8tBVhKgGEQFnhhjVWA0PmCIrO23Gf0hjDAMIcZwNwzcC1SQtLJ95ADHu0Hl8QFe3lU0b0h6fT2cyAURxAlQezVgLC5FFJ4CQR/BeTQmOBVuajMuANFVARgIf9RhT/zDBU5caqSndDQj3ZIZzD6G8xr4Fwe/eR5oDMcv3zFYCMMQYgw3w2ClOeoGX6fpgn5j1MVqntEJGXzzIj4JrXWQ2fn9xDlytydycaVtp8bC7+pyIldnjZxn+fR4qRHetcRQ4WAuNdJT2oxPtZcZhtZ1Nj7lj0LhcBk8Vy47sfC7B35tKwciDEOIMdQNQ1eZJlCl60Fh5vU8O8nOLCF8QBEtg+d3Pi11kGdlB44Z+GZhd7IjV7sxg75M5OptI+/+UiM8o6p1ULx1qRGra6oqvaCrgfH+oI3M+Gek+2UGo3W9zWjrKHEBisGgsDz4reuDnbgwkAjDEGIMNcPQVW469+4GZIJQQC46KF++eJm1NSoogM382cJhr3PR/coUpM+aywCG7aITubgyhZILd+TqJwaqkfszqvhv7cFSI30ezG4rM4gb+7nwR3h32GZ41usHalJZR0u++KNQhul6Nw7LHyrZSsIwhBghbxg6U8oMb4cKWw+Hgz5BqHNFc6Fx6rT7pQcTuWqizYLB/H3BauRdLDXSJv3VFx3xiMN6XtY+Bm2iowE05L3HOVHoQCAMQ4gReobB14AIZiutmaJWA+JdEMFfXK9DQAlFN5LpGJHV8N2y4XvCMU6CVwqayABPWLXu62QiF/wmxw3YOrOR+8ZT4MBaCtsXWfHuKTAigeMpDFE45m2Z/yuH6OMwxmQLyNF7hoIPBXOpkTYEGK/zcs7k4Bqv3iMMQ4gRCoahq5AbyoI+qaynE7lAGZUTjBS4Jx5KJ8BvSLMiAoevquonFBp5R8kCYDCOMMLXqELnwEh7MEZjfMbjwgwsnlEF72uzlHYwDfSFXaQ8CvUtnQHH6xkleU5eQ0kYhhDDiYah80G64EwqazOb+IKJXH3v++5ssh0c92hW9mDhxEYeF5eRRSW0vLcy05elRniXHmO0YDDnbPgNBXyfZSArfIvOIKwN1n2EYQgxnGAYOtrJLTD/W0dm7kAaglal0G5HLvge1oAvvF6wIxc0xAJ4PZ8t049KgU8yg+9xPqXWYfnwTmjkF5MZySR5/blsdhvnIDAJwDIiICMdJQHwsaAeLDXSFzrMpAqIQoO9PLcwDCFGMAxDoIcMD3Ulb9R+DxmO1yPJyOtXxZfWwUQun+ffYTcCHA36iqVd0dESC1wJQmRhbc4y2BFUMBp5m6jK3i/cLzP8GWDZzA2msez2UiM8quQGg8uXvdQIjyolhgv625BduBsgODbIN4disKNQYRhCjMEwDH4hhcbAM0CsrhK/NwMtpdMJQt2n3UQu5Nv8398wLcNj0bOJXE6ly+0sB3CDdz+D0cgDFRsYwfPrEtkesMnMXCd1r12MwKVGoI7szDPunLSTTz62wZ0TLqM85Rjksz8WFLQing62AIXjfDBO6wY6ChWGIcQYCMPAw9oLVqXs4wSh3iz+Bq+FF6QqDjkCl3FGV0FdWlla8LwHLB9+IBq5vysE6oxHRTxls1VmoK43YiLlBrMrZECBiDayEaX7lyCH+rMcGzD4IN/8vP+XIO8oAhvIrjhhGEKM/jAMbfo37dnFXIhZDyYI9Woi1yD24YYMgWmOPB8eM37M6bd8+P5o5K2Dp9S3u915mQmNLJvBpNO5LjwqhqjDjhjhNGCui90VShEr6M5SIx2N2cBrtwfvL4YwDCFGbwxDh6lzAAhmpznWnQp3ZxO5fEq/NesjGBO5hgIX1tX5meCd1dXF6FUj5wargWQjQiAiOC8zgOP27A41erbUCO+m8rUtqyu1k+QJbigkLK30OXv2uFYf9h0RhiHE6JZhaD/ZBvGJWhatXiiVpZ1I8yZ2Z0cuuH/IrrzpdDqL7uAYPMPu7VLWvUaeI8cklHI5CZig5evigr+Z2x+Ri6B7+DOq4Pn3bKkROxpHCi1AVI3lKeRQvgzu43Ljm0uEUR58xvqL1aUwDCFGx4ahk35rRA8hRg6B4JxlFLdgwkZdOJGr3QCag3bkElxIR9kr/r59qLsOx4M6buTnZQbeG7jN6RHGUC6UBX0ioqBj2k3Q5O25i6VGLKNRBMbBIL5sPj45Mwtj5ILjVkex/fakwjCEGH7DACH+65TqNxMkXQEVPRMqGgwBzwJBjeDdy/Dr7cyJDjyLEN2RS3Ah3FC035/CJwfnlyUnSP4RvxcT8vfWiYi+SVaRoD0KwIMcdstKD126udQICAKc10A5gdcYXgCR4jG4dwtB+G3K2I0gF6YwDEHA7k9OwRSlUrD0hFBrwJZR5AbL36rYofISoNZ8MzkxWwHXRlnHfhjT4EINHFSBwSiBD6gAL6ASPMnThCl7kewtrHOjMtEfHPpcVGYIeIUMZcC/yVCcCq0gDK7ytF/eHiTwIhuh7BRGoAR4lEjBiGBUCnJldUXBdQ84HmWW0yBkJvRJS3NHN8upfnmRMM0AhyEF9ANEDyyeITwa6j4G5CAWExwB74DAwock4TOKop7kx4yyeo9XO2NdAECaykDGvPwYnAoPJnAOziaYmVIXcpU5ucsxuIaB9/M3q5MpZVlgkqEiWLKE8UjV5RoPDzJV141EalLfIBMQHR2lKarMtxlELpfKEpJiW79/QkKsHBkVYSsAhvbsOoQSEmNRXHws0oGGhibTuhE4W3oOKsqHp8VLmpqafYu+AZIsNcmyXAF//6y3RTtqVS5i5XB/mWSiAzU1Y46IrJJgkiPHJJ3JCpQZEIIUt9udyShN1Q0zkdJAmYn0KqpiVbckEZQ80jcsxPHLTGNDE6qva0TwPhQbF42gDNXVNRi1NfWt9Vx+thKZpiV6F8qMIjUpkszni5xtafEeCZQZjKUjdRWjDgiZCR72GNRMaNOTuWMA9ZLmcisZBOPRIC8ppmFyZW8REx/tTU5OoKBfLN0iSTJOHZPMu5QsIqMjkUuVUU1NA+iRMjRz7jT7CkItzR4EMmOfIXTmdLkGOswSGq9XY+fKq0htdX3rZ3G5kSW5Ag5PgUwVwh8she94GkOEarqUPcGcgzRohsHKMjDMuWCVswhBMxW3eqnm0TLA+yJc4ccnRtOkEQkkOSVRHTl6BIoHpZ6YGAevcSgxKRaNHDXC/qT+x4S6O3euEp0rq0RVlbWosqIW1VTVonI4Lz1V7q2sqKZVFdUyNHqFEKyDoimEitwMCuAghJh7kGHsEf3M/Q+XGcmrz0QEZ0Ejnqu41DmaV5sAMiNxhR+XEENHJFsy43KSzHCFcO5cNa2prLMMCMiJqbrU47pX+4QythNRdiDYDX9okiPHxZ2abEooC07mqLI6HTz9eaCc+cKOXDY8I1NHoNGpya7kkUk4ISEGjUhJREnJiQMuL4GcK6tC5eVVqKK80pKbinNVlhyVnirzcAcEDIjl2CiyVIcx+cSra7sYI3tB9xyoC9eODEaEOmCGwVo9lNDlUDnZgZWTmjbSM2XKeNeU6Zl4/ISxaEpWJoqNjbbe43R4hR4+WIAKjpegQwcKzGOHigxQBJYHAMaiDDzOnaZubiSU5Tp5JVGn4l89VFXUpYiw2bpmJPFyLjOTpmQo06ZPkEJNZqoqa7isoKLjJ9HBA8fN44dP6KdLy30NXwVvkeJdmq7lw6mjFogLCXxdQEvBw17lcruW+52GsDCXnjlpHJ0yLcM1LnMsmjotE6VnpKKw8NZA0tF4NQ0VHTuJjh05gQoLTqFD+49phXDe6mS41RPeFi2PIvr2QG181G+Gwb+ZuISla8DDuxrCs0iwzN4Fi2e5MienW5WTMXEshGGtEfiQoKG+CRUVlKDD0PiPHSlG27bs8UJ04VJkuVqn5luM0nepIucJ7/BC/IPCEE6vwBhfxZ0HkBkPyIx7KMsM73IoAEPBZeb40RNo++bdXu5gKIpcbRrGuxSxvIFeZDFUseYiIHm1y6Veoxt6NgGmTp9gLlwyW504eRyaNDkDooAE++6hRaCTsW3Lbn3frsPENE0sq8p2zaO9KVH0Vn85pH0yDHFJGdkmxTeqLuU6XdMzIiLCtQVLZkmLL5sjzZmfNWihmdMoLipFn3x8AG398BPjoy17kKbpsqoq+zWvvhaiiReGczTBowIwAjfC87genssU7t0tumwOBmMgz180Y9jKzNkz59DWTbvQR5t3Gx9t3cN4tyU8o8PwjNYyxl4ZztFETPy45ViRblYl5TrwplOSUxK92TlzXYty5qC586eHTCTQ3/DIYteOA2jLxp3w7xMvRKKWc0Epels3tRcbKsfm9nZsq8eGgUcGBqF3uhT1Hk3Xx8yaO7Vl0ZI5YWCxEbfYgrbwvuhDBwvAK9yFNm74qOXY4RNh3Eh4PfrD1CU9PxwiCSsyoPLt4EDcA4puwtTpEz1LLp/rnr9wJpo+Y6J9l8BPoMx8uGGH5+jhIrfPSGgPm4r8zHCQGb4XhSmhOxRV+Tw1zMS5l17CLrviUmnhkllozNiR9l2CQPzOxeYNHxvbtuziwVSDrpuPY0Ke7OmaXN02DHz1Swmjn1JEb4yNizFvuvVq5fobrxyyYdtAwcPAt17fgF5/6T29ubkFMYwep5T9ub6isMC+ZcjAZUaW8A8ZZTdFRkegNTevUK67cblo2D2ER6Bvr/0Avf7iezrPoIKG/gT16v83FCPPmITxSyVF+p5pmKvTM8Z4rrtxmfvqa3NQQmKcfYegO9TW1qP33t6M3nw1z3IsFEXK1736vXXVJ/LsW7rkooaBN25Flf4JH7pozvzpxq2fWy3nLLvUviroLTwM3LBuG3r28df1Y0dOKKoqr/XqxveHgoHg3h4JUx4yNGPxtEsmap/7who154oFSJJb078FvYBHEhs3bEdPPvqKfvhAoSKr8tter+f7obRUd2fwZBWXS/67ruvzs5fO1W+/c40yez5PLhL0FT6I/di/X9Ly398mQxRx2NDNb9RVFfKEh07p1DDwVEEXQ/dRSu9YuHg2/ep3b5dFV9HAsH/vMfTPvz6l7915CFGC/qqYyv+G4no7PpnBv6fU/OKCRbPMr/3P5xQhMwMDH7j+v/ufNHbt3E8wRg9Rj/GzUEyZ5l3Tslv6u1czPrVs5WLza9+5XRIR5cBw6uRZ9J8HXzRz38rHEpE+8Oieb3TmVHRoGGKSMm9SJOk/o8Ymh//gZ/fI8xfOsK8IBpIN721F/+/3/9HrahoqNU277WJW3UlEJY5b7VJdj40cnRTzw59/WRUyMzhsyv8Y/fl3D2uVlTW1IDNfbKg88ZZ9yfFEJ2bcKivyo1OmTXD94Kd3yzwNWTDw8Aji//78hL7zo3180ua36quKHrIvtdLOMOTISSPLnjZM85a77rmZ3P21W0X4P8jwVMa/3fc4fe3FdQTL5L7asuPWGj7OJUdOSDn7MI8sb7vjevL1735eyMwgw7slH7j/KfrCM28RTNBjtedSv+zsmdY+PUMpu/lbP7hDuvXz19nlgsFk7cvvg1Pxb4My9nqV6v1c4MS5VsPA15dBKn07LMy98C//+oUiskWCC/cEf/Ld+0xE2UsVZ1M+58yGniPHp5x5SVXV1X/+x09EZBlkdmzbi37wzd/rmqa/XV026mYnygzXM0wyXw+PCFvy76fuVTMmjLWvCIIBz2T66h0/91Scq9mHDbLM34UtWVeByNjE3BHJCYsegsqaMKl1V0lBkEhLH40WZs8meblbJqphdWObGyrfsC85hhGjw56Liom6/j/P/lGedolwJILN6DEp6PLlC6V1b36YobhrM5obq163LzmGsNj4VyMjw5c98swflHGZY+xSQbCIiopAV16TLW94b2tSk6c5p7lh2jMIlVDLMMSnTPylrMife/yF+5TRqecXLBUEl6QR8Wjegkuk115cN1MNiz3mba5xTHpidELGVyRZ+t6jz/xRFg3cOfBFALNz5kqvvbRumuKKPQsys8u+FHRiEsZ/X1akL//7qd/L4yek2aWCYBMeHoYW5cyRXnn+3VR3RANtaazaKFmbmiDptV/+/lvKzNlT7VsFToEbB0VR8N5dh5c1x0f8HdXVBb17gK9Wqbhc6374iy+7+MRGgbOIS4jhBkLavmX3MlWKfNDrrQv6suBcZmSX+ub//PRu15Kl8+xSgVOIiYlCqWNHkvz3tmXj8KhHiIso3xydlsJWXLPEvkXgNG6941qkqnJkTJN8u10UXGT5blA88uo1y+wCgdNYc+MKFBEervC6souCiyLdGRkZpvDvJXAm3AbwlWYVKn+FqKprzbVrlg2tVcqGGHwRuatW5fBJcKvtoqASHu5avWrN5arIPnIuvG6uvHqxCtHmcrsoqKhu9cqV112uCJlxNquuX6qERYZdSXRDT+NL0gqcTdq4UYhI0hT7NKhQyjLTxo22zwROhcuMJJ/fGD+YEEwmp44R45dOZ/TYFER1M4NImGher2YXC5yK16vzrQKdsYUkwV4hM87HkhmEnSEzGNc0NITcZP5hR3OTB2GCmsAJlY6dKDhlFwucSuHxEqZ5zb32aVBhiB0rOdG6ta3AoXCZAQN+zD4NKl6PZy/f3Mo+FTiUY4eLKHCANDe3PPHyc+9qfPakwJnwDTrycrdQgxr/tYuCiqfF++TrL63T+SZFAmfC64bLjMnoi3ZRUGEmenpL/seYr9cjcCZcz7zzxgfggBpPkPpI84nmphbPEw+9bF8WOI2/3/c4k2TpeH1FYa5dFFTqK8e8zBgr/89DL/p2xxc4jocfeI5igk/zurKLggpf90uW5YN/+s1DImpwKPf//lGTywzU1esSz4uXw2L37N116LZLZk3BfPakwDnwvRue+PfLpm7Qq7zN1Q7Z6rGEqq7ojw/sO3ZXRuZYPG68mODmJN57ZxN64C9PMl1jV2stu0/axUHHJUdvOltW8UVQPvLsudPsUoETeObx19ELT7+JDMO80ttSc8aa+extrikIi4x3vf/O5oXjJ6QRkaXkDF55IRf98dcPUkrZV+oqC96xix2Bp7nmZHhkUu36dZtXjk0fjcVMVmfAjcIvf/gXyij6cn1VoaOWUfF4as4pYbGFuz4+8CnEEObb/wqCz/NPvcEX7kSMsa/VVxVZMtO6VpKnqXqDKzxOyXt385LIyHCcNWOSfUUw2PANWR74f0+if//fs9wofLmusvBR+5KjaGmq+sgVFlu34b1tK/k5nzlPyEX3fhIMAFxm/vOvF9D99z7CG/j/1FUWPWhfchR8WRdXeMKhvZ8cvq70ZBm+dNFMoiiyfVUwmPBx5b/+/lH62MMvgciw28AoPGFfOm8YOGAcPnCFxZ35aOueq/d8cpheunimxNfREAwefBvHr971c33Lh5+0GKZxU31l0fP2JUcCDX27GpZQuPeTQ9fs2nmALcyeJWRmkOErZH7rnt96339nk25S9AWIFB62LzkSb3P1IcUds66k6PS1b6/doGbNnCwniy2CBxW+J8PX7/ql9+OP9tdQ3bihvupEm+iyQ/cuMiFtslt1vSzJ8sQ7vnSjcvsX1lizbwUDB88iefKRV+h/n1jLMEGbqJd+rrq6oNS+7HhiktPSZex+XpbJrDvuuUkVMjPwcJl57sk36BMPv8woRh9T5v1MXXlJsX3Z8fAluHXs/TsDY3b1tUv1r3z7NmXkqBH2VcFAwDOPHvzbM+bbr28A3Y/f1iX8hcazxyrty610EffnyNEJp+5WVeXe8IiwqC9+5WblhltXisbez/DGvfaV99F/HnxB1zWjzKtrP3R6lNA5OXJM0qnbZUm+PyIiPOqLX71Zvf6mFSgs3G1fF/QHXGbefn09evTBl7TmluYawzB+XFcx5hlnb87TOXFJGdmSIv+NmWjmDbeswLfecR0R23v2L+fKqtDTj71GX3n+XYYxOqIZJt9fvtMsx4t2CHOrrlHv98FAfEtRlYjb7rxOvf7GK9EIEfr1CZ7P/eIzb1MwCiY1WKWme++rqxzzQKg27jakpbljGuUfK6r8TUmWoj59+2rl5s9cI2Smj/DG/fzTb6KXn39XNw2zQdf1/62LMB8K3HkrlIlJGL9GdSm/BUM3bfHSeezTn10lic2f+gbfT/6V59619nmWZfmopmv3dceJ6P5IITT26EbpTpfb9SND18fOmT/duP6mK9Wc5ZeKKKKb8G07edbIay+97z20/xg8NmW/V9N+78s1HwIGoT3cQDTJt8Pv/B9N06fMnp+lr15zhbJsxSIRRXQTv8y89foGfe+uw4rqUvd7vd6hKzNAVHzmgohw9WfQNq6JiYs2P3XzVco1ay5HIoroHtzp5DKz9uX3tXNllbLiUt7zNmt/6ske8t03DAHw0I9I8hcYY58Bj1CeN/8StPCyOfLCJbNE5bWDD/Js27QLbf7wE+Pg3qOYEFIP7t7jWKOP19QUOWbjnYEmOiFjriTjuyQi344Yi5g1Lwtl58yRFmTPRiI9ui1Fx09aW7tu37LH2LfrEEYYN+mm+QRi+PG6iuN77NuGPJEjJyZKunG72+3+isfjnZQ8MknLvmyOuihnDpo7f7pwLmx4dtGuHQfQlo070dYPd2mlp8pUcOCLPS2efxvEfKK5oqTH8596ZRha8XUZrMQyvtolK6s8Xm10YlK8N+eK+a4F2bMQDwOHW+XV1taDIdiNdmzdQzfn7zTq6hpUd5irqKXF8yqmbF1d9Viw2kPT0+sWPPJslpdijK92u1zXg/CmJYDMLAWZmbcQHAwwFMNNZviYwbbNu9D2zbvRlg8/0Wqq60Bm3CUer3ctOF/v1ocb+UOlu6i38IQYwuTl4RHu6yH6XEIwkqfNmIgWXzZX4hv/DLe9o3n24mYwBFs2fmLu23UYU0pNiAx2QIT5lkTRW311OvtmGNrBM1OYIa10hanXmrp5BQi1OnHyOH3a9ImucZlj0aQp6SgjMw1FRUfY7wge3JP/4L1tiG9L2dtNirgROHb4BHh4JfB5xejg/mPeE4WlLlWRGkDxve/V9Td1ZOb2xmIPF7jMIFNeDkbiGsM0rwL5djtVZvoDbgSOg+wdO1KECgtOoYP7jnmLCk4qhEgeiaBcr2a8iyQjL5SyiwafHDkmoTQbK+TqiLCw6xsbmiZFRYUbk6aNJ5kTx5GJk9MRyBBKyxjdq25uPuHr8MFCtGrNFWjOvOnW3hbBgs9PKSwoQYUQRXK5OX60mB7af4w2NDTL4ZFhxZpHf103jXX97Tz0q2FoS44cl3RqAaV4gcslLySSPBO85gx+BaIKbcr0TGnixHRpAlRiBiiAhMS4AW/8/r43bhC4YeB85vPXoe/++AvWcWdwA8AH/riVPgICc6LwFD2w75hZV9ugYIJomNtdqGvmDt3QdjKGNtdXFe203yroETlyVPzpuQSzbJdbmQfKcq7H60lnFJHeygyfPZ4J3uTkrMw+j4Xx/v79e4+iqspadPW1OXZpx3ADUFEOMnOi1FIyBbxBHywwa6rqLJlxu9zFYAR3ej36x5ThzQ3Vo0FmhnEk2QesLifNzCYynhcZFbFA8xrTIRJNIhJmY9NG0YmTM6TJ08YjvodIckoiyE2sJTud8csf/hXlvrXROo6NjUYrVmWjK6/ORjMGcOtjv44pL6tEJSdO285DsXGi6KRETYbdYWq1S3UdaGhs3Ewp2q0jffNAOpwDaBg6wDeAnQXe9EwioVku1b1A143JhmGE88sul2LGJcSaKSMTpdQxIyVeiXAOlZmARiQnoNj4aOtjeGV1t7uB5+2+zwfv1ubzJWXt0vNk58xFd33lFmjElVAxlaiqqs56PXvmnHn61DlaW10n6YZhuQyqqjQoLvVgU1PzDmqijwnBB+oqRkHIJhr0gMG7K5vVyYjRuYjg6eFh7oWaV5/WmcwkJMWhpBEJlszEQ+P/51+eRLs+PogkcMf5sh0z50xB0y6ZhKaAorjY2AZ3Hg4fKEDgBFgGgff9c1aCUbj5tlWoGmSrHBpzxbkqVFVRg0pPnTXLzlaaVedqZL/MyLLcrLqUg80tnm2Isv0Ik5114dqR4d41NNDwPabh4c9EmM0MD49YAEZiXnNTczqlzKoXkAcGzgYdPTZFSgQ54fplRHK8JTOvvfg++mTHPutzAomJjUJ8O9urr8uxIpLO4EqeOxF+zpaes159yh/0THm1pZfKwXE4fbLMrKyoJqZJLV0MOoWGR4QXY0b3NDQ2bwKZOWC6lD0dzTUYSAbXMHRCfHxmqo5QKniKKeBxp2KMklW3miFLJJMhPFLzaiNM03TZt1+Ay63SmJgoa6VPjAlhDJOmpgbk8WgQinVvMUdZlZsVWanCBJcaunFC82jHGWJlDLNSzHCZQcxS0SXkHLjMGJimYIRToZ7462hLZhR5HKMs9WIyw4G6RqqiMEVRkKKo8BEUaZrOdA38Md3ADISxKzqQmSL4Lqfhg8rgtVTIjPOwoguDgcyA7ICuIRIZGx0dOQnqEIwGTfG0eBO9Hs1yOroCnFvQOy7LSTVMg1aeq75ofxPoqWaXy1UjyeQ0NWgpGI/Dmq4XU0TLCJZLdaSVOUVeHGEYuoM1n4I0JfJjZkiJ0PgirQsAxTSSYGxds6BsBcPSSIwYj/e7/o0YPYQY+gSM0hEvMgtEQx46WDJjeq6ESONVu6gz6qD+N1GKQVew5dDouzQoTKbzXWbY4YqKQ2JLsiFAeFJaimQq6aALMjGm6aAPJoAMfN6+3Bk6OA7bCEHHTUryCTgCdjkilFVS1WyVjVAcLwoZw9BtfJlSJ8DTP0KR9CvC6Dtg3DvriKZw315M8Uh4Er71xhnywHExYqwY3AJ4RYWgWIoZpcVUlYsHO6QT9A2ezSIheTfUaWd9j0cok9cQpL8F8UEjY+SrYCRea5WHdvBIAEvmEjE4HDrwbiUmS5mYkHRo8WAAWBpUZCa0b24EuEHwyQZjlXAMUR9uBMW4FEo6jgIYOktd5uXEK+XDSWNd1ZgpQ607ecgZhpjEjO/Az/qrdcLQ5Ug2ipkh54NxuHBdaIZMeAISY2AIwGMkCB81qdUVEImIJTzpcJclQPCgYq23MNZoGQzEChDDxeBjlvBXREixipQC4UUGl+ik8ZnQ+JdDHfJocaml4H3G/gLDwBMFqCrdIBnGaj5HwFeIbgCZ2YNM+V04m2yVBWJ/liUzCOVjwjYiYuYLQxFEwBmMq5cyDYmlYwrKn7dd3m4tpR/QdhGq9Tl83PHztV2T4RPExBFYQlkM04WY4QWWrDCmwXs7yFZg25BuXoMU6c5WPYPZXXUV51cmHQoMLcNgRwvwqyxvD7y7/PrKosstj0GV1kKlX2bd54exF5Bs/hhRaSmi+Coo8SkS8CLhXz68f6OBzXzevWQNZqkqeBwQamLwOhAaD8KVzjAIHwOBxHbXluV1QIThF0CKS5CECig1ihsj4VwMOvYrVror1B+jPkMADkC6X2lDPa3j9acw6dbWRuyHoefrqlI/xw9jEk4dhjrLtIoZ21NfVTTLkhlFeg0MDPccz+M3HFxmGFoGMrCcywz/m/C3cwNlxn6HoM/kyNFJpenYhLbHvX6r7XGlD+0Q2qC/vUNZt6L9mKQJMxk1V4LyywFjkW23XavNw/vWI03Pg7p/HOp+Db//POyZusoxd6G0YjlQz8DfKxhqUcOQMgxtogU/EDX4poLnyDGJp8ArxLfbV0AG6NdrK060WbfemkiDpKXc4wSlz4UnFoTnAHxOHhxvRIaRX1dXUmvf3gof1MJeCuGq1UfJDQVEHDxsBcFFDJQO9i06z1AZCDRXXFbEATVQAsammEmkuL4iFcpFhlNX8P5gmfnqB54vKGVQ6PBMoY5yO/Pe4+IysqiE99unvA5+BzLxC34Yk5RxJ9SDL1rwA8qfb294ocwwA7zFpPb1HygzcA//Tny8q9W5wLqZ25HMCM7DkwmYRNMN8Ph9/fx4vF/xc2Nv3wZVDoqftx8G7QfaDmOkWCa0uKvxQas7EUsrQUagfjDUE7Tpds5D+/fGJWX8iDL8R/uUy8RvQCZ+zQ871DNDLGoYOoahXbTgxx812Kd8oa5fwz2/As/wrETQLTUVRZvtSx3CvQvEzKWWUDHEByYjuVcJr7lgODa6kGtzd7qPei74EOoiMBqEFRMwItgkxaG0DHd/YacdQiTHloG4LoeiyfCQwPPDeVzpUmTmN1aVcCXcJVDvZ+EzQGHjr57f+IhPlDofLfjxRw32aavMwJXtdZVFC+3iTmkjM62KiO2B4/yunIuhDHeciGak835+8OAz2zhObfr5O3ackEILuttd10l3Iv/cPDhe352uv5j4ccspJg8RPh6B0ZdalX4negZ+y5CKGoaMYejQivtpjRp8WF4ixeP9XmP38U3AAsXOG7sdhloCvZM3evg76+oije296S6yukR0kmmFygyBMLJ0xo2GNcbhF0LwWMFwMAiTobwAlE0JXINQmRSbkl48FLoveCaRF3mzEUVXwe/lS2fMhOcMSpT5lCqW8nuzXlB0QsYjmLEX6qpP5NlFHUcLflqjBh+9lxnfOlHwAooqsOuCbecy0xPnwsnwejMMTzrv5ycIZ4LsWjIMz5E7PdwQWF2tvC5t2eVKv1+6WjvqTuyN89AecAi+Dy872+iOrvTMEIoaoI6GAJ1ZcZv2UYOPHLnv1t03NR8OljLMcqyBKwCOt8PxRkJYXk3FGFAAffw78PsiG1E6IbKVVcG9LWhYvLHxBsC9Ll+qLkMeUDQF+HzUAREHHyjHBUjTih3ppfK6ayDZYBAhImC8P38uRE0eEMzNoEQ2MkbyG6oL4Bn2lfb13XG04Kd91OCjf2TG71yAvF7lG+xkvJuxz87FwOLr54cD7o1bMmgpfZ/y5wkavlRyOzmjVQYRKrQ8f0KK+0sG23Qn8ogAosj+cB4uykX0zFCKGoaEYejSivtpFzUMCD7B4VkNlrcLJR0ouf5f+sDvrVECSs4XaZz31rrIyoCCQkZosWziYll2Fw+K1+p/Rp0YU8pw7mAsD9FltOCnXdQwIFzkecBh/mAZCn93J7WUP04HefFl94AsgRK2p4kPftTq706E7wOGwI4iwQANdLtqT7f0zBCJGoaGYUgY/xw0pAArjmeC8NbaHosFNLLNvekG6Av+bhHwnnJAkFdaAj0Ynk07Avt3u5HH7e/b5ZlVVsRhhflV6QW9a3hddL8xvA5eB03xBcK7luA3tkYLIB9WairI0fkuB4Yhaij8rn02KATKDFeCUDQXvgc8d5bfVyXYaYKEr7sSXn0JEhBhl1oywMe27HEuMBTFEsMFgzHOdeEzAGNpRcMBxrIqdfNAG4L2xCSO/wM4eq16BiPGewvgq+Hz45SYFdZXFv3OPgtZhoRhaE90YsYHXIDAEFhZBE6hjeeDrT7nLG4ooAFYaY697QvtK/6Zn5bC4ErCGuOASMPqprpQYWB7cBwURiFXGHyuSOBgnn/wFe5ZBu/hHp7j+9SjE8Zb0QMYgrusAofAlaSHtSzFzNfVFugtw/NcjwjJ8zsX/F4N6eDtQz3akSPclwnP3Opy9NUD0IkDAFcKgpIZFxg1IbQM5MuKmgBHd685VWb6A2EYgkhHfaXQCHgong9Kd51TJk5Zg3uGzCcOQcTRWRcD1zeoGaIBPilIBmVzliGyVyLmh8SU1oKnech3lzMJiUYOCjS6kUzHiKwG5XkZeKrToZTvl2qCATahLqwJWdzZgMpo7TLkE7koYgWD2mXYJR2Ns/BJg2wPvOaBU7I+FAbkhWEIMULFMLSnq8laPEffKXs78O/J991oNWhWOiA7BQrpBMKkxlppBPGyzicfcS8VE1LglKVGnNLI2xlhK6WZZ6e1McIBzxIe9Dl41hI05SR4/hPhmHcTWc5FMKPQ9pyPItFV8D0DJpWxPJCT9aGYwisMQ4gRqoahPR0q4ICJU1SR8wZDofJBSVOiy3tlsMDLvWC5AjuFsc3AeEA2CyiOAu7lWl0d/ZjN0hWD1ci73W3nz+rpwUQuTkfOhWUoepDD3x/4J/3B37wKfpM1lwN+FPwWXwrpUJgdLgxDiDFUDEN7OmpsVviN+nfi1GB2cfVlqRGeUcUYLeiPpUb6q5G3+T2+7jYwhL7fA0aPD/L220Su7mAZClNeDn9vGZxazkWgUZdMktcfA8oX+ztO6RbtT4RhCDGGqmFoT38N8jp1UJzT46VGuJLlyraHS410u5FDBMTnlGBMMgMjIPhefOwlkxtr674ODJkT1sxqdS4QKHCMeV3z79sahXbXk+fOg4KklRdEJvbnOKULayARhiHEGC6GoS3dTwt1Shptf9DtpUZ86+Vb3jn8xgtSMAMbueX9tpuFDpcy+WdCi7HGTAK7vmzPv98ncg0GHS3fAcUX9P1z54EpAd2a7SaVERPl1fRxA/pQQxiGEGN4GoZ2tEkBZJdDRcMxBPWYNUPjjoQw3wuvHzJE8wdrglAw6EjJU4YnEqubB8X77mIUng3fAZC3B8kqAm0Jz+gsIrgIlP8hMAStE7mYixQMzX05Ap0LfAUo/iXcuYDf3gLOQxi8eqB8E8jTBkyk3FBxHgaKoWwY7EYwtHCFx90JAlzibakZ2JnOjiVHjpEbF8GBbzYtwpeCzmMMoyNwfBKUXhM0+BHQwEeBJiRwCathjZrWUj0kFunj3q0rMiHLHZmwCJlkEfzCS8EoZIOHvwi84EXw28FAoDD4/acZwsfh3yEIAcLgeiM8m11wTz08FwWUYQq88q4ivk95OjymVDCtY4nJxsFnj3KFxYa71ehmr7fOUfn1vYFHkXJEzVLC00cxWgnPZzHICoVntA+OIRpCNXCeBLIyHq7zzdcjXRHxSnTEyLLm5grN9ynDC1d4vLUsN+iZtVbBEIJ7SEOO4RcxdNGN1MkEIX93Un8vVjcY8O/uX7Ctq41ZfP38bSdygXks6GjcoSPvz/93errUiPPmDXRAYETpX4rDv2ZTZzPS20Sh5yeiwXPZDs9iPRwGZRZ7sBBdSSHGcDAMnS3tDAq+R8uB+/EPQINyCFjeOliDid3bmKW9QoaCXq/91JtG3rOlRqzvxwfFLQPVutTIoA1Et3UeuMz4vl/vZ6QHjlXB5/BxB2v5Dv/SFf22iKRDEYYhxBiKhiFwMxhoxN3eQKi3tElZ7eaGOD2hW4PGbSbFWZ6/pVAHYlLcQDTybs9ZaL/UCM+o4kak3VIjPaWN8xCwlwg3BAMhM22y29ot3wFlg7bY3WAhDEOIMRQMg3+iErrIlqP83sHA/306muQGCv2CXbC63JglIM3U+gxL6VvKv9sTufqbYDRy65l2b6kReDbcaFgRR+szar95U0fOAxQHT2a4oVCV5fADfHMbeCaTlc1lOzMhlP3WEcIwhBihaBg6ygv3K97+nIjUX8SOmHgJM82bQOHkwHedBaIUBcUNoMa8jOFIe4wDTq0og89kPu8ND8BErr7ivEZ+vjuNQbTmM6wXdqfBA+bZVI1wzQVG1wWKtwbO92E+ViQpr9aeO7bPus0BBEahINsrLRm3x7XAMK6n2MgLpbkPwjCEGKFgGNp01djeFFei8Gp5d1g2c4OrODvbmIV3iViev705kK//nDJaBfeoIFIJcB/PXIkAJQVKCW+wvEOHr4UTCo3cLzNgGHgUeTk84zSQlRpMcRFEHZVQF5QhPJJHZXa0AEXOnW/RURQa2AacPklOGIYQw4mGocP+V7+3xNC6YDSC7mzM0lvFYvVvU7ocPmEZfG6bLKneDHQONE5s5OcTAnjmWNtJZReTGV83zsWXGuGfB0qgzVab/gH8mmizYDAzjDraqxkMBB9/yXPishrCMIQYTjAMF2Zs4AVcyYLQ8z759YPRv9rRchKgCDLbDn52viNX/03kClxmGS+DZ5INz0CG77KZ1xPcEPQ0Ryc08g5TiO3BW6iTdf0pM71aaoQbDu4Y9GCpkb5gjZkweTlEQzxTDqJrnnnn616F73TBuNZgIwxDiBEUwxCQ4w1Cyz28Ad/WkysSrRsbs9heF29QrTtyEX7cbvBy0Ogohx7gaY7wZdcFI3slKI2cP4d2+13DQ4Df3Pfd2vpKj5YaaSdbEHVcsHlTf9Dx2mDBG1wXhiHEGBzD4POCCWYr2yu3fvOCQXHwBdsIkdN9efK+fH5oEJbiB+8uoJ/fSue0vDru9Xc2kcuJdJQPH2hUB2P5hcFp5DlyTEIp3w4y6Ps795WOlhoBx4SPbfClRvwD463RKMgol80SKCzon/2hO5rUObDpuO0RhiHEGCjDEBWfuaCtIAbMLqZ0fV0U3dzTRt0uZbHDjVngbwV/E/9BhBuKC7aztPvWeYMfiAXbBqqRdyUzThxr6RfaOTRQf2mgsHlmVTuHpj/nqXRgdOFZc0MBf7dXkz4vhjAMIUZ/GYbOZhdbhoCgdd0RtG5NcuqigWDDLBhIrycU6CgfHp5Zv2av9Fcj70pmuFFTiStvyBmCHsINf2+XGuGvhLKCizpE57srl8Fn85n8c63yAKNcH27k9yU6E4YhxOitYQicIARiyWf7cs8GFE7n2w+2yf7wZfSkwb0XbMxiDZq1m8gFkl/Q95B6+HE+bZNvCoOX8z5vu6+719krvW3kbWXGl0kDr1a/N8jPeqTpecPdsPeUni41AoYXjAb2JU50stRI2+5K5DMU4JD1pRtPGIYQo7uGITCPGh4EX1GS713cdvvBcFTbvY1ZOpjI1Q/LGgguTpt8ePAOeRccN8RgMKyNhrozKNndRt7Z34JLjsiUGQ50KwrndNQm7YwqrBmV7dPH4X7LUMBrtxIghGEIMTozDO0mCIEw+GcXs50gWCegYVdhiiPh1RY43tdvD6QFeCdQxr39wsFfCE3QHbr04qHRdxT5ddbI/TLDPwtkxZqtyxUOyMig7qEs6D7txu26sdQItGuMz0JRtIToaDAKWVCeCW3dShWG9/OIIq++qggMxXmEYQgx/IYBFMDf+K5TUHS1rST4IBiv7HJQ8joIRhQ09NH8PbycK34INYOyGb1g4IiLy8iiElru8w7b9vszTNe7cVi+l3r/we/FhvFdvycJssFlZ7LlFCBfFOn02biCi9HtpUYMOK+EOjdBL0SDzESBvmiGCzsJRu8xTN5mlH6b3ykMQ5DgfY6Kx0ihxM5m4J6AH4ZioQJ93TkAVORoaNA3WOUYB2xEBNXKMF9H5jSEi5VwvQqMxWGGcBnBeD/Ttf1C+Q8dupQZE/MZxHPB+PMJf2NBXmTGsAYyAnoCu+AOHv3xSLIEPM49SGLnDQHP0QcIZZWUmqVCZoYIfLDag1IYVSZiSmcwwkaBOCSCgkwCXTEGDEcSqEvQM1ix3+GDoqMMo238EOSpEd5TZZUDoHDKMLFkiWsfDzirZYygUhdylTk9ASHohoEP3hJVyjIZSoUvkwINdbSE8UjV5RpvUppuGkYCpaxNZSQkxrV224RFuMEj5BtK+RidmuwiiOCdO/ajqJhwqBukq6rCZPhXVVHLvF7N+s0GNXFddT1XAq2AgdAVRS7HhJS2tHiPgMIoYxSdxhIuoyYqdUvqgeGeUeIE/DJDEUlBjKaCGCdD00t1u92ZUOGpuqYnt5eZ2Phor0QkEC+QmXA3i4vnTqDVYJHb7VK9Hi+hlMK1MOrxgJDYLaOmup61NPMpFWBPQGZq28sMAZlRlXJwMko9Hk8BfJdS+FSISEkplxli6keE8Qg2OXJM0pkskIksgik4CjgZ6j0lLMw1GS6O1E0j0dTNCN+9CEVHR3qhTi1ZkSSCkkf6fAtORGS4pCqKUlVVg2pr6tGsOdPsKwg1NjQZVVW1rWMS58oqkWHwNQ4RApnE9fWNrbJDCPEoslTJdQ2XG/hjZWA4yil3VAk+UBeuHQlm97Qt/oMD7/uViJKFKJvhcqnzKWazdK8Olhgaa5hLTxgRb44YEU9GjU5WR44egUYkJ6D4xFiUnJKIRqQkoNjY8wagP6mqrIFKrELnyqtQJRxXllejcqjUkuIz3qqKagZlsubVrQEtl1stBYO1FyqaZzMcQLKxR/QxDxx8/RxMURYczpFd8iwJkTleTbPCfUtmkuKNEcnxkl9muLxwueEykwDH4ETwW/sdLjNVlbWWnHC5qYbjs6fPoTOny7WyMxW0prpOAufCMk4uVS0zEf3E8Bq74fQT8BoP1FcUghER9DdWlqAszwQPfyZEgTPcYeoCzatNAEMgRUSEa3GJMdSvY7iMxCXEosQkLicgN1zPjEhEkkzsT+t/zp45hyorakFeQM/AP7/cgBx5QY5o5bkaqampWQXHxFRd6nHdq30C/soecID2mC5lz2DtNT5ghsHKHKDKcllmC8GTW+L16BNM03SHhbv0CZPGsanTJ6rjM8egiZPHoYyJY3njsd/pTBrqm1DxidPo8IECdLK4FO3bfcRbVHhK4gZDUqQm+P6HmhpbtmCCt4gUxd5hpSnqxnJJwktcqnuBpmlTTZO6uQHInDSOTrtkoiuUZAYiDVRcVIoOHSxAJwpOogP7CrwnCkoINxjgiXpUkBmv5tlummwTVeS8wWr0Qwlr/IjgldAGc8DTvlTXDMvRHDV6hGfi1AxlWtYEKWPCWDQ1K3PAnIT+pra2Hu3fcxSVgL7Zt+eIWXCsRC8tOWul6CqqXIEo3qXpGt/P/oIB8f6i/wyDf0IJRldBqH4jNIoJMTFR2vyFM5SJU8ZhXjmTJmdYnv9Q4tTJs6jo+El07MgJdORwkblz+z7GuyUgsjjQ0uR9jTKcG6z1bpxP62zVZRFR7uubGj3To6OjtEsXDW2Z4V7jscMnUMHxEnSUy8y2vbSxsUUJj3Dvb2708I3l19dVpW4WMnMhfucBE3K1QqTVumHEJ6ckeBZkz3aDw4mmgAHIBLkBHWS/Y2jgdzL27z1mORnbNu/ynDl9zi3LUh04T7kM0dz+3LOlT4aBL7RlEnqTS3VdZ5jmIj6IB14dzc6ZqyxcMtvy7IYbpkHBMzyCdmzbhzbl79COHCxSZVluJgS9r2nGW6YivT6cPUMr/ZNKa9zhrusNzVzKGHVlzZikL1k6TwUnwmrYwxHe4Ldv3oW2btqlHT5wXMaYaJJCNnhbtDcNYr4+nOdG+GaT00+rqrJK0/TpboggFyyaiS/NniUvAj0zctQI+87hBXcwdmzdi7Zv2W1s/fATxiNRoAiiiVcZJa80VBdst2/tMT03DBAZRDUqN7nd8pc0r35ZyshE72VXzHddungWmjt/+pCz1H2Fd0GBdYdGvxtt3vSJt6GmgUgyecejaY82VI7NHRZeIY8mm5XVLkX5kmZoy2NjY4wrrlyoLsiehbgxEDLTFr/MfLx9H/pwww6ttrZOVlQlV2vRH4FI4q3hIDM8MpB043ZVVe8BYzAFIsiWnCsuDYPIAE2dljmg4wChCncudmzbAzLzsQecCzc3Erqm/0snxjM9dSy6bRi4p6cw+duSIn0TXGB15bVLpdU3LCPTZ0y07xB0hx3b9qK3Xltv5uVugYeP6zRd/zM2zIeG4piEJTNU/rqiyl/DGEevXJ1DrrluKZk9n48lC7oLl5l338in77+7mTLG6kFR/pmq8qNDMfLkYwZMJd8kDN0VFh6G1ty8QrnuxuUoPaN1XpqgG/Bo4o2X89CrL67T6msbQNWQ501K/9LdVYovahh4dxFSpN9DKHfr6LEp9M57bnJdeU224wf+nA7vM1z78nvo2Sfe8FZWVDOTsYeRV//VUDAQ3CC4ifs+xMxbk5IT6B0gM6tvuELITB/xahpa+1IeeuaxV70V5VXEROhfOtP/MBS6mXjGosvlvt/QjFVTssbrn71zjbJsxWIRGfQR3rW9eePH6OnHXtP27T4CPj3ZbJjomxczEJ0aBivtS5F/JBH8vbFgrb/27duVnGWX2lcF/QWvuI0btqMH/t9T2tmzFbqhG7+rjzT/FopLbFgbB1Hv9wnBP03LGE2/9p3PuYTM9D/+xv6PvzyplZaUUWrSP6nEdX8ozrHhMqMT7TeIse/Mmptlfvv7dyrDdZxpoOEJMg/+5Wl9+9bdEiHkSS9GP+ws6uzQMMQkjF8qq9LziYlxsV+Fxn31tXw1CcFAwhv766+8hx64/0kdPMMThsE+PdCb0/QnUfGZC1yq9EJcQsyIr//P591CZgYeLjPvvpWP/vbHx7Xmpuazmk5v7cuA42DD9Yyqqv+NT4xN/MEvvqQsWTrPviIYSHjX5H2/+7d25lR5i2HSu+sqCl62L7USsGSEj7jkzHsZQ/+5/qYV4f/vnz8T1nuQAC/byrVec8sKqeBISUzpyTNfUcPiznlbagYkT7k/iU7M+LkkoaevWpUT9feHf6kKmRkcuMzwzL8bbrlKOnXyTGTJiVN3q+Fx1Ntc86F9i2OJTZnwJ4gSHrnptqsj7n/wJ3LG+LH2FcFAM3pMCrrx01dLEGm69+46dFNEVGJ6S2PW2wiV+KZpAwGGIUeOT1FfkWX5rj/+7Ufk9i+swYriW71WMHi43S608tocEhMbjT/asvsad2R8jKep+j37ssPIkWOTlX8RjL//i999i9zzjc8QITODj8ulouUrF5ORo0fgzR98vNQVEZ/gbarOtS87jBw5aaT7WUkid//94V+Rm2+7BsvgVQgGF+5UzL10Orp08Wz8wXvbpkmu6lktjdNf8RuH1hpJGOl6ITIiYvU/Hv2NwlMIBcFl2iUT0KSp43mlzXOFx7rBOGywLzmGhBT3Q4osffFfT/wvuezy+XapIFjw6GHegkvwujc/nKNGxEV6Gqvz7EuOIWlU2MNh4WG3PvbfPylZMybZpYJgkZySgC67Yr703tubMl1htVObGiqtbiXLMEQnZHxFIuR7jzz7B4V3ZwicQVr6aD7hi7z7xsYl4AV+5G2uccz6OtGJGbdihH4HRkGaMXuqXSoINikjk9DM2VPJO69vWOhyx+3zttQ4ZonwqITM2xGiv/n3U/fKE6cMv8mvTiU2LhotvmwOee2l9ybJanQF776WePaRrKrvf/fHX1TBcti3CpzCmLEjrdTWY4eLljbVT/tHYD9g0EhLc0dj94Yvf/O28KtWi0Fmp8EXE8SE4H27Dq9oToj8P1RXF/wJcXySI3blcZlZfjVfBUXgJOISYlBMXDT5aMveK1Qp8kGCZPk7SSPi8I2f5nuSCJzIXV++GWGMk6MSTt9qFwWVmCbpK263O+LWO661SwRO4/YvrEGSIkXxurKLgkpMk3y7qsqRQmacy5obV6ComAgFbMLdJCzCdcP1N69wiYkkziUqOgJdteoyRVXJ9XZRUAkLC1t1w6dXqGLCmnPhdcNlRpLlZXZRUAGjsPqqVTmKkBnnwm3AdZ9aroSFqauIoZvp48R0c8eTNm40GHLFEZ35lNHJqWPsHRAFjoXLjCLLE+zToEIkaUrauFH2mcCp8HbNGJogwgRBj8GYr8YgEHQfjJHH69XtM4FTMUxo2gR7iaxIxYXHT9rFAqfC93wwDP2QfRpUMELHCwtO2WcCp8JlRjeM4/ZpUNG85t7C4yXWdpkC58L3eqCMHiEtTd6nX37+XZ1Prxc4E74M87q3PjQNg75gFwWV5uaWV9569X2+dIddInAaPJMtb90WvvbW23ZRUDGo8d+83C2Ub4kqcCZcz7zx6nrd69GeJuCGPlpf22i+9N+37MsCp/HIgy8gIpOzdRWjX7eLgkp9pPmEphmNTzx0wRIrAofw1KOvIlM3G3hd2UVBpb6iMBdL5MTf73tcRA0O5eEHnuPLupfXV455WfJ66zxqeMzpj7buvW723CzMc6AFzuHdNzeiB//6FDW8+k3elj3OmOBWV2coaszRvbsP3TLtkomYz7UQOAe+yc/vf/Ug99Jv0c4WO6L7kaO44zadKDh5d8qoJDIcd3d0Mu+9swn98y9PMWoYqz3Ne4qtmc/e5po9kVEjJq57+8Npc+ZPI3z2pCD4bHhvK/rlD//CEMb31lYW/scudgR8Rq07KiFife6WS7NmTCJ8YS5B8OFG4Qff+IMBbvm9dRWF/7aLHYG3ubpMDYs7u+mDHatTRo3Awjg4A65nfv79/8cwlr5bc67gJV7WulZSc+O0N9wRDaPefSN/RnpGKhk3fox9RRAMXnz2HfS7X/yDYoR/UXPu+G/tYkfB1+JRw2Njc9/IXyAaevBZ+/L7vIFTyuifasoLfmEXOwpwQne5wuLOcONgGhTPmjPNWtBNMPjwceX/PrkW/eHXD1Lge7UVBX+3LwWurlpCWxqr3nRHxGPwAnNOFp9Bcy+9BPOVGwWDx7myKvSjb//JfPWFdTpl5j21FYX/sC85Er7yq+qOLd+Sv3PlsaMn2ILFs4iQmcGltrYe/ex79xvPPfmGaZr0mxAp3GdfciTcOChhMbsO7jm66oO87WTO/CyJr9cjGDz41p/f+/q9+luvbdANE32hvqrwYfuSRYemOjohY67L7XopPMw1+u6vf0bhy2WImdEDC8/weeax1/mgoUFNc79H02+pryh0zKJ5F4Pv1SuHqy+5Xe6Me775GVXIzMDDZeYliCwf+efzhqEbx0yP/umamqID9mXHwzf8D8P4UcMwr73189ehL37lFsJn+QsGDp6txhMTnnz0FRMRvN0wPbfXlZcU25db6TyG4wulNUnflxX5x0mJCepXv/NZZcXVS0Rj72d44859YyP69z+e0+pq6xt13fhRXWXqEwhtDP7CZz2FL5TWKH9DUqVfJyXGyXz3PyEz/U8bmamp9+iG/qu6yjEPhKTMAFGJ41a7FdeDiiqnfPFrn1auv/FKaxkYQf/BZea153PRow++pDW3tNRqmvm9hqqCZ+zLF3DRzj1u1SWT/oIw9NWYuGh21z03qtfftAKFhbvtOwS9gedzv/rCOvTC029rTc3Nuqmb99dFGn8Mxb2e28NX7GWy/CtJIl+JjIwgn/viGvX6m69EsbGiu6Av8C6jtS+9j57+z+taUwvIjGbejwzjb3V1JbX2LaELdyqapK8osvxzSZGjwThIt9y+ioiMt77Bu6bXvgIy89hrummYDbpm/KM7eqbboz68sfOVWIlMvkcwDstZvgBd96ll0vwFM4VH2E241d6SvxO98XKeb0NuTGoM0/hdXYT50FAwCO2xDIQifQMa+3cQQ7HZS+eyVWuukLNz5gmZ6SZ+mXl77QfGlo07CVBjGMbvkG4+MSQMwgXkyNGJp25yuVw/1bza9KnTJ3pvuPlK14prlghntJvw7qL89R9xg6Dv2XlQkmX5qKZr99WFm893V8/0PB3A18W0Bv7YZ6lpXhMVFWUsumyWsnDJHDx/4SUoITHOvlHA4YM8WzftQh9t3WNu/fATBFZbxxiD+Tafqq9IzQvV8L9H+LqYVkoKuQNRtkp1u/Ciy+bgxZfNkRZmzxIy0w4uMzu27kVbNn3ikxndoFgiazVdf7KhcmzusJAZICZpwkyE2V0Kke5kiEXMmD2VLVg8U16ydB7KmCD2iA6kuKgUbd64E23fvFvf/fEBQjHyUEqfpQZ9pL6qqMf7xvfcMARgdTMZxmowEqsYQ1eD0ovInJjmXZwz17Vw8SzEd/Yabp4ht9Z7dh1C4N2hrR/u0kpPlamqotSYlL0FNuEdF3a/VVFxqNG+fdiRlDQ10kO1NW5V4jJzjW4Y0WPHjdIuX75Q5TIzbeZEa8no4QSPCnbtOIA+3rYP5edtt2QGoqx6jNE7Hs18203U14ezzFhRRFLpcsTYsrAw96c8Ld6M2IQY7+Ls2eCQziYLs2cPuzEJrmf4nJVtm3eDQfjEW1VR7XK51VJwHt4xTfPNhgia15deiD4ZhrbkyHFJpxZQipe73Mp1Xq8+S3Upxkyw8lOyMpUp08ajjMyxKN0hS3zz/tqNeR+h+MRYxD2Q3sDzgAsLShBfhPDwwUJ0+MBx/eC+YwQqBisu9SNvi/cNuC2vNxZ7uBAVn7kAE7rc5XJdr2vabEVVqFNlpr/gi9sVHC9BR7jMHCw09u06hA0uM6q6y+v1rmWU5DVUF2y3bxe0IzwpLUVB0kqXolzLGLvSMGkEyIk+7ZKJrvGZY9DEyRlowuRxvTYWfBbwiYJT6PIVC619tIMNX8OoCPTM0cPF1iJ3e3cf9hYVnFQIkTyEoPdB1+Zi2cztKLuot/SjYWgLjyawRlcSTC8FA7EIPOZJpm5GcGMxLmOMMWP2ZPc4aPRTp2WijIljB8VL9Pe98Zl+mzd+bCn2O770KfT1737evqNz/JVz+EABGINTaB9UTmnJWVk3TMny7mRy0NuifYQJ3qIiNXd4e3i9wx6TWAlCuVh1u+aAgb2krzKzKf9jNAkUxYiUBLukb5w6eRadPX0OzV84wy7pHC5vBdxpAJnxN+iSotMgM4YkKVKTJEn7NI/3E4bQFqxDwx6SYwYDD0+vh+gqGyLzS2VFntPi8YxnFJG4+BhtalamnDkpnXAnI31cKkpKTriowfj7n59Azz7uW5aMGwZuIPgYx0APhHMdU1FehYpPlKLjR4rRsWPF5uH9BWZlRbWKCaJul7uYUnOn16N/TBne3FA9GhzOgelWHDDD0BExyWnpyJBnMsQmy4p0qaqol3i8nnReiWFhLh0q0kwcEU/Gpo1SE5LiUEJCDHj0cSgR/o1MHWF59z01IDxM375pN3r/3U3og/e3I11v+xznzr8E/eS3X0UVZVWoHCqFZwtVV9Zar6dLy7Xys5WspqZO0ry6LBGiQ7hWbOjGJ5pmfMIIOmAgY09zRUmZ/XGCfiY+PjNVJ+ZMwshkWZUuVWRldk9k5tc//hvavfOQZRimgEGZMXsKmj5jouVVXmwwkzfUwwcL0P69R9GhfcfR/j1HrUhz5eoc9KVv3NotmfE3aN3Qdxma+RHF9IhCpT3V1QWl9p8R9Ds5ckzSmSyI6WcyimdERIYthrqYZhhGOL8KjhxNGBFnpIxMlFLHjJS43CSNSEDJICNcdh76+zPo4+37rE8KZNLU8WjVdTnoSjAS3R0X484BlxlObXU9OgfyUg5yU1NVC6+VqPTUWbPsbKUJ5xJ4/taEY1mWmxVFPtLi9W5GlO2HqGhPfaR5YDATVAbVMHRIWpo7shGlS4ykIgmnMoZSMcKjwyLCMgjGYw3TGAGeeLx9dyu8cqNjozQMEIKlmNgo0x3mYrIsqXwn9OqKamiotai5qQWebfcWdHSFqdXwuWf/f3tfAh5HdaV7b1X1IlmWZMvybrxIGBsM2MaAwQ422IBDWBMyYRImE/KyTzLDTEKGeZO8SSYhM3mThCxMyDLJZF4yk4UsEJxgBwlkMOCwmxgwRrYl77Yk25Jlq5eqe99/blW1Wq1uqSW11Ivu/331VdWt6u7quuee7Z5zLqybgz2nz+zCxw5iYB9hgrdACBzoapsNU218TPwVNtZYFTUt9SazpjNDzsuWZpIBDZMFgwFZMbFcVEycYJRPmIAWybpPnZbYRHd3jxGPxQcdH/1ohrGj+O4DRDMOs490d8xr1jRTGCAlwzH5FMnEdM7kdPTRPFijs9GH89DRM+NxUdtzpmeKd3tm4GbTMFm4LMgmTpzIwLjBYoRat6Cz85QRjcQyTqyCR50IBMw2JvmhWDy+D3S6F993QDBxhEt+xJLGkUJQGgYl/EIBWRuGMGcLwS06B6MOq871ITh1aIU65nIpY0Y97jpPnQ8AfN+/ByzRyGzjOa3FlRaIZriwboDg+KbXlBYY2FAw2PMYrCZo52IQ0MARE0K+3WSaXkoJFBRh25F5tinnMcFWGYZxt3cpEyQI5xlQyutQBra6TUY3aKPdPYa9AsXAtJjS8uOCRYrJs1A0giF7wIys2f+65GwHLIkfSUf+EuqhEiZpgM5lx/AWpnlnERy3oMNb8JkWMIxWGB/NUAZaRNBq6T68K9HpGsUBFTkXtw+D1NPTgGRHhOS3cC7uR9+fhNb2DRDFj2GIukpGKqRs76xw5pRi3klpQ0U2zeOOmCc5r0f/zkXfz4MiMA8KAfbMVTKJBzC2H+d12KdXECQ77XDjOkM63wADrejsmLO41KzCkhMMVbUL3oeO/k91wo1ljohFTGY9gX+avpY4CEEa8lnusD9JUx6U0oxwJmYS0YB45kEbqMdLqla3StlNAoNL1oL2Zs5lK36rhRlGC4vFWvTkYQHAzZlYiaO1GPTXYr8io1BgbCcUiBu4YEtAH79RLZJdCcHQzRl/OMEsUkE0w+U2CJEtOGvqrLC3aUGRf5CrSJpinsCYJTcRxuhcxfjVGOaJ0DZYkFD8oPxJ1ow+bsW1I1yIWsHNBTAHV2DcL/Vu7Qd8Zys+s74PzXB5R2fbnoJYEClXKDHB4FoLYN71dIYB/mBX+55bKLzNktYj+LN9O5zLJ0FA/wdH63C8HvsVIBoIBrYVBLBFSqOJZv6rqloqWDAIE1MoDUNKPhf31IOpQNuQJEBc7RLapGdpgPBAfIK3SkPgXDR3V+BcM49RwBpr4uSDKwwuN4BZrwGzJqEAed3LuLFBSLB/onYf6Oet3LZvIGFeWbPgJZ8ZgGaaQDNXqkAJx3oETYuoPQEwAfQrhQWuBY2sg3KwEj9mgxa24ksbfZrR8wq5h4p0jIp6bmAcuoobtH6X8aN/sfcUAFiB6Cfqo2aluIH5Y+y2SNNoocKU5DaKsuhqKHhrcPNa3Ndn3HPD3IT778HnrlPf5wHj+mkRtG4iz0EyzeBCc6lZDSUlGPpYCz5gNXS2vfmyIgYZ+TG0g5u9KyT9/62rffenvVPlZ/QJBkSwgTqerAR8pgmE1si42UTf5d2eABGsEbPJHK3vQ7CwOOgc7W74i0+wRKxEtH0IVk9sZwuV+8DFWhDvGvThau6+XzBj3gQGvaWr3G5KFsJ0v2HIZ7xTQP6ks33OHfS+q2rqbkY/uJqfD1gNnR27mzyaeRj9T8xDIc7tGcm+4oGYDJ6nEdZkQzqa0egPVXYnCwUMfX4S7c1ZK2BJVmSq8oBdo5s30leYV09e8Flp8MQ6KPitX3ZVOH9B352WZkrMaighwdDXWvDhWw3uGe6Zsv9e/O2Po6N7uGG8t7OtOePCxV59KNIM14D5bEDTIiJKfGsTvnizYE5Td0frTvfuzPBNXFsYIG6l7cDEJSHCcU6ajgs8K01mKi0HHdPKDBA+tFNT8ubxPNGpSiNIR/UD+o4EQjX6D8yWBIFoDPOypoHzRtZYlTX7TyjGItkXwfQTi9j00fw8+FaDe0afPfB99NP7cLKzs303NMPMSKYZfNNapVx4NIPn3mI4rKGYSmPnFF4EomFYYP6kOLE6vGxi+IrxY+yqiCBSxsjyJpetp0i1ork5e5eta0WS8oDvWYfvWY3vIWuCAgw2Yz+o+08xf8a+i2ecCnr4CujhLvdKeprBQ5eU1VAygiGtteDDsxq8M1Y1ZcGd0OrO6+qY89GhdKTrkjLBmDgGPSPtcBEIm7THJhDPluFmH3r5HTRQyOJQflFoS0prwm95vlFp41qLxIABEdJv7Mb9LdB2Whwz3lJKuRQVNXMXGcx/z3K9xzBIAMNygxYeizcMdT4Hg/kBbrDfJWt1aTU/H57V4J3RvZ8Dg6/q6tj9t15TVnC14IAq54DTfjSTrXJRLMhEy2A05O7x5mxyT8u+8oDvvRb9BCuSV5DygP0msiJDLLR1qEmnlVMW/BtZI13Hd9/nNQ1MMyVkNZSIYEhvLfjAAEyyGlyQC2Ck2clqEAhzrRSuoCDtHwKHCL2JG3KL6RgNI9b0U7QsELoXTUEDr1fLQpsXUUUuKk/LMjgGm2jhttNcyBPj/nvEs6/Dc0MQsOn+e8R/2Wxzp2mkgi9df6fV/Dz0tRpc5IJmkpUL/McNymKEoAAz20Q0wwynKZelDXINen7TCSj667V+lcsU5ynWL1m+Li3uzrX16ysPeI5rwcaUFYnmnXinm8gyY7bdNHKaXwMro6/iOBDNlJLVUBKCYUBrwUeK1TAaqKytqwfzXp+wKFwNSWm6pB3mgsGlgpiVH39tMF5PflnS0jAySWiQpuZGVJE7w/fJugO2VTDZbDm8xbLCLSNleEOBzxzxHBQ1pAQqHpDmXxrwfI1jwRwH1Px8pFgNo4GBlAvJeKNjxBvG0hpUZUkss54bhufukaSIQNtPnS9zAy3QRnNlKrSbFBFcaR6N+TJ6T9KmcilJYwuMGM/QMFpjKxVZ0UyJWA0lIRgqp9Q9qojXA/7UdJiPEbQlNAYwwo2d7Xs+4Z2OCUirMbm5AUwZxOz5xhnbgedqwHGOtJqBkX6gk5tKmfqDDnQh7JaRRlSpZ1A1kLxBrdwplAjkDup8uFMqpyz4Dd5DkuYnXcuL8eRclaaujt13eMdjgsGUCxGwGkaST5OsSHABmjBAD+TmSVUkyM/vBkjkRZFws5TF+kzWeD4sq8qaunsxfhI0wyVXEWuSy17axfjp6tjzQe+saFESgiEVGPSPU6gitL3PeU0FAfKDSuFQkTgvmmbkftCRwncN+CGAaKpTDEK5qejcyzTv6xpwQwBJiFh2S+oAHWwCNlN0Vz6BQa8szrEWBINBuUyktR4MfB36wlUuvIl39S77KRe9iVyMlAHqT8X0yYpUCkFvIpdi+mRFKoVgt+96zEcy52Dzd4U4F1OoNJMLaMGQN3iRE4ag/Il1KoTOj5yg8FjJNhdC4pTS3Lisp5pETGROGsLzHoVwi3IJC4TLKVLyGITIdmi/jwtmPlTosf3FMsjVJKuwbwaNXC0ZXw5NOkzWl+T8DDqhHH3iWT44Iw1bCXKl+bdKabRYhmjhjtGS7yi3YlQeUqEFQ5GhOARDCtJl7KrEqaQM247ZWwuCuSae1bhKcPFWg8llICWBgX0YgqELz48mPjmhnVIUCuPNvnaq3FRKW2XNhVJqpJAGeca8mDSJXHjneHeSqv1V4ng2BIWF/Z8gIDbhekEoFwRyYfXmezAvmZRyhJKTSYtrDQotGIoMRSkYUtB3IFHiFF/ZfyCNlRY+iHUjRGPnRLG1HwPyIqo4N+oT/myX0WUsNaI0XApfJHfVGJYaGctBTn0bY/H6nCdyqei8A6tx0C+RK6FcjJWgGETRMQzZcKJtDgRB8UbwaMFQZCgFwZCKsTa9M82HKEFgsM25mA9R/2kEma40EXqi0mnOBaPL6SBPCTHGM49SItcg6GXOA5Z8yQ1zLg7XaC6hBUORoRQFQyrSTdYpBirZpuFM1k2atGCJMNl6fAe+rzcuHJsa1GMRQZWKYZUaIcFBFscQS40MdZBnSuSife/cS28ilyfYlAstX0mJmd05A5d8yYTKmgUrsFuP/zZqykMhQwuGIsN4EAypSBfepxgmMXZDbk4N7+ubXeyGRdJkJT6nBMtYxIWPFEMqNUJCA8wZBJ8oNZIcUZU6yDMlcrnRWr2JlJm+uxjKmAxkheI/NApuNyQrF4WoPOQTWjAUGcajYEhF+oQg1i6YPAmmWYP2SR5TayiGjNvhIEut3sG1E9Dqy2CNgOezMzivxkHAvUz5Hcyv0jnqiVz5hLLQ4nZvDgWFjDLZhXd2Eu+sGu2Vbi6Bm4hYDMrDaKKUBcPAK1VpFC1oxSgM3pNg/t3Q8JRfF8dBML4w9AHlgsFA78Z5hPzO6v4SArlNjJhZIbiokIKFJZdhvIcKvAVsXpl0AKIg4r0fBy/EoWNsPe5VAt3LoRlL2irwztTGhKyumHFYTZ6XCkwRrSD6AD2ojdrwfgToJgZFK6ZuUuAW3RcwPFeeRslBWwwlAncit2+xNjC4jJPTbjw8TRTKdbivj39Y3V/wboHcJnKlan8kWIZbaoT2hpDNY11qZKjoM08lVbHCevo/meap+pTv4Co7m9ZoH7cWhHYlFRnGg2AgxhWRPWu5NCAIPP/wsOPC05UpJm2Q6tW7axzkYyIxeQ7BYJKYlsucU5LrFHNKk8gVZU5ztoxqqIOcBPFQSo2gbyA0uDsBnaNSI0OFP6eAZ6Usapp8XkQ0g2d1S7QMcfI53TwV9u6cwzCr4BYTtGAoMpSiYOgbUeIuCANGNDpx4Ukx6CoeHhaFeyH7evbZYCiJXIrxUyin6+tXCxyxgGjO1bxIrgd5tqVG6L9B4NEysX5UVc7+m08zeKfr8Dvr0ysPucuFSTc5jd8rIit0aNCCochQEoIhlTnnMS58MKEkJN+UjsHQ54abyMVM1jyWWvVYD/JsS430WkMkNORu3xpKW9bCpxlVirp/P+F8TNen7u+uVFaUot98WaG5hBYMRYbiFAzp3TmkcYGB5q3IXjr4LgmBAY/BTr5mcklEcekQmMBpxgyTM1mL/5E+kSsPmc2DobAGeZbzJ6rUCDuKaz2S83JYI1NxDTv+Oj7XyJjYlLrMaf7QS99gOsqiwJO6ik4OrdCxhBYMRYZiEQzpJoDRnOPFRkaG7BO5eDuEFzGqCjx7Nf7DGRw/b3DZILn5sC6Ilgv42cX2eiaNa9BwMWiGIoiO4Z13oh9A9rwWx1V0dz+BnOvM6pEgnUUM+NZNMZTM0IKhyFCogiHd+gwYvWO62EgqRiORi74zwPA/+yTb5Xf9hcFQqINcKQ8p612jWU3w0rvkcWdTKoN3I9SyKzWCc3fuxnPh+aVGxjyiigTFKWM1hJYKpkDLKJbvyA20YCgyFIpgSLfoivIZY1CPVVJZgkkwSc9CjGKA6JnRSeRSVodjQctlbiitm2xXUMtZFsog7xvp46537dNMrlZ0G26pEaIJKAzNQyk1MlyknTgfIPw6H9CCociQL8HQJ847oSmP8mIj0LQmdZn1g67IlSbePl9Le/rMD4fr8IxUa4dcT4r5gRHlZI3noSJfg9ynGXRQYr1rn2bQl/1KmYwFhlpqxIuoSqzrnG7xppHCn9cCHa/BsxDNLPFougGXG/NhhWrBUGQYK8GQKUHI12oMhzWcOLFnh3f7MFGcK3INBb67BP9nHZgN5WSouRZsGd0lucZYDXKfZvBfE+td+zSDPttciG62VGQ37wSQdaFoUSkkKr8E9zfnooBgn7FHViiV70hSwrgFmhllgaoFQ5FhtARDpgQhvETlB8V5Q1fHnufVzUNAxkSuVA1NTSKSu6d3oA01kavwkS56xY3OwvGoxcOP1iB3XXkpGekezeB/bS4El0hOAQs2ueS466YiRYaEiHJXuSvM5ViRSTevNdpuWy0Yigy5EgwJP6dw48LJz0kETZETuNwohdGQzYTYgD5d8v2PQbJT0SJd9EpSPkeuwnhzNchV7oaIekleyTQDQSBlYyFOoo4l6P1kVWqEIqr8SXHP9anGhGG0BFmgebD+Tu+iy22ghxYMRYZhCwYwocoz1to+iVwuBoy1TpfIpYgdhE8CwHONELUnyiMogs9DIlexwxfWqX2Ed74NxNyIw2HFww93kGd8HlgERIM4LLr4/HyCLKyhlhpRY8mzODKNpXST+mjeieMGfH/jcKxQLRiKDFkLhrTaqJ+dyRoS2mj5aTvVPAZB1mMPTafXPFZaDoi1kBO5Sg2ZNXRYdZJtzlZDz3qQZ6SZ/NaVGi8gl1G2pUa8MdinjIofUVVVe2hJahgwxq9yV0ouGsO8rGmwPtSCociQWTD09V+DKNyqooztABE9azhsLzPlcSmMGaTx959Qy7wilwwZzYU8wTteoDTOQNI6FCnzQNwwN6Xz6Wce5PmZ89AYHoZTagR92Aoh73AmZ+Gec4Rk6G9fQcws7LVgKDIkC4ZExAvj14EYqF5LGciiDbe1S8bB6GUFhMN895OkaPRP5DLoOF1tGo2Cx0BRQMTU/cix5EHeGyXFrvWVB1xKREmN9wVqihfZlxoBrzgC+qC5oXLwkqm4B0YJ2457iLdsJPdgZbd1P92tBUMeoVwGxmk3ooFC5XpRDeadWDAFnUdawYch+eneIDZajAjj2/2vGNincLAfQoE6/g3JxEFDsleEYbxeaityjXekoxkM7+kY5JdicF8KkjgXTVQ+4hToxkE7aIUHQRdhEAoUBwgDQzxvOebT0EJJmWAUo0+7oJjQrt1FpYUJU+dPCzjsEmGwJUwY0zmXC0ExUyQzarGfDp4S8m4lEE8RoJv9OGzAtYNuM85AO9xUk+cuKLcDMIRsj4etI8XgWSgIwUDmX5yx2QYGLTF2aHXT8NZnh8qC5xiMz4zF49OEI9xJpxQEQwF74sSKBDOfOn0KE8Lhu9/cFwwELFj8TFiWJUzDkKdPn7Zs2zG9W/vADJinLdNqk1Lsi0bie/BiWiFEjoCRHAATOWIbzgGtJRYOiGZsLmiwzkY/0X4W0Uy4LFSHvjsrFgPNiAw0EwTNVLo0YzsODwUDBmjMkEKyUCgoYnFb0QtdP9XVbeG7XL91CohmAqZFAmRfpCe6G797AM9yEM9yBPsDmmYKB+RiNILmEsGM6UwKKI98Glj47HA4XC+FmB2P29PA5d3lXD1UTa6MWoap6KCsPCwrqybweCxuRHpiXEhhnemO8FVrLmK2bcuDB45SEUmFE8e7ZM8ZqubhoqP9RB86NAweNy2rAzTWEotGdztSHsbNB/FDR0zODoiYsyPfrsnEw48F/M7BWFzKDXlOOBxaHYvZi/wBXDVpYs/kydVi2rQac9rM2vDUaTWMtslTqtmUKZNY9eRK9T0zZk5V+5HAsQU7dswV3O1tJ9nx9hOsHdvx9pPs8MFj7MihYz1Hj3WIk8e7zFNdp9XzmZZ5Gtsr0Z7YH0FUb6Dp+ZAR3qk1x9EDaf0RJ7aEM7mCaCYYCq10hLPYiTsT6HpVdUXP5JpJAnTCp8+sLc9EM1OnTkH/jWwl22xo5tix4+LE8c5emoHwMA3zdTCAbVJwWKj8+bAZ3KFpZvTgJeAtxeFSK2StgKC+CAxduYmgOMQnT65ypk6v5bPnTAvNmDVV0QrRzDQolTU4rgHdjAZOnuxix450sKNH2hXNHDvaoejm0MGjsWNHjzsdbcetnp6oEk6BYKANysWzdtR+iRl8O45f7mrb3ay+aAwwaoJBDWjZs9ZgxqqAFVjGDLk8HrNhkjE266zpZxYtXhA874KFVt3ZZ7G6+rnQ9GvU5woV+/cdZnve3Mea32xlr76yK77r9T02OrOMrsFq2e84YjuY1QvQRrZ2ThRbdXjiMJAULgwBvMTk5kWxeGwGXZo1Z/qZc85dYC25YGGwWGjm8KFjrHlXq6KbHdvfiO/a2WKjzaWZQPCwI50XQDMvS4M9VTjlsYsLfgIhrL1V5eXhK2J2/BxSGsogAObXz3WWXFAfnl9/Fjv3vHo2b8Fs0vy9TxYmYGmwlj0H2K6de9nu5v3Ea6LNb+w1SGCYphEJBoOvRWORbY4jnxQBq2G03FI5FQyqeiizrg+GAzfYcfsyNFkLF82PXbBsUcjvnAULz2KhILn+ix/QCtme5lb2+o5m1YnbX9wZadmzP2ygA8HUtoCpPTgWqfnFDFVo0GEbQqHALbZjvwVNJmgmXqo0QwO/GYKCaGZv8z62/aXXo3ua95GW6MCyeAIW9IPMZJvGUjssLrhRYgaXG8omhG6JRmJLysrCzsWXX2ics3iBWX/2XLZw8fyceBUKCWRpvLFzj1IyXt3xpvPiH191urpOBcNl4dciPZHfshwv3DUyweDGdG/gFn9r0AzcGI3Fpk+pnRxdc9UloZWrl7FLLruw4CV0rkHm4jNPvsSeffplsbXpebuzE50XDrX2RCIPcCE3dx4/q2lcT3B7VoFpsBsCgeCNGNiza0Aza0EzF192Abts9fJxRzOkYDyz9UW2betL7KknXoidON4ZDIWDB+Lx2G8dwR4e79aEVzngVigPG4RgVwvhhBedd3Z81RXLwWeWs/MvXOjdOb5AysXToJtnnnwxBovU4tyImYbxdDQa/43F+IMjiaIchmBYY1VN3rfWCgbeL6W8BSa/dfElGNBXXGRd9pZlbM5ZyvLX8EAmITqObX3iBfvV7W9wzvhpR9o/YUL+9ETbnq3ebSWPqpq6tdxkf2GY5rsMycLLLl7CVq+5yKSBTSa+Ri9IK3yy6Tm27amX7VdefA0kw0/bwvkZF+LH44dmwGdqDlxvhawPOLb91qpJVfE1V0J5WOkqDxMr1RSThgeyREm5eO6ZV9hjjz4TO3my0wqYgaaYbd/fWR7fOFTFInvBQNbBafMjkAOfEVJMuuiS8+2bbr06uGb9pSVj5o82qPP+8Psn2W8eeDT62p92hayAtdu241/sbJvzk5K0InyaCVh32nFn7vJLlsSvv/mqwLprLh93VsFw4dPMxgcfi29/8fUAsCcej/9L5wQoFyVoRXjWwQeCwcBdUDyr1m9Yxa6/ZZ1J3geN7LH9xdfYw79+TPzhkScdx3ZOxWP2t+KG/Z1so+QGFQxeyYFPmQHzU2HYcu9+343Bm95xdcFP/BU6aDL7Fz/5nXjoV486Ttzuitv2Fzvb59xXEgLCdTHeDZXlTgiF8nfdfn3gnX9+naaZEYL8zD/78cPslz97JK4Gezz+hc4JzndKQUCo6qg88A8GYx+tnVoj3vO+G0M33XqNViBGiGgsxh79/Vb2g2//PHLk0DHTYeynps3+cTA30wCCYY1VWbOfJPc9EyaUTXz/R94ZuOW2Ddo6yDHIvwzhwH54/8/jsah9JBqPfbqrfc/PvMtFBpj/tftvD1iBr5aXl1X8r4++M6gHd+5BNPO7BxvZf3z7gdiZSM9JOx7/+6K1OmnO6bT5Kcuy7p41e5r1sTtvD625auWIQ4s1+mNL4x/Zt7/+42jrnoOGkPKrLG5/OVO+RFrBQNFFZaGyX5uWefZ7P/B26/b336wFwiiDBvv/+8Gv2f/854MON42nnB77PcVUgoNix4Nm2S8M01j6lx98R0DTzOiDaIYsiB999wGHceOFuOh5VzFFwFHpEcviPy8vK5935913BN96/VotEMYAjzy8hX3r334UOXnyVIdw4relm7fqJxiqptR9wDT4t1euWs4/c8/HrdFK9tBID4ph/qe776WY91jcjt92qn3vRu9SwWJiTf3tGODfX3HJ+ebnv3xnQNPM2ILyJT5719diO7bvcmxHfuhURzOsh8JGZc2CjxgG//errrlc/O/P/5WlJ5PHFjR39ZUvfd/Z+GAjlw77QmrB0T7lIaqn1X/V4Pyef/jcx6y/+fs7jPJylYujMYaonlTJbrzlahOad/Dl5169LRiadDzac+JZ73LBAQP8bsvk3/q7f/hg4K7PfMjUNDP2mDhxArvxHevNioqywLPPvHxzqKy6K3rmBC0mVZComlr/DSifn//sPX9tfOzO241QSFuWY41AwGJrrrrUqKs/iz/x+LOrg+XVsyOnz9/EWKug6wnBQJ0VtKyPf/Xb/2iu37Daa9XIB6BJseUrzmPTZ07lW5ue3VCowmHStPp7oEh87ktfu8u4/parvFaNfGHJheewBRjoj/3hmWsKlWaqp5/95aBp/fXXv/t/zCuvphxYjXxift0cdtElS4zNG59YGp7QPbOnu+NhaleCoXLKgttMzr9MnbVy1TJq0igALFw0PyEcysqrH4ucObHPu5R3VNbWbWCCffdf7v00v+qay71WjXyDBvpZ82bxLY3bNoRCVU9He07u8S7lHS7NyPu/dv9nDM1nCgfTZ9SypcvPNTY+2LgsWFa9C9bmDpPCUXmAPXHHB28N3XTr1d6tGoUCEg77Wg6x1r2Hrz7T3X6v15xnrLEmVp555t1/eWPZbe+9wWvTKBTUnT2XdZ7slm+8tuf6ntNLvua7B/IL0Ex1z5Z3v/fGilv//K1em0ahgIoJcsPgf3rpjXVnJk/4hhGTkQ9UTCgPvu8jt3q3aBQa/ubTd3Apxcyqmrqbvaa8gkJSraA58Y4Pv9Nr0Sg0fOjjf25wzqqpr7ymvIKewzSNGk0zhQuKJAyHwxMoKdUIhcPvufW2twZ0aGHhgqJ81m1YZZiW9XavKa8IhUPvuunWawM6kqRwQX1DNGMw40avKa+wLOtt177tCk0zBQySATe+Y10QwuE6Q9jOwrMXJS+IplGIWLh4AQ8GzOXeaV7BmbF47vyZ3plGoYJoJhQKFkSFOcsKnDt3/izvTKNQQX0kmVxsCC5NwGvWKFRYpkFrCaZdSWysQQsr6RDDwgfRDMZ38nKUGhoDwnYcxrnhGMGAtZuSqjQKG617D6HT7D95p3mFydnrrXsTS9xqFCiIZpyYKIh1HWw7/hpVjdUobBDNMCl3GT2no7956JePxrx2jQIEFcL6/cOPx23b/p3XlFf0RKIP/fZXDTFa6lKjMKGKpz2yNWo78c1eU15h2+Lnmzc+4VAZD43CBNHMQ7/8g93TE/m1QaVYDx88xql+hkZh4ic/fJDZcedUZ7lTGMX14s6Puk51x3/1801eg0ah4aEHGlj3mTPxIA//h9eUV3S2zXqQGbzt+9/+udeiUWj40Xd+yahqb1eF8yMzfqazO1hWferpJ1+4eu26lcakmirvNo1CwLPPbGf3fPY+Ae38PdHDe3d4zXlFNNoZCZZVHXr26e03XP6Wi4zaqZO9KxqFAFrZ6+47/1XYNvvAifY3nvea84xWEQhM3P7ajjdvnzVnBj/7HB3wUkigRX6+9E/fhmAQ7yY+o2adqa5KRWXtis2/e6LuLVdebFC9Ho38gxbbuPPDX3AcJr/a2dZ8n9dcEADNvDyhonZhw6anFi+7eIk5Ta+1UBD40/ZdoJl/jkXt+Ne62pq/5jUXBCgLu6yixtrSsO0KKt1BWdoa+YfHZ2zB2Vd8PpMIRzp96rwHzGDH0oceePTsJRcuNGbNme5d0cgHyLX3qY9/SdpC3Nd5tPmTXnNB4Uz3eb8Nhk8u+t1Djy06e9F8Y+48HY6YT1C9/b/76BftM5HI/YVKM5HTxx8vnzhFNm56ak3t1Bq+6Nw674pGPvDYH55md338X+y4Y3/z5NHmu7zm5OqqraKn+/xfhSd0nbXxwceWnT7dIy6+9ELKkvaua4wFqBzuF/7xm84Pv/MLJhz5hc723Xd7lwoQreJMd8evghMmVWx++IlVXZ3d4tLLlmqaGWOoEsr3fM/55lf+y3Ac8X8723Z/yrtUkOjp7tgSKpt06OknXrz29Veb2aWrlhrhsI6qHUtQEMA9n73P+f59PxPxuP0J0MyXvEsKaUcwlV6wAuaPZs6ZVvY3d90RfMvai70rGqMJtYDGV/4r2nnyVIdjx95VTAu/V02ev94KBf97xszayjv//v1hTTNjA9L47v3XH0Y7Ok6ctKPx2zuP723wLhU8Kmvr6sPBwC8M0zz/g391m/XO91ynF3caZVAkIQWNfO9bP431RCIH4nHnHZ1tb77sXU4go2pHi3JbjvNlHL7vgqWLnY//3V8ELlx+rntRI6egCeb7vvpf0V079xqwEr4cNEJfbmt7rdu7XDQgmgkI5/NSsI+cv3SR/YlPvjeoaWZ0QDTz7/f+v/iu1/Yw25H/zm3785mWaSxs9C4hXFVdWfHhT/x5cMONa7SAyDFIIDyysQkC4X+ibe0nbDtmf7Grwvl6pvXCB7X5aZnPUCj8FXzR2xYvqYu//8N/Fliz7lLvqsZw4S/S/eMf/DrasudAwDCs/46IyKfPtLUe8W4pWpAmaHLja5KJt9XVz42/70O3htZds0ov2zhC0OBu/MNT7Af3/zzashc0w63/toX9z11tuwsiiW0kqKqaW80s65NmwPzbCeXlgXf9xduCZEFUV+tAmJHAXx/8h9/7ZbTrZLd0HPGdbJSIrJ3BarAb7G+Z5B+snFQpbnr7+tDbbrqSzVsw27tDIxtQKOHG3zSK3/92ix2JReNO3PlWnNvfKAWBkAqiGc75JwzOP1QxYYJBBbo23LBGlRLXyB5EM49sfII9/KtH45FYLCaE+K4RZ/cW05rg2UIJiID5Psu0PiOkmLTy8mXOjbeuD6xau0JbEVmCFIitW56DQHjM3tr0PAeXPxm37a/zuHNftlblkGcJyV1gRJ3bQmXBD8WisfPPPmde9IorLwmtXL2ULblgkdYKU0CWwYvP7mDPPfMKa9j8VOzIobZgKBx6sqcn9r1TFfFfZjLlSgm05kdMRm8LhoIfBs2smDt/Vmzt+pXBy1YtY+Rq0jTTF0Qz2194nW3b+hJr2PR0/MjhY4FwOLQtEo18VyU5jgOaUes3TNm3IWgF3g1BeGsoHGSXrlpmrHrLReZlq5ezqTo8ug862k+wZ0AvTz3xgvP0Ey/IWCQqmWFshuL5g84Ke9NQaWbIgiEZkyYtWCIMfmt4Qvj6aCSyLBAIyMtXL5eXrl5mXf6W5WzGzKneneMLVHtq65bnaWA7Lz23gwmoPoFQ4NmeM5GNljR+UoqaXrYgK4JJeVt5Wdn1YHQXg2bExZdcwFZfdfG4p5lnoTw88dgfQTOvctuxqTb+c2d6ejYyzn9WCu6i4YIUi6iMXG+ZgetMg18fi8cnzZ4zXSkXK1dDubho8bizJkh5ePXlXeyZp15ijz/6THRfy6FQwLK6JJd/oNI5jmVt7D68q927fcgYkWBIhjIBg4H1lmleYxrGDXjw6bNmT4usXLUsPL/+LLZ4ST2rP/ssVlYe9j6Rf5CJbjuCnX/h8CsTkw/vzZ172a6de7C1kMSOnTjeGQyXhVsj0ehDUspHQiy0tRgnk0cbNOAjsmdt0AreaJnGdZFobNb0GVOiq65YESpUmskFiGb2NLeyN15vYW++sZc9teWFaHvbcRiSwYNRO/47x3EeDvOyJk0z6VFZs2AFdutDZaEb49HYpaZpyguWLxbnnlcfOHvRfFYHmqmrnztsS5Qm9gmXXHah2ucb5Bpq3XuANb/Zyna+uht8Zm/85Rde4/F43AgGA9ujkfhvheSbTh1v3uZ9ZMTImWBIBU1aG9JaHwpb603TOr+nJ7KA2qdNr4ksXLzAWnjOfIvWgVgABjCW8xT79x1mmx7eojY6/t///DF2863XeFczI7Vz9ry5L/7qn95knZ2nAtxgAtrdbiduvxCL243MtBs6j7a2eB/VyBJV0+bOk7a5IRwKXG2Y1lJYFPOkYMZIaObkya6cT2AO5TupomgL6OZ10EzzzhZ75869TgeEgKKZULhFCOf5SCT2OLecTZpmhg7lpmSxDVLIVaGy4KXSFufFbbvSMLicfdaM2KJz60KLzqtT6wzUL5yblUX63W/9D/vB/b9Q7qqrrlnF3nr9FUpJGQscO9LBdkNp2A26IYVz52u7o60tB4PCkdwMmKdNbrwWi8X+KBl7isdBM6MUiTZqgqEf5s4NV3abS3C0gnN2XigcXhmPxZdQbX/qxEmTq6NTp09hM2fVWug8a/KUajZ1Wg0JEnTQFDZ16pRhawDkf3v090+yTRufYK/BSkjGshXnsW/+xz+x4+0n2eEDx9jRox3onHbW0dHJjhw8ah8+1Ga3t52g71BqK3UOTLaXe85En+OGhGphvtzZNnMHY1ts9YUauQNopupMcBGTYoWU7Lzy8vBlMTu+xIk7EwaimSlTJrEZs6cqmvnLP/ukSgAjTXLp8kVqgC9ctCBrK4RM9p2gGSo1sYO2V95gi8+rZ/9679+zY8faFc20g76OEd0cPc7ajrbbhw622YqGkmgmaAV2nDkTeQa0/yrjxvOd5bGd42OuYOxRXjt3uimNFYY0FllB89JAIHBhJBKpIyWDrk+aXBWbNoN4S22Q+Evt1BpWUzuJzYTQqMX5PZ+5j734/Kvqu3yQQLnuxrXsupuvZHPOmuG1Zg+iI2L6bdh8HtN2rIO1t4HvHDoaP3KoXZKnge71lYZYPPaKHXf+KLncERDmy2Ppgh47wZAByufMWD2XbDbDJpmcBcY71zCN2RAaM23bSVT1q5hY3mOZAQcCwgoGAqJq0sQYN7lpmWagunqiEy4rk4GAVQamYdoxm+3Zc0Ae2H9Y9pzpMcBY0gL32/G4nVgAB+fHOedHIaFbbcduwTMdZYZsYY48YDJz53ieHygUKMtCWIs4k9OZ4PMGopnU/iWAObNQKCSqJ00UEC4OBEpg0qRKxTQ6u7qd4+2d8Y62DuvkiVNGNBrtRztBfCcsw7Q0E7fjBzjjB4lmJONHuGHv1JZAIWCNVVHTUm8yazr6Zh76dDbIYFrZhPKFpsFnxePO9GgkmtWMtmVZsrK6gk2fMYWHy8LQW4QAzcUiPVHeefKUKYR0JHDyxMmQA03f+1gCsGyOW6Z1TEi5r+d0zx7Q70HQ5AHiMQ4XB7orWEu+lYa8C4bBscaqmtYym9nWPMH4bMMQakBC+ocxAHsLOnFZIyWvUIeMz4CUvRR/rlpdGxD8Xwwufi8M50Dn0Xlg+lrzL3700gx4+k0YdHd6FwYAfx1juRz3zvUaMkJyfrfJxFOaZkoPNTULL45z+zrwkM95TZkh5WGo97/F3g8174bQSUz4KsVAMMXgheQRIxA/UixKQhEIhqGjcsqCxzF6qQMEBvr73daBIG30It3fDHWyBQyiFW+mRQqjRYaM5pHM7mvkF26obOQESD3Dsqjoe84+CA3yJq+hGUwhc60hyY50duweui9BoyCgwu1j9jz0eT36ch4svblg7FQDvB5t2Geik2SAQzD5Wdy7Hicnu9r33OK2lw5KTjBU1dStxb96nAY8NLvFXLK1OP4u/mraCQop5E5msJ1gBkdg2sXxQmaAWOYpYuF8irpHym4SGPiuFlgmLRA6rWhuZobRwmKxluIsRVC6IB+zJc216NM1OEX/s0XqQgqoX7mUtzDTagchvKQaubFMCmclFIpvpWcSoCvGtnLJaWWrps4Ke5ueKygcuJPR8XomBMYvuYz4XIzpeklMH2MaY1t5FdCHJ3HuKYNKKTyF+ycxYZDFuDyT5QiaiUoubzWkAZ5AfAYAzaSrN1TMKDnBQNYCGAIxA3Qi+1FXx+47SFiAEH6Pzi5TN/XiBVDIRnT0GryI1S4jkNuwbwIhbQnzspeiMjojmchoT5oGPktZvemJTPBWaYgWy+EtlhVu0WGHowuvnAL18Rq8//XoyyXoFDBr2YS2Lej389Cnt3u3u4Dmbwh59YkTe3aAZn4DmrnZbZYPkgY4ccr868H8f+r3sQ/Q1Nfx/Z2KZiRfqdq43EaCwg0ZnPW8di2NIubODVd0s3mGYc1jgpQ3VkfjMVWZo/7HGG7OpMzFgyzcT3kATeDeBnxnI3PYx5jB+1aClLKNGeY1JAT68BmPZtQ9JYKSEgy91oIP12qg5CAVPsutBvzhxKIBQrIvnurYDZPQS6Jh0dUgJBCKpA6nWGnQAt+GzzTisJ926Jul3DCSiFQRpys8OHNDX1yCI+IEkTLlqoKm2ixNo6WrbTYEimYkQ0HfvmJkzq9wGYHLoHHep68qa+s24N5H6JgAYbHD5vbVVIakqvbspQlrwYenAaprQjyCPkvMZTnSXtzd0bpTnVCk3RlrbTLNQHBEQC9bSSBJaTRpQTF0UHABzQ/hvZO7RyljGIc4h8bPuBen7Lp/Mb4xrpRStluNLWG0OGa8JbXETB/lAX0FQbIUx6TQUTXaRsGcpkS/ApW1C74CWkqsaQHm/6oljA0UfNKfzwAlZjWUlGBIluI+fKuBjpWLQZiPEFGgp23BxS2n2vduVDemQJmkIro+mZDwGcV8sN+czaBXYXNOQBE457A6FJHzeRAKJDwSgdEgugMkNLgrPHarKCgBgrfsFh3RAlDYardF2jkGpLwWeyW0Abx/17rrKrebMrp03M+fQD+E0Z8NIR66xbfikq0FH8ka4OTJ9bNtQz6CgbIEtNQCWspY6MkXWCC6dfiS9Yr5KDckI4VkC+NmU6m5HIaDsRgX/RU9vlK5DkEvoKHGwfpiYk397QYT/4HnCaWhmf58psSshpIRDGmluEKv1UBnLsOPPABC63BC5p3ZTiyTxiED5gYQBGmpRBSLXEJjW/EaG2GiNgx10Cc0IwMDQiiNqK6/ZgSQdeFrRpy1QijhmDWn04xKA2usiZMPruCGIGtgnXLZEFOXEu+XBIFoHGpmMA1mYjJdHbM/6AvztNaCjyQNUDEZGf0N3vkBX8nIBhm1VCab8F2bU7XUUoEaK5ZZ32tJy7l490oQ4H/T3rOkZTsYr6JltLlBHwZvEcJu6e6Yh/E6BEsrSXnAO14HYbISv4nPu+7EoVpvqs9F5Ks4NLo65nw0QTMZ+QxQQlZDyQiGdFLcR7LV4GKNNWnS/kXkX/Yahgx/ghPERxosBj2j0Eh30AveKLjdMLJBv8aqrD3gRktgcIGpYHDRoMJAcweZ694gXzrNayihoQYZNCsOk1q0iKDVUiwRVcSkpXAgeNkavMfV+L/k26f3p5gos+2mkUzy0/enDtp01oKP/hpg7mgmWbnAD5FgB/OSW4pFUBDTtO3IPNsEXQowf3Kh+nNvpPl7YeLKWvLn3VzNv5X2hpDNI59785QHLohRX5s634PDEQcGkLWYmrc0IJ8pIauhJATDgFJcoa/VMBpQ2r8w10rBaSJ7A55nevKgB7NuyOXv9xucBrQyEiJZDk6ahAuyQHO+JsZVAUaTea46DmbJqslVAwG7id6XzZ2m0bSGBrQWfIyyBphWuaDJUtAMN4hmnKb8uBJdpYQ7Yh7GDQVZZKWUkMYPK6F5tJQSt88cvC92ras8KMsj4U4c7Zpkg/MZoESshpIQDANJcR/9rYbRhZrsZknaIQbTWA565cYIBiGshBej7ZrzqWF7OFbmPAa1mhjHoFMWhzLnc5iBme/3kYqBrAUfY60BJisX6K/1eL7Z/jvC+eZcCkvShqUp5gllkVL2uDvJi0v19LvuXWrcgC5AG6RMcLmb3JiWIVq4Y7SMdhUAn2ZAKxCcvvLguhNxvGWkVuRQkRWfKRGroSQEgxpQyXDMn6poIsv+htfCzHjAzmc5C1/bSdaQ0axcJWOhIafCnwDkhpr8y5zo40dUkdWhmANrhbBpcSOqMltAfZicpw2r7/L+b77dJqk0I23z32jPLecu1eAhn5P/6YQp9gmaEQGrIZNWThFzPCrqs+5f6lvXssyqf0cDqk8caz2eaR1Oh/R/84HKmrr/pP1YKpxjhZIQDKlQkl3yLZ0duwdPa88T/NLB6ICETx37HRgUbgTLGGtDqfA1SlsY8wwm6xMaJawOxeQ9+Bol9kfBwCxQ1CTO5EKQ1mx8Rs250P9xpLOpkP3nxTDIlaCQYJyGBOPkV+K9VkGD3ovjfXjvXVzKoOR8FgkA3yJUfeCGc/bJsZFSNOe7Jg8pJwFmbkhWHpKtyDhzNhVycIUWDEWGYhAMfeFOpBlcbkgkTiX8p6xhLPynQ0XVlLrlXMgbhMEpJHAZnrcGbMgBJ7IZ5yH3rt5YcxBaM/mgiTllijXPJwpukGebyEXvmPEe7Muwt6BZH8J+G643Wg5/6PjxNw+69+Uf6SL78J+UFYn/V3Tl6rVgKDIUn2BIwUBx+5Jvxn7MSzGo8D0vLhwMfgMYVOa8jiyZGr6nf6kRg1wavHmsS43kY5Ar10maRC4MSnL3eEl12SZy9Ubp4POeFdo7OcuEaOycKLaONc2k5gL5VmRuIvfyCy0YigxFLxhSkMyUaYCh21YmmDJjjWASDTnPsO0VTuvAsNzsYgADe8R1ghTDSKlnQ3sSHrjcv9QIuUDIFTKKpUZGY5D78zjE+JMTubDHeZI7blQSHNdYk2r3rxSCr09YoUAuwzlT0Z9OezPBQbPDyvUpZGjBUGQoNcGQirSJU16yHdpo0Dd0dewhN9QQkIaRcEkTlErjHEt3VvalRiiiKjEpnkiQwpXmoZYaGc4gT5/IRdp+uuckjd/18/vPOaxEruEiQwIY+nUrnq9xqAlgCsnfmSJ88F+zqg5QzNCCochQ6oIhFYqRxm0Kb0z4bpW27U38Gg5rSJeYNXFy/cq+rgdeAaaVCAcMGqGGQprX8JFJEx+kpEILNPHdmTTxdIOcNODhJnIJJpsLuYjiQNp9ZuWir7sKdEKuTktFAGaoJ1bK0IKhyDDeBEMqFOMUAQgKil5JDhWlpUhZl+ByMmfGRR5jU+GAYHSNLBZvyGckVK6Q8N0PUmoEjLAVTPwgmDlVS13CpAFFXu6STFTjeBZGR0lllw8E5d5LPx/wksFkp2C8Cv/7Ys/NRwKjIIMixhJaMBQZxrtg8JGIg+fsOnT1FWiiJS8dbCYGeRu02scMg23KX4bt6KN/Ihefz7g4B5fqICS8yB6CxHvBm2LuusAQAnGcHoJw3YvP7CT3z2hm9RYKEklljF+Nl3EtOMQENEexhfAOutDegJfzaKnWeRoKtGAoMoxXwdAnqczLnCVLAZrfpuTs4uTEKWh9VJ8IGrJsBiNsoESisU62GwmGnMhFLh93TqJPIpc/yENG6BNZlxoh64HhvXnuI9ddVVyLN/k0g/+3Ds+/Hu+lT1KZTwtkhWaq84TPFF2oaS6gBUORYbwIhuTBKiUYfMJlNLTs4kxZ2fjOTTjOa7Jdn9IeXgQTnintilxop1wJN4ppiIlc2Q7yYZcawfPATmvOdamRocKnGTzziOozkSXmmGJ9puS0UrZCfWjBUGQoVcHgRyOBGVHmK4WQ9plkzk29/3Tx8O6kNPabcu5XTs55cMBoSUN3NX/FaMFcM+c8kPafIw09V4PcnxgfWSmK3C3e1EszVG+or6ZPygPLUXHHhOUhXIGD35uO/12UVmi20IKhyFAqgsGPHGGCBnWuwlKHioHDWMFkNg8WiaKYRtwA0zeIWY4wkWt0MFaDfKilRkhw4D21Um6DAQEyWPG6tDSTRYRarjFQnSeimXyXfMkFtGAoMhStYKC48FPGajBQWARuCCEYg63iwkcrkW2oSJf4JpkD5vMayIlCQjugNRqgrLPQnlUilyl5cz4LHBIKZZBX1tbVU7nrZCGK5noSHOmFqNiP9y5wbQruqcO7XQShMkjY6dgjnbuSrFBSLkhgFaOg0IKhyFA8gmGNVVVzYDUOehOEfG08T6Uv0qF/wlnGRC6qk0T1eohx7cP5K9Iwt4BZbSz0ta2LYpBDKE/osuosS74NAvUK0MwFXLKZeOcc79rBPqDuU1nxsC6S3W5eeC23neZCYMBKUAhaoU+ug7AY87UVcgEtGIoMhSsY0vvvMThgEeRvQOQykcv3aSvNkKvqsUtwnHBlFOq6x4U8yPsnInpMVFLoKGv0lQeVizDUUiM0xyHZ7tEqNZId0ifO4UK//6huLxBowVBkKCTBUBgm9EArcinN343nH4VEroHCHIcSOTXaKKRBnpFmOGtAvzQOV3kYWqkR1f9KCcBvj20JjwFKbdC4xmFTZ8fsrfm2QLVgKDLkUzD0nXST6z2mm4gLH63FRtKuyKUmd/tl+3ruBTcSZixX5CKkDXN05x4a8hnmmM9BnnmiVjbgvTSOlf/dj6jC7w+t1AhFVBE9jajo3wDwBYWKrOpfviNfNZm0YCgyjKVgSE4qw8tUaz378dyS8UbHiDfkIqImXSIXBkW9O2jJVTCyFdfyBfX+UlbtovcHgTEmaz/7GMtBnkwz6CuViJiP/zxUqOfOrtTIqCoffuSVW+eJqQAIcnOSoMDvbR4rd6UWDMUDmsi9PFhW/WHpOHvisVOPus398DQ2mKJDR7oEIY8Zw8xnjcPVeFMTudAEM79/4hSEwYgSuQodvSUZKOqJ0xxFbz2n3Ic5LsB2Kx0EQ1XvpH0s2vkA7VOwD9vP3MOhI9mdBqapEhELwUrKLVx3JQ5gsSp6TXJXJkVUpbgrlZtKnbPm4bor+8xrpQnRHWD1QMUv3MMBkZZfaMFQPPg0tg+ZVmgSGOUJ4cTTachkEn8P2/9VZ4PAZdgBaLRuQTpsKqkM2orS7rL2kcMcHlYiF8Xzk+ZfZKUWcgXf3453sA7vmwZ9ogIsM9jmEU7WE2P4LbZnTTO4hBocJ5Ya41+DrQPbBnWWBZIZFYQAfW4ROhYMz032Go91hvoFOAxSaoToH++vmQIchkr/9P4zrRSX8v4Vv8A2kCWdkV9owVA8oI4mV9JbB3AlqXuAtIKBCDgie9Zy6eYSpGofA5mpQ03kQntBL3dZeMj5KmUkGD6DbcMAgzxxjzpLg2TXBvpTrW6XLc1ouOhjMavxkr7UCL1Xb9xkbTGns9hIUPR0tx8QMr53wqTaTw9gsWXkF1owFA9oEJNg+MIAgkHdA7imITT5yjMWBIFrhqIl48QWEViImfWUtZo8OYd92kQuHDbje1TWKgi4IBK5Sgojj14hV9Il2H42wCBP3KPOCL2/m0jyy0Qz6n6NEcOfGB9SqRESHGRxp5Qa8ed4Yj2n/8wwzGVWsCwxL0iuvThzNiUpaH35RRK0YCgyDDj5PAAzYcx4jjNnl2SBU1w6c1ythQhPMX/ykyaF8yUmdxPhfLgy5JXDNHII6tuUzPFsGfbAg9y1VAwuNwxTAGmMMrIuNZJGaYO1HmfSOYtz4wK09ynfQa6nTMEAWjAUGfoKBndQC/v02w0euMywrOX41yEp+X78+WMwVWNg9JVg/mfh3PVzkhsgKQEoXSKX+iGNgobv4kFfrkOnrh/IxZM6yCuqp68Rtnh7IFSxEJ8ZqctKI88YWqkR1gaaEehr8AM+H31fDhrYiWt9qg1rwVBkqKyZ/wyYADF7Cx28AH/Tip45IXBuhMrQ1ymRETgvuRW5NPoj3aRwPHq6K9pz/DSsxfJgqKIjUFb5CuhlrROPVEdOd5yaUDXrB5KLxjAva9IKQUmC5hAuDgYr/tth4ionduYT4B2RUPnk7eAVJnhEIjAEoEWuCNTeLhl3OBSFzo7m27z2kkGpCQbyB14Orf4cKzjhL2EGdsNEPCak2G/HemoN09gaqp7xz3qCV4MQrJi8ONZ9/LVgqHKbFQhPi0a7pkJ3aCkrm/zVM91thx0neiduyzoaSaPocB22b2Kj4IJPYpuE7VJstNLhH7Bdg20PWZ7JpUaENFZyJs4H95zjOPyy0yd2v4r7NAoYH8ZGoWeb0mzU7kcYaGgQSJEg2kjGt7E9h42YRuo1jdIC8QOfJyQfE1LPxxXc9W1LB35CG2l5qRvFImtoJON1bBRxRLkKPj6GjQTDT9SZxngBJTHSpgGY3r5UcALbImyd2FI7eQ42ah/1RUo0igY92GgluFpsb1KDh99howQsci1oAVG6IFf6fmzEK4gvJPMGzS80NDQ0NDQ0NDQ0NDTGBShsbLDQsWzu0RgfuBDbPe5hRmRzj0ZxQvOLDCi1yeezvG0gZHOPxvjARGwXuYcZkc09GsUJzS8yoNTyGCi8bNjVEjXGHShcVVVXVWfpMeTqqhpFA80vMqDUBAMVPJvpHg6IQ9j2uIca4xjE9Be7hwPiFLbt7qFGCUHzCw0NDQ0NDQ0NDQ0NjXGHwaIFqESGhoaPweiF5hwoCkmj9ED9OlDfkltx3EUflSokNqptk1zSgEDnVOeGrmto+CCaoHIX5FtOBYWkEr34C7NolBaoX6l/0ymLJDD8GmsaJQCKKqDOpk71tQEigOPYqH3cFsHSSAsqjEe0QZuvHZKQIGFB9EKrtKUqGRqlAepX6l/qZxIAfj+ToKA2ogmiD40SAQmE5IHtd/xAZqPG+EUqgyCGQIqFZgrjA8nKAfU/0UE6r4NGCYA6lQa3Lxw0NAaDLxyIbjRTGF8gpZH6njY9D1miINeRLxRI8vvCIZ0fWUOD6MLXFIlOSHMki1PPLYwPkCDwLQZfOSCXs1YOSgj+hGG6OQbatDagkQyaV/BpI90cA9GTZhClCepXXyGgvd/P/hwD8RCtHJQIqEN1VJJGtiCa0FFJ4xPUr9S/6ZRFUipJMBB9aJQABpsw1FFJGskYjF7oug5aKE2QMjBQ35IyqT0MGhoaGhoaGhoaGhoaGhoaGhoaGhoaGhoaGhoaGhoaGhoaGhoaGhoaGhoaGhoaGhoaGhoaGhoaGhoaGhoaGhoaGhoaGhoaGhoaGhoaGhoaxQXG/j/DoGTgixFEAwAAAABJRU5ErkJggg==;" parent="1" vertex="1">
          <mxGeometry x="152.84" y="169.92000000000002" width="407.16" height="500.08" as="geometry" />
        </mxCell>
        <mxCell id="N3PisCW0dnbsBlv9NRA1-109" value="" style="shape=flexArrow;endArrow=classic;html=1;rounded=0;" parent="1" edge="1">
          <mxGeometry width="50" height="50" relative="1" as="geometry">
            <mxPoint x="360" y="700" as="sourcePoint" />
            <mxPoint x="360" y="640" as="targetPoint" />
          </mxGeometry>
        </mxCell>
        <mxCell id="N3PisCW0dnbsBlv9NRA1-110" value="&lt;font style=&quot;font-size: 18px;&quot;&gt;Sigmoid/Softmax&lt;/font&gt;" style="ellipse;whiteSpace=wrap;html=1;" parent="1" vertex="1">
          <mxGeometry x="275" y="169.92" width="169" height="60" as="geometry" />
        </mxCell>
        <mxCell id="N3PisCW0dnbsBlv9NRA1-111" value="" style="shape=flexArrow;endArrow=classic;html=1;rounded=0;exitX=0.5;exitY=0;exitDx=0;exitDy=0;" parent="1" source="N3PisCW0dnbsBlv9NRA1-110" edge="1">
          <mxGeometry width="50" height="50" relative="1" as="geometry">
            <mxPoint x="330" y="160" as="sourcePoint" />
            <mxPoint x="360" y="110" as="targetPoint" />
          </mxGeometry>
        </mxCell>
      </root>
    </mxGraphModel>
  </diagram>
</mxfile>
